<svg width="259" height="209" viewBox="0 0 259 209" fill="none" xmlns="http://www.w3.org/2000/svg">
<path fill-rule="evenodd" clip-rule="evenodd" d="M122.664 34.2872C122.658 33.3486 122.645 33.2125 122.732 33.1321C122.819 33.052 123.005 33.0272 123.179 33.0828C123.353 33.1385 123.514 33.2743 123.617 33.7655C123.719 34.2568 123.763 35.1032 123.765 35.8053C123.766 36.507 123.727 37.0641 123.712 37.4407C123.699 37.8173 123.71 38.0137 123.541 38.2133C123.371 38.413 123.021 38.6165 122.846 38.6998C122.67 38.7829 122.67 38.7459 122.67 37.8565C122.67 36.9674 122.67 35.2259 122.664 34.2872ZM129.03 73.6594L125.913 78.2289H129.03V73.6594ZM160.342 71.5407C160.191 72.0587 159.915 72.5415 159.094 74.0021C157.81 76.2889 156.534 78.5808 155.268 80.878C153.628 83.8561 151.709 87.3748 150.184 90.169C148.658 92.9634 147.527 95.0331 146.302 97.1602C145.055 99.3271 143.76 101.466 142.418 103.576C141.078 105.681 139.715 107.705 138.293 109.636C136.872 111.569 135.393 113.408 134.249 114.708C133.104 116.007 132.296 116.766 131.591 117.405C130.886 118.044 130.285 118.563 129.43 118.823C128.575 119.082 127.465 119.082 126.483 118.65C125.501 118.218 124.645 117.354 123.536 116.151C122.427 114.949 121.063 113.408 119.931 111.856C118.798 110.303 117.897 108.74 116.938 107.13C116.131 105.776 115.283 104.386 114.209 102.187L113.933 102.165C111.451 101.965 110.093 101.856 108.337 101.707C106.58 101.557 104.425 101.367 103.324 101.284C102.224 101.201 102.177 101.224 101.912 100.304C101.646 99.3839 101.16 97.5213 100.827 96.4859C100.493 95.4509 100.312 95.244 100.797 95.1178C101.282 94.9913 102.435 94.9454 103.739 94.7959C105.043 94.6465 106.499 94.3935 108.383 93.9911C109.076 93.8431 109.768 93.6858 110.456 93.5191C110.017 92.439 109.603 91.4108 109.242 90.5137C108.051 87.5587 107.427 86.0178 106.815 84.2125C106.202 82.4071 105.602 80.3372 105.186 78.7277C104.77 77.1179 104.539 75.968 104.331 74.5994C104.123 73.2311 103.938 71.6445 103.923 69.9906C103.908 68.3372 104.062 66.6171 104.421 65.0532C104.779 63.4893 105.34 62.0818 105.898 61.1023C106.457 60.1225 107.012 59.5706 107.289 59.2945C107.566 59.019 107.566 59.019 107.566 54.0858C107.566 49.1527 107.566 39.2867 107.59 34.3535C107.613 29.4206 107.659 29.4206 107.775 29.2828C107.89 29.1447 108.075 28.8687 108.445 28.5006C108.815 28.1327 109.369 27.6725 109.774 27.2933C110.178 26.914 110.432 26.6149 110.606 26.3389C110.779 26.0628 110.872 25.8098 110.814 25.5109C110.756 25.212 110.548 24.8672 110.652 24.4991C110.756 24.1309 111.172 23.7403 112.027 23.1537C112.883 22.5673 114.176 21.7853 115.552 21.0263C116.927 20.2675 118.383 19.5317 119.976 18.8342C121.568 18.1365 123.298 17.4774 124.719 16.9946C125.746 16.6444 126.785 16.33 127.834 16.0518C128.413 15.8985 128.46 15.8985 128.483 18.8192C128.506 21.7397 128.506 27.581 128.494 30.5015C128.483 33.4221 128.46 33.4221 128.762 33.2382C129.065 33.054 129.693 32.6863 130.374 32.3184C131.056 31.9505 131.792 31.5825 132.691 31.1456C133.59 30.7086 134.654 30.2028 136.167 29.6162C137.681 29.0298 139.646 28.363 141.633 27.7993C143.621 27.2363 145.631 26.7761 147.353 26.4196C149.075 26.063 150.508 25.8102 151.474 25.7212C152.439 25.6322 152.939 25.7069 153.205 25.7185C153.47 25.7298 153.503 25.6778 153.519 32.7008C153.536 39.7239 153.536 53.8217 153.501 60.8931C153.466 67.965 153.397 68.0109 153.605 68.034C153.813 68.057 154.298 68.057 154.922 68.0456C155.546 68.034 156.309 68.0111 156.991 68.0111C157.673 68.0111 158.274 68.034 158.817 68.1832C159.36 68.3327 159.845 68.6089 160.122 68.9195C160.4 69.2296 160.469 69.5748 160.493 70.0231C160.515 70.4716 160.492 71.0233 160.342 71.5407ZM111.013 90.5678C111.344 91.4054 111.698 92.2591 112.061 93.1053C112.208 93.0649 112.353 93.0238 112.499 92.982C112.132 92.1276 111.776 91.268 111.434 90.4033C110.061 86.926 109.24 84.0941 108.518 81.4912C107.806 78.9257 107.328 77.1086 106.994 75.4132C106.685 73.839 106.475 72.2469 106.366 70.6465C106.268 69.2123 106.275 68.0999 106.388 67.0402C106.506 65.9362 106.74 64.9019 107.065 64.0489C107.346 63.3107 107.716 62.6385 108.265 61.8686C108.711 61.2424 109.175 60.6885 109.398 60.4221C109.682 60.0835 109.682 60.0835 109.682 55.0806C109.682 50.2883 109.682 40.3162 109.693 35.3951C109.704 30.9378 109.725 30.5573 109.841 30.4181L109.948 30.2866C110.114 30.0827 110.364 29.7743 110.617 29.5312C110.806 29.3505 111.007 29.1953 111.219 29.0314C111.362 28.9212 111.511 28.8056 111.669 28.6737C112.075 28.3348 112.571 27.8626 112.803 27.2129C112.952 26.7961 112.987 26.3171 113.014 25.9322C113.028 25.7443 113.04 25.567 113.064 25.4377C113.117 25.143 113.211 25.0907 113.521 24.9174L113.557 24.8977C114.039 24.6245 114.515 24.342 114.986 24.0503L115.221 23.9045C115.738 23.584 116.324 23.2207 117.108 22.8062C117.912 22.3808 119.027 21.8482 120.249 21.3066C121.433 20.7817 122.333 20.419 123.259 20.0944C124.448 19.6779 125.651 19.3354 125.88 19.2709C125.928 19.2575 125.984 19.2416 126.024 19.235C126.1 19.4335 126.097 20.2627 126.091 21.5886L126.09 21.9511C126.084 23.4628 126.081 25.7239 126.078 27.9839C126.075 30.2457 126.073 32.5064 126.067 34.0133L126.065 34.5321C126.056 36.5472 126.055 36.8568 126.225 37.0269C126.281 37.0828 126.355 37.1132 126.433 37.1132C126.543 37.1132 126.633 37.0562 126.734 36.9924C126.889 36.8947 127.116 36.7544 127.385 36.5879C127.783 36.3428 128.179 36.0963 128.574 35.8484L128.707 35.7653C129.431 35.3101 130.18 34.8393 131.683 34.0644C132.666 33.5575 135.284 32.2496 138.355 31.0588C140.908 30.0695 143.757 29.1667 145.978 28.6439C148.11 28.1413 149.552 28.0196 150.329 27.9539L151.091 27.8892C151.108 28.3693 151.108 29.9739 151.108 34.4626C151.108 41.1024 151.108 54.9187 151.074 63.3582C151.068 65.1779 151.056 66.9975 151.039 68.8171C151.191 68.7933 151.341 68.7708 151.491 68.7487C151.507 67.2146 151.517 65.4418 151.526 63.36C151.56 54.9196 151.56 41.1027 151.56 34.4614C151.56 31.1176 151.56 29.439 151.553 28.5644C151.545 27.5315 151.544 27.4236 151.279 27.4236L150.289 27.5061C149.502 27.5724 148.039 27.6959 145.873 28.2063C143.634 28.7336 140.762 29.6432 138.191 30.6396C135.21 31.7951 132.703 33.0311 131.474 33.6649C129.955 34.4487 129.163 34.9461 128.465 35.3849L128.333 35.468C127.938 35.7153 127.543 35.9613 127.146 36.2059C126.903 36.3565 126.694 36.4857 126.537 36.5842C126.509 36.286 126.512 35.6013 126.516 34.5336L126.518 34.0149C126.524 32.5076 126.527 30.2464 126.53 27.9841C126.533 25.7244 126.536 23.4637 126.541 21.9525L126.543 21.59C126.551 19.5398 126.553 19.1131 126.333 18.8935C126.296 18.8569 126.252 18.8282 126.204 18.809C126.155 18.7897 126.104 18.7805 126.052 18.7817C125.956 18.7817 125.859 18.809 125.757 18.8376C125.526 18.9028 124.31 19.2489 123.109 19.6697C122.17 19.9988 121.26 20.3654 120.064 20.8955C118.834 21.4412 117.709 21.9788 116.896 22.4087C116.097 22.8307 115.505 23.1984 114.982 23.5227L114.747 23.6678C114.282 23.9563 113.811 24.2356 113.334 24.5054L113.3 24.5247C112.971 24.7087 112.71 24.8538 112.619 25.3571C112.591 25.5104 112.578 25.6996 112.563 25.8997C112.536 26.276 112.506 26.7025 112.377 27.0616C112.181 27.6094 111.741 28.0266 111.379 28.3287C111.225 28.457 111.08 28.5687 110.942 28.6757C110.719 28.8474 110.51 29.0096 110.304 29.2071C110.03 29.4695 109.769 29.7908 109.597 30.0034L109.49 30.1342C109.267 30.4024 109.253 30.4183 109.241 35.3933C109.23 40.315 109.23 50.2874 109.23 55.0799C109.23 59.7844 109.225 59.9261 109.051 60.1334C108.824 60.4041 108.352 60.9672 107.896 61.6076C107.324 62.41 106.938 63.1134 106.642 63.8888C106.304 64.7772 106.061 65.8501 105.939 66.9918C105.823 68.0785 105.816 69.2146 105.915 70.6758C106.025 72.2951 106.238 73.906 106.551 75.4988C106.888 77.208 107.367 79.0338 108.082 81.61C108.808 84.2249 109.632 87.0702 111.013 90.5678ZM146.378 43.9872C146.378 44.5237 146.378 44.6079 145.852 44.952C145.326 45.2959 144.276 45.9 143.731 46.2718C143.187 46.6436 143.149 46.7832 143.131 46.9942C143.112 47.2052 143.112 47.4873 143.238 47.6619C143.365 47.8368 143.619 47.9043 144.41 47.5563C145.201 47.2084 146.53 46.4448 147.194 45.9997C147.859 45.555 147.859 45.4283 147.859 42.7604C147.859 40.0927 147.859 34.8834 147.851 32.2514C147.844 29.6194 147.829 29.5642 147.546 29.6105C147.262 29.6566 146.71 29.8038 146.445 29.8776C146.18 29.9512 146.202 29.9512 146.213 31.5201C146.224 33.0892 146.224 36.2275 146.215 37.8057C146.205 39.3841 146.187 39.4027 146.086 39.4647C145.932 39.5594 145.772 39.6424 145.605 39.713C145.41 39.7934 145.203 39.8483 145.074 39.8499C144.945 39.8517 144.893 39.8 144.867 38.2217C144.841 36.6433 144.841 33.5384 144.807 31.9768C144.773 30.4152 144.704 30.397 144.485 30.4374C144.265 30.4776 143.894 30.5769 143.692 30.6723C143.489 30.7674 143.454 30.8594 143.439 30.9745C143.425 31.0897 143.43 31.2278 143.432 32.7799C143.435 34.3322 143.435 37.299 143.435 39.0584C143.435 40.8176 143.435 41.3691 143.542 41.7066C143.649 42.0438 143.863 42.1667 144.248 42.0693C144.632 41.9712 145.186 41.6527 145.511 41.4465C145.835 41.2405 145.929 41.147 146.004 41.1161C146.079 41.0852 146.135 41.1172 146.194 41.1874C146.253 41.2571 146.316 41.365 146.347 41.9135C146.378 42.462 146.378 43.4508 146.378 43.9872ZM140.556 37.0094C140.559 34.5652 140.566 34.5411 140.848 34.3685C141.131 34.1962 141.69 33.8752 141.975 33.7147C142.26 33.5539 142.272 33.5539 142.277 33.146C142.284 32.7379 142.284 31.9212 142.284 31.5246C142.284 31.1278 142.284 31.1508 141.362 31.6059C140.44 32.0611 138.597 32.9486 137.659 33.3997C136.722 33.8509 136.69 33.8664 136.715 34.2706C136.739 34.6749 136.82 35.4682 136.889 35.8448C136.958 36.2211 137.015 36.1804 137.262 36.0342C137.509 35.8879 137.946 35.637 138.31 35.4721C138.675 35.3067 138.967 35.2277 139.116 35.2584C139.265 35.2888 139.271 35.4285 139.286 37.9047C139.3 40.3809 139.323 45.1937 139.33 47.5863C139.337 49.9794 139.33 49.9524 139.542 49.8148C139.755 49.6773 140.187 49.4291 140.392 49.3049C140.597 49.1804 140.575 49.1804 140.564 46.7489C140.553 44.3172 140.553 39.4534 140.556 37.0094ZM132.682 78.6831V78.2289H129.487V71.9658L125.32 78.2289H123.743L115.123 87.5996L115.108 87.7179V91.4015H115.564V87.8942L123.941 78.6831H132.682ZM128.117 81.4085V83.4525H129.258V81.4085H128.117ZM124.922 81.4085V83.4525H126.291V81.4085H124.922ZM122.183 82.7712V84.8152H122.868V82.7712H122.183ZM119.901 85.4966V87.0863H120.585V85.4966H119.901ZM117.39 88.2219V89.8117H118.075V88.2219H117.39ZM111.193 44.493C111.185 47.3315 111.171 47.3828 111.867 47.0301C112.562 46.6779 113.969 45.9209 114.698 45.4944C115.427 45.0679 115.478 44.9713 115.397 44.7442C115.317 44.5173 115.106 44.1596 114.937 44.0002C114.768 43.8405 114.642 43.8789 114.323 44.0361C114.004 44.1928 113.492 44.4683 113.216 44.6173C112.939 44.766 112.898 44.788 112.877 42.5925C112.857 40.397 112.857 35.9838 112.848 33.7467C112.839 31.5096 112.822 31.4488 113.085 31.2718C113.349 31.0949 113.892 30.8024 114.176 30.6371C114.46 30.4717 114.484 30.4338 114.495 30.1585C114.507 29.8833 114.507 29.3707 114.465 29.1093C114.422 28.8474 114.336 28.8372 114.251 28.8263C113.227 29.3775 112.203 29.9287 111.694 30.1912C111.186 30.4535 111.193 30.4281 111.197 33.2282C111.2 36.0285 111.2 41.6543 111.193 44.493ZM118.855 29.7136C118.849 31.4878 118.849 34.9736 118.849 37.3253C118.849 39.6773 118.849 40.8955 118.843 41.5106C118.838 42.1258 118.826 42.1376 119.117 41.9707C119.407 41.8035 119.999 41.4574 120.297 41.2841C120.596 41.1108 120.6 41.1102 120.602 41.0995C120.604 41.0893 120.604 41.0695 120.601 38.487C120.597 35.9043 120.59 30.759 120.566 28.1731C120.542 25.5874 120.5 25.5608 120.254 25.5593C120.008 25.5579 119.558 25.5815 118.77 26.0087C117.981 26.4359 116.855 27.2669 116.299 27.6939C115.742 28.1209 115.755 28.1436 115.762 30.824C115.768 33.5046 115.768 38.8427 115.773 41.5162C115.778 44.1898 115.788 44.1987 116.076 44.0363C116.363 43.8737 116.928 43.5398 117.221 43.3341C117.513 43.1281 117.534 43.0499 117.544 40.6559C117.555 38.2622 117.555 33.5525 117.555 31.1683C117.555 28.7838 117.555 28.7248 117.776 28.5531C117.997 28.3816 118.44 28.0979 118.655 27.9875C118.871 27.8765 118.86 27.9394 118.855 29.7136ZM122.368 30.7433C122.375 30.3711 122.434 30.0811 122.757 29.851C123.08 29.621 123.666 29.4504 124.037 29.0352C124.408 28.6194 124.564 27.9587 124.135 27.9405C123.707 27.9221 122.696 28.5462 122.172 28.9587C121.647 29.3711 121.609 29.5712 121.591 31.407C121.572 33.2425 121.628 36.287 121.652 38.4729C121.675 40.4427 121.545 40.4032 121.945 40.2353C121.989 40.2169 122.039 40.1969 122.097 40.1779C122.681 39.9855 123.446 39.5663 123.942 39.2531C124.437 38.9399 124.733 38.6964 124.82 37.574C124.907 36.4521 124.786 34.451 124.595 33.3517C124.404 32.2525 124.143 32.0549 123.856 31.9702C123.569 31.8853 123.255 31.9134 123.016 31.9416C122.777 31.9693 122.613 31.9968 122.509 31.7831C122.404 31.5698 122.36 31.1156 122.368 30.7433ZM124.905 42.6107C125.219 42.427 125.858 42.0595 126.169 41.8594C126.479 41.6596 126.46 41.6264 126.45 41.3273C126.441 41.028 126.441 40.4622 126.419 40.0988C126.398 39.7357 126.356 39.5749 125.802 39.8002C125.249 40.0252 124.184 40.6369 123.647 40.9473C123.11 41.2576 123.099 41.2669 123.094 43.8476C123.089 46.428 123.089 51.5797 123.089 54.1612C123.089 56.7426 123.089 56.7542 123.339 56.6161C123.59 56.4776 124.092 56.1896 124.346 56.0515C124.6 55.9137 124.607 55.9257 124.611 53.7413C124.614 51.5567 124.614 47.1755 124.608 44.9852C124.602 42.7944 124.591 42.7944 124.905 42.6107ZM133.573 43.7145C134.006 42.5071 134.121 42.5187 134.179 42.5821C134.237 42.6455 134.236 42.7604 134.236 44.3645C134.236 45.9686 134.234 49.0616 134.246 50.6149C134.257 52.1679 134.276 52.1808 134.554 52.0341C134.831 51.8876 135.357 51.5819 135.624 51.4427C135.89 51.3042 135.877 51.333 135.877 48.507V37.1718C135.877 34.3431 135.89 34.366 135.768 34.3774C135.647 34.389 135.416 34.389 135.197 34.4866C134.977 34.5847 134.78 34.7798 134.226 36.5727C133.671 38.3653 132.758 41.7552 132.285 43.4454C131.811 45.1358 131.776 45.1267 131.707 45.1219C131.637 45.1171 131.533 45.1171 131.059 43.9675C130.586 42.8176 129.742 40.5181 129.309 39.368C128.875 38.2181 128.852 38.2181 128.627 38.3389C128.402 38.4595 127.974 38.701 127.72 38.8679C127.465 39.0348 127.385 39.1268 127.344 41.8805C127.304 44.6345 127.304 50.0507 127.304 52.7702C127.304 55.4896 127.304 55.5126 127.539 55.3888C127.774 55.2652 128.245 54.995 128.476 54.8576C128.706 54.7197 128.698 54.715 128.694 52.9183C128.689 51.1213 128.689 47.5332 128.727 45.7169C128.765 43.9009 128.841 43.8573 128.913 43.8017C128.984 43.7463 129.052 43.6795 129.505 44.6729C129.958 45.6663 130.798 47.7205 131.217 48.7473C131.637 49.7743 131.637 49.7743 132.013 48.5611C132.389 47.3483 133.14 44.9218 133.573 43.7145ZM140.869 102.074C140.661 102.154 140.44 102.225 140.202 102.291C139.824 102.894 139.442 103.495 139.056 104.094C137.382 106.687 135.932 108.75 134.492 110.585C133.309 112.093 132.22 113.34 131.253 114.289C130.409 115.119 129.7 115.682 129.086 116.011C128.502 116.323 128.099 116.386 127.603 116.246C127.157 116.119 126.563 115.809 125.244 114.41C124.078 113.175 122.21 110.943 120.665 108.743C119.391 106.931 118.338 105.145 116.938 102.405L116.41 102.363C117.884 105.264 118.97 107.115 120.295 109.001C121.853 111.22 123.738 113.471 124.915 114.718C126.232 116.114 126.892 116.511 127.479 116.678C127.671 116.734 127.87 116.763 128.07 116.764C128.454 116.764 128.845 116.65 129.3 116.406C129.953 116.057 130.695 115.469 131.57 114.609C132.551 113.646 133.654 112.385 134.848 110.862C136.297 109.015 137.754 106.942 139.436 104.337C139.92 103.587 140.398 102.833 140.869 102.074ZM149.372 88.1268C149.366 87.9657 149.262 87.9657 148.985 88.2935C148.707 88.6212 148.257 89.2766 147.482 90.4206C146.708 91.5648 145.611 93.1975 144.691 94.4051C143.773 95.6122 143.033 96.3944 142.276 97.0498C141.52 97.7057 140.745 98.2344 139.971 98.5967C139.196 98.9587 138.423 99.1543 137.07 99.3266C135.718 99.4992 133.788 99.6487 131.691 99.7234C129.594 99.7979 127.329 99.7979 122.909 99.7466C118.489 99.6945 111.913 99.5912 108.446 99.4992C104.98 99.4073 104.622 99.3266 104.419 99.2406C104.217 99.1543 104.171 99.0623 104.125 98.6367C104.078 98.2113 104.032 97.4525 104.009 97.0728C103.986 96.6937 103.986 96.6937 104.454 96.6476C104.922 96.6015 105.858 96.5097 106.933 96.3542C108.007 96.1991 109.221 95.9806 110.584 95.6987C111.948 95.4171 113.462 95.0721 115.085 94.5836C116.709 94.0951 118.442 93.4623 119.823 92.9332C121.204 92.4042 122.233 91.9786 123.325 91.3915C124.419 90.804 125.576 90.0545 126.598 89.3016C127.621 88.5485 128.509 87.7915 129.311 87.0507C130.114 86.3098 130.83 85.5856 131.657 84.6714C132.483 83.7573 133.419 82.6531 134.384 81.4919C135.348 80.3306 136.342 79.1117 137.353 78.0595C138.365 77.0073 139.393 76.122 140.803 75.2767C142.213 74.4318 144.004 73.6267 145.362 73.1956C146.72 72.7646 147.644 72.7069 148.453 72.6667C149.262 72.6265 149.955 72.6031 150.579 72.7294C151.203 72.8563 151.757 73.132 152.104 73.5402C152.451 73.9487 152.59 74.489 152.232 75.519C151.873 76.5492 151.019 78.0693 150.285 79.2957C149.552 80.5225 148.94 81.456 148.253 82.4378C147.565 83.4194 146.802 84.4489 146.085 85.4302C145.368 86.4109 144.698 87.3439 143.923 88.2642C143.149 89.1849 142.271 90.0933 141.404 90.9729C140.537 91.8523 139.682 92.7033 138.919 93.3933C138.157 94.0833 137.487 94.6122 136.862 95.078C136.238 95.5438 135.66 95.9461 135.152 96.2565C134.643 96.567 134.205 96.7855 133.985 96.9694C133.765 97.1536 133.765 97.3031 134.153 97.3891C134.54 97.4757 135.314 97.4984 135.978 97.4697C136.643 97.4409 137.198 97.3605 138.058 97.056C138.919 96.7512 140.087 96.222 140.907 95.7391C141.728 95.2563 142.201 94.8193 142.819 94.2039C143.438 93.5888 144.2 92.7955 144.911 91.8928C145.622 90.99 146.28 89.978 146.91 88.9314C147.54 87.8856 148.141 86.8045 148.742 85.6489C149.343 84.4932 149.944 83.2627 150.637 81.7966C151.33 80.3306 152.116 78.6286 152.671 77.335C153.226 76.0414 153.549 75.1561 154.057 74.0119C154.566 72.8677 155.259 71.4648 155.6 70.6888C155.941 69.9125 155.929 69.7628 155.011 69.7342C154.092 69.7053 152.267 69.7971 150.822 70.0015C149.377 70.2052 148.315 70.5211 147.107 70.9295C145.901 71.3376 144.551 71.8382 143.199 72.4855C141.847 73.1323 140.493 73.9258 139.539 74.541C138.584 75.1563 138.03 75.5933 137.441 76.0759C136.853 76.559 136.231 77.0879 135.613 77.6861C134.994 78.2836 134.38 78.9507 133.819 79.6061C133.257 80.2618 132.749 80.9057 132.148 81.682C131.547 82.4582 130.854 83.3662 130.004 84.3092C129.096 85.3146 128.117 86.2542 127.075 87.1209C126 88.0121 124.856 88.8169 123.585 89.5646C122.314 90.3118 120.915 91.0018 119.54 91.6168C118.165 92.2321 116.813 92.7726 115.236 93.2784C113.658 93.7842 111.856 94.2556 110.498 94.5893C109.14 94.9227 108.227 95.118 107.169 95.2906C106.112 95.463 104.911 95.6124 104.009 95.6871C103.108 95.7621 102.507 95.7621 102.2 95.808C101.894 95.8541 101.883 95.9458 102.021 96.7221C102.16 97.4981 102.449 98.9585 102.593 99.6889C102.738 100.419 102.738 100.419 104.321 100.545C105.905 100.672 109.07 100.925 111.746 101.097C114.421 101.27 116.605 101.362 118.471 101.465C120.337 101.569 121.886 101.684 123.943 101.815C126 101.947 128.565 102.095 130.611 102.12C132.657 102.145 134.183 102.047 135.48 101.86C136.777 101.672 137.845 101.395 138.775 101.089C139.705 100.782 140.496 100.445 141.436 99.8229C142.374 99.2001 143.461 98.2917 144.466 96.9924C145.471 95.6928 146.396 94.0026 147.17 92.5938C147.945 91.1857 148.569 90.0586 148.927 89.3341C149.285 88.6098 149.377 88.2878 149.372 88.1268ZM143.769 77.8044C143.75 78.3664 143.734 78.9284 143.722 79.4905C143.705 80.2943 143.713 80.6429 143.658 80.8873C143.603 81.1314 143.486 81.2716 143.317 81.3504C143.149 81.4285 142.929 81.4458 142.704 81.414C142.478 81.3824 142.247 81.302 142.054 81.1582C141.86 81.0145 141.704 80.8076 141.534 80.6125C141.363 80.4176 141.179 80.2339 141.015 80.1403C140.851 80.0472 140.708 80.0438 140.632 80.1439C140.557 80.2441 140.55 80.4483 140.636 80.6942C140.722 80.94 140.901 81.2277 141.132 81.5064C141.364 81.7851 141.647 82.0553 142.096 82.3249C142.545 82.5947 143.16 82.8634 143.717 82.9604C144.274 83.0576 144.774 82.9829 145.265 82.7757C145.756 82.5688 146.239 82.2298 146.595 81.9195C146.951 81.61 147.179 81.3295 147.333 81.1176C147.488 80.9057 147.569 80.7617 147.61 80.602C147.651 80.4424 147.653 80.267 147.547 80.1996C147.443 80.1319 147.232 80.1723 147.012 80.3261C146.792 80.4801 146.562 80.7474 146.314 80.9416C146.066 81.1355 145.801 81.2563 145.572 81.3252C145.344 81.394 145.154 81.4115 144.986 81.3942C144.819 81.3769 144.674 81.3252 144.587 81.2277C144.501 81.1298 144.472 80.9861 144.443 80.1782C144.421 79.5714 144.4 78.5903 144.382 77.8083C144.628 77.8083 144.86 77.8065 145.043 77.8024C145.555 77.7908 145.688 77.7622 145.78 77.702C145.872 77.6418 145.925 77.5496 145.954 77.4579C145.982 77.3657 145.988 77.2737 145.994 77.2251C146 77.1762 146.005 77.1703 145.373 77.1678C145.115 77.1665 144.751 77.1656 144.368 77.1653L144.367 77.1179C144.363 76.9364 144.358 76.755 144.35 76.5737C144.437 76.5274 144.509 76.4587 144.56 76.3748C144.611 76.2909 144.638 76.1949 144.638 76.097C144.638 75.7959 144.389 75.5506 144.085 75.5506C143.779 75.5506 143.53 75.7959 143.53 76.097C143.531 76.1946 143.558 76.2902 143.608 76.3739C143.659 76.4576 143.731 76.5263 143.817 76.5728C143.813 76.6378 143.81 76.7123 143.806 76.8002C143.802 76.9055 143.797 77.0295 143.792 77.1649C143.426 77.1649 143.081 77.1653 142.833 77.1658C142.198 77.1678 142.198 77.1703 142.198 77.2192C142.198 77.268 142.198 77.3629 142.225 77.4542C142.253 77.5451 142.308 77.633 142.4 77.6904C142.493 77.7479 142.623 77.7754 143.133 77.7917C143.309 77.7974 143.533 77.8015 143.769 77.8044ZM158.55 70.1918C158.379 70.1668 158.12 70.3574 157.881 70.5784C157.643 70.7998 157.426 71.0508 157.007 71.6883C156.588 72.3258 155.967 73.3494 155.402 74.4393C154.838 75.5292 154.329 76.685 153.658 78.2289C152.988 79.7728 152.157 81.7047 151.491 83.1864C150.825 84.6685 150.325 85.7003 150.146 86.2553C149.966 86.81 150.108 86.8876 150.45 86.3716C150.792 85.8558 151.336 84.7459 151.959 83.5534C152.583 82.3601 153.289 81.0837 153.988 79.7903C154.687 78.4967 155.381 77.1853 156.022 76.0534C156.663 74.9206 157.253 73.966 157.721 73.1034C158.188 72.2413 158.535 71.4709 158.668 70.9649C158.801 70.4589 158.72 70.2173 158.55 70.1918Z" fill="white"/>
<path d="M14.625 141.407V157H11.115V144.377H5.31V157H1.8V141.407H14.625ZM29.8005 157C29.6355 156.46 29.448 155.905 29.238 155.335C29.043 154.765 28.848 154.195 28.653 153.625H22.578C22.383 154.195 22.1805 154.765 21.9705 155.335C21.7755 155.905 21.5955 156.46 21.4305 157H17.7855C18.3705 155.32 18.9255 153.767 19.4505 152.342C19.9755 150.917 20.4855 149.575 20.9805 148.315C21.4905 147.055 21.9855 145.862 22.4655 144.737C22.9605 143.597 23.4705 142.487 23.9955 141.407H27.348C27.858 142.487 28.3605 143.597 28.8555 144.737C29.3505 145.862 29.8455 147.055 30.3405 148.315C30.8505 149.575 31.368 150.917 31.893 152.342C32.418 153.767 32.973 155.32 33.558 157H29.8005ZM25.593 144.94C25.518 145.165 25.4055 145.472 25.2555 145.862C25.1055 146.252 24.933 146.702 24.738 147.212C24.543 147.722 24.3255 148.285 24.0855 148.9C23.8605 149.515 23.628 150.16 23.388 150.835H27.8205C27.5805 150.16 27.348 149.515 27.123 148.9C26.898 148.285 26.6805 147.722 26.4705 147.212C26.2755 146.702 26.103 146.252 25.953 145.862C25.803 145.472 25.683 145.165 25.593 144.94ZM40.8414 141.407C41.1114 141.902 41.4189 142.517 41.7639 143.252C42.1239 143.972 42.4914 144.76 42.8664 145.615C43.2564 146.455 43.6389 147.317 44.0139 148.202C44.3889 149.087 44.7414 149.92 45.0714 150.7C45.4014 149.92 45.7539 149.087 46.1289 148.202C46.5039 147.317 46.8789 146.455 47.2539 145.615C47.6439 144.76 48.0114 143.972 48.3564 143.252C48.7164 142.517 49.0314 141.902 49.3014 141.407H52.4964C52.6464 142.442 52.7814 143.605 52.9014 144.895C53.0364 146.17 53.1489 147.505 53.2389 148.9C53.3439 150.28 53.4339 151.667 53.5089 153.062C53.5989 154.457 53.6739 155.77 53.7339 157H50.3139C50.2689 155.485 50.2089 153.835 50.1339 152.05C50.0589 150.265 49.9464 148.465 49.7964 146.65C49.5264 147.28 49.2264 147.977 48.8964 148.742C48.5664 149.507 48.2364 150.272 47.9064 151.037C47.5914 151.802 47.2839 152.537 46.9839 153.242C46.6839 153.932 46.4289 154.525 46.2189 155.02H43.7664C43.5564 154.525 43.3014 153.932 43.0014 153.242C42.7014 152.537 42.3864 151.802 42.0564 151.037C41.7414 150.272 41.4189 149.507 41.0889 148.742C40.7589 147.977 40.4589 147.28 40.1889 146.65C40.0389 148.465 39.9264 150.265 39.8514 152.05C39.7764 153.835 39.7164 155.485 39.6714 157H36.2514C36.3114 155.77 36.3789 154.457 36.4539 153.062C36.5439 151.667 36.6339 150.28 36.7239 148.9C36.8289 147.505 36.9414 146.17 37.0614 144.895C37.1964 143.605 37.3389 142.442 37.4889 141.407H40.8414ZM65.0392 144.265C64.5892 144.265 64.1542 144.302 63.7342 144.377C63.3292 144.437 62.9692 144.55 62.6542 144.715C62.3392 144.865 62.0842 145.082 61.8892 145.367C61.6942 145.637 61.5967 145.982 61.5967 146.402C61.5967 147.197 61.8742 147.745 62.4292 148.045C62.9992 148.345 63.8392 148.495 64.9492 148.495H66.4117V144.288C66.2317 144.272 66.0367 144.265 65.8267 144.265C65.6167 144.265 65.3542 144.265 65.0392 144.265ZM65.1967 141.25C65.8267 141.25 66.5617 141.287 67.4017 141.362C68.2567 141.437 69.0967 141.565 69.9217 141.745V157H66.4117V151.397H65.3317C65.1367 151.397 64.9492 151.397 64.7692 151.397C64.5892 151.397 64.3717 151.382 64.1167 151.352C63.6217 152.027 63.0742 152.875 62.4742 153.895C61.8892 154.9 61.3417 155.935 60.8317 157H57.1192C57.3892 156.385 57.6742 155.777 57.9742 155.177C58.2892 154.577 58.6042 154.007 58.9192 153.467C59.2342 152.927 59.5417 152.432 59.8417 151.982C60.1417 151.517 60.4192 151.112 60.6742 150.767C60.3442 150.617 60.0142 150.422 59.6842 150.182C59.3692 149.927 59.0842 149.627 58.8292 149.282C58.5742 148.937 58.3642 148.532 58.1992 148.067C58.0492 147.587 57.9742 147.04 57.9742 146.425C57.9742 145.57 58.1392 144.82 58.4692 144.175C58.8142 143.53 59.2942 142.99 59.9092 142.555C60.5392 142.12 61.2967 141.797 62.1817 141.587C63.0817 141.362 64.0867 141.25 65.1967 141.25ZM86.2219 141.407V144.4H81.5194V157H78.0094V144.4H73.3069V141.407H86.2219ZM101.618 151.892C101.618 153.632 100.973 154.952 99.6827 155.852C98.3927 156.752 96.5927 157.203 94.2827 157.203C93.6377 157.203 92.8952 157.158 92.0552 157.068C91.2302 156.977 90.4127 156.835 89.6027 156.64V141.407H93.1127V146.582C93.3077 146.567 93.4802 146.56 93.6302 146.56C93.7952 146.56 93.9602 146.56 94.1252 146.56C96.6602 146.56 98.5427 146.995 99.7727 147.865C101.003 148.735 101.618 150.077 101.618 151.892ZM93.8102 149.53C93.7352 149.53 93.6302 149.53 93.4952 149.53C93.3602 149.53 93.2327 149.537 93.1127 149.552V154.21C93.2777 154.225 93.4652 154.232 93.6752 154.232C93.8852 154.232 94.1402 154.232 94.4402 154.232C94.9052 154.232 95.3552 154.195 95.7902 154.12C96.2252 154.045 96.6077 153.917 96.9377 153.737C97.2677 153.557 97.5302 153.317 97.7252 153.017C97.9202 152.717 98.0177 152.342 98.0177 151.892C98.0177 151.427 97.9202 151.045 97.7252 150.745C97.5302 150.445 97.2452 150.205 96.8702 150.025C96.5102 149.845 96.0677 149.717 95.5427 149.642C95.0327 149.567 94.4552 149.53 93.8102 149.53ZM121.292 157C120.977 156.49 120.602 155.942 120.167 155.357C119.747 154.757 119.282 154.165 118.772 153.58C118.277 152.98 117.76 152.41 117.22 151.87C116.68 151.315 116.14 150.827 115.6 150.407V157H112.09V141.407H115.6V147.302C116.515 146.342 117.43 145.345 118.345 144.31C119.275 143.26 120.137 142.292 120.932 141.407H125.095C124.03 142.667 122.957 143.882 121.877 145.052C120.812 146.222 119.687 147.4 118.502 148.585C119.747 149.62 120.947 150.85 122.102 152.275C123.272 153.7 124.39 155.275 125.455 157H121.292ZM130.312 149.192C130.312 149.957 130.402 150.647 130.582 151.262C130.777 151.877 131.047 152.41 131.392 152.86C131.752 153.295 132.187 153.632 132.697 153.872C133.207 154.112 133.792 154.232 134.452 154.232C135.097 154.232 135.675 154.112 136.185 153.872C136.71 153.632 137.145 153.295 137.49 152.86C137.85 152.41 138.12 151.877 138.3 151.262C138.495 150.647 138.592 149.957 138.592 149.192C138.592 148.427 138.495 147.737 138.3 147.122C138.12 146.492 137.85 145.96 137.49 145.525C137.145 145.075 136.71 144.73 136.185 144.49C135.675 144.25 135.097 144.13 134.452 144.13C133.792 144.13 133.207 144.257 132.697 144.512C132.187 144.752 131.752 145.097 131.392 145.547C131.047 145.982 130.777 146.515 130.582 147.145C130.402 147.76 130.312 148.442 130.312 149.192ZM142.215 149.192C142.215 150.527 142.012 151.705 141.607 152.725C141.217 153.73 140.677 154.577 139.987 155.267C139.297 155.942 138.472 156.452 137.512 156.797C136.567 157.143 135.547 157.315 134.452 157.315C133.387 157.315 132.382 157.143 131.437 156.797C130.492 156.452 129.667 155.942 128.962 155.267C128.257 154.577 127.702 153.73 127.297 152.725C126.892 151.705 126.69 150.527 126.69 149.192C126.69 147.857 126.9 146.687 127.32 145.682C127.74 144.662 128.302 143.807 129.007 143.117C129.727 142.427 130.552 141.91 131.482 141.565C132.427 141.22 133.417 141.047 134.452 141.047C135.517 141.047 136.522 141.22 137.467 141.565C138.412 141.91 139.237 142.427 139.942 143.117C140.647 143.807 141.202 144.662 141.607 145.682C142.012 146.687 142.215 147.857 142.215 149.192ZM150.946 141.227C153.271 141.227 155.056 141.64 156.301 142.465C157.546 143.275 158.168 144.61 158.168 146.47C158.168 148.345 157.538 149.702 156.278 150.542C155.018 151.367 153.218 151.78 150.878 151.78H149.776V157H146.266V141.632C147.031 141.482 147.841 141.377 148.696 141.317C149.551 141.257 150.301 141.227 150.946 141.227ZM151.171 144.22C150.916 144.22 150.661 144.227 150.406 144.242C150.166 144.257 149.956 144.272 149.776 144.288V148.787H150.878C152.093 148.787 153.008 148.622 153.623 148.292C154.238 147.962 154.546 147.347 154.546 146.447C154.546 146.012 154.463 145.652 154.298 145.367C154.148 145.082 153.923 144.857 153.623 144.692C153.338 144.512 152.986 144.392 152.566 144.332C152.146 144.257 151.681 144.22 151.171 144.22ZM170.773 157C170.608 156.46 170.42 155.905 170.21 155.335C170.015 154.765 169.82 154.195 169.625 153.625H163.55C163.355 154.195 163.153 154.765 162.943 155.335C162.748 155.905 162.568 156.46 162.403 157H158.758C159.343 155.32 159.898 153.767 160.423 152.342C160.948 150.917 161.458 149.575 161.953 148.315C162.463 147.055 162.958 145.862 163.438 144.737C163.933 143.597 164.443 142.487 164.968 141.407H168.32C168.83 142.487 169.333 143.597 169.828 144.737C170.323 145.862 170.818 147.055 171.313 148.315C171.823 149.575 172.34 150.917 172.865 152.342C173.39 153.767 173.945 155.32 174.53 157H170.773ZM166.565 144.94C166.49 145.165 166.378 145.472 166.228 145.862C166.078 146.252 165.905 146.702 165.71 147.212C165.515 147.722 165.298 148.285 165.058 148.9C164.833 149.515 164.6 150.16 164.36 150.835H168.793C168.553 150.16 168.32 149.515 168.095 148.9C167.87 148.285 167.653 147.722 167.443 147.212C167.248 146.702 167.075 146.252 166.925 145.862C166.775 145.472 166.655 145.165 166.565 144.94ZM181.026 144.377V146.942H182.174C183.329 146.942 184.356 147.032 185.256 147.212C186.171 147.392 186.936 147.685 187.551 148.09C188.181 148.495 188.661 149.02 188.991 149.665C189.321 150.31 189.486 151.097 189.486 152.027C189.486 153.752 188.856 155.042 187.596 155.897C186.351 156.737 184.566 157.158 182.241 157.158C181.611 157.158 180.891 157.12 180.081 157.045C179.286 156.97 178.484 156.835 177.674 156.64V141.407H188.024V144.377H181.026ZM182.421 154.165C182.886 154.165 183.329 154.135 183.749 154.075C184.169 154.015 184.536 153.91 184.851 153.76C185.181 153.595 185.444 153.377 185.639 153.107C185.834 152.837 185.931 152.485 185.931 152.05C185.931 151.6 185.841 151.232 185.661 150.947C185.481 150.662 185.226 150.437 184.896 150.272C184.566 150.107 184.161 149.995 183.681 149.935C183.201 149.875 182.661 149.845 182.061 149.845H181.026V154.12C181.191 154.135 181.386 154.15 181.611 154.165C181.851 154.165 182.121 154.165 182.421 154.165ZM193.432 157V141.407H203.962V144.355H196.942V147.415H203.175V150.295H196.942V154.052H204.48V157H193.432ZM215.02 144.377C214.975 145.382 214.915 146.395 214.84 147.415C214.78 148.42 214.66 149.395 214.48 150.34C214.315 151.285 214.067 152.17 213.737 152.995C213.422 153.82 212.98 154.547 212.41 155.177C211.855 155.807 211.157 156.31 210.317 156.685C209.477 157.06 208.45 157.27 207.235 157.315L206.852 154.255C207.932 154.135 208.765 153.865 209.35 153.445C209.935 153.01 210.377 152.35 210.677 151.465C211.052 150.37 211.315 148.96 211.465 147.235C211.63 145.495 211.712 143.552 211.712 141.407H222.355V157H218.845V144.377H215.02ZM236.284 157C235.969 156.49 235.594 155.942 235.159 155.357C234.739 154.757 234.274 154.165 233.764 153.58C233.269 152.98 232.751 152.41 232.211 151.87C231.671 151.315 231.131 150.827 230.591 150.407V157H227.081V141.407H230.591V147.302C231.506 146.342 232.421 145.345 233.336 144.31C234.266 143.26 235.129 142.292 235.924 141.407H240.086C239.021 142.667 237.949 143.882 236.869 145.052C235.804 146.222 234.679 147.4 233.494 148.585C234.739 149.62 235.939 150.85 237.094 152.275C238.264 153.7 239.381 155.275 240.446 157H236.284ZM243.587 157V141.407H247.075V150.61C247.615 149.8 248.192 148.96 248.807 148.09C249.422 147.205 250.037 146.357 250.652 145.547C251.282 144.722 251.897 143.95 252.497 143.23C253.097 142.51 253.645 141.902 254.14 141.407H256.997V157H253.532V146.785C252.212 148.33 250.967 149.972 249.797 151.712C248.627 153.452 247.54 155.215 246.535 157H243.587Z" fill="white"/>
<path d="M19.435 183V167.407H21.5725V178.95C22.0525 178.155 22.6375 177.247 23.3275 176.227C24.0325 175.207 24.775 174.172 25.555 173.122C26.35 172.057 27.145 171.03 27.94 170.04C28.75 169.035 29.5075 168.157 30.2125 167.407H31.945V183H29.8075V170.827C29.3875 171.307 28.93 171.862 28.435 172.492C27.94 173.122 27.43 173.797 26.905 174.517C26.38 175.222 25.8475 175.957 25.3075 176.722C24.7825 177.487 24.2725 178.245 23.7775 178.995C23.2825 179.73 22.8175 180.442 22.3825 181.132C21.9625 181.822 21.5875 182.445 21.2575 183H19.435ZM43.6346 183.338C42.5396 183.338 41.5421 183.158 40.6421 182.797C39.7421 182.437 38.9696 181.912 38.3246 181.222C37.6796 180.532 37.1771 179.685 36.8171 178.68C36.4721 177.66 36.2996 176.497 36.2996 175.192C36.2996 173.887 36.4946 172.732 36.8846 171.727C37.2896 170.707 37.8296 169.852 38.5046 169.162C39.1796 168.472 39.9671 167.947 40.8671 167.587C41.7671 167.227 42.7271 167.047 43.7471 167.047C44.3921 167.047 44.9696 167.092 45.4796 167.182C46.0046 167.272 46.4546 167.377 46.8296 167.497C47.2196 167.617 47.5346 167.737 47.7746 167.857C48.0146 167.977 48.1796 168.067 48.2696 168.127L47.6396 169.927C47.5046 169.837 47.3096 169.74 47.0546 169.635C46.7996 169.53 46.5071 169.425 46.1771 169.32C45.8621 169.215 45.5096 169.132 45.1196 169.072C44.7446 168.997 44.3621 168.96 43.9721 168.96C43.1471 168.96 42.4046 169.102 41.7446 169.387C41.0846 169.672 40.5221 170.085 40.0571 170.625C39.5921 171.165 39.2321 171.825 38.9771 172.605C38.7371 173.37 38.6171 174.232 38.6171 175.192C38.6171 176.122 38.7221 176.97 38.9321 177.735C39.1571 178.5 39.4871 179.16 39.9221 179.715C40.3571 180.255 40.8971 180.675 41.5421 180.975C42.2021 181.275 42.9671 181.425 43.8371 181.425C44.8421 181.425 45.6746 181.32 46.3346 181.11C46.9946 180.9 47.4896 180.712 47.8196 180.547L48.3821 182.347C48.2771 182.422 48.0896 182.52 47.8196 182.64C47.5496 182.745 47.2121 182.85 46.8071 182.955C46.4021 183.06 45.9296 183.15 45.3896 183.225C44.8496 183.3 44.2646 183.338 43.6346 183.338ZM62.7983 167.407V169.297H57.8933V183H55.7108V169.297H50.8058V167.407H62.7983ZM64.9827 175.192C64.9827 173.857 65.1777 172.68 65.5677 171.66C65.9727 170.64 66.5127 169.792 67.1877 169.117C67.8777 168.427 68.6727 167.91 69.5727 167.565C70.4877 167.22 71.4552 167.047 72.4752 167.047C73.4802 167.047 74.4252 167.22 75.3102 167.565C76.2102 167.91 76.9977 168.427 77.6727 169.117C78.3477 169.792 78.8802 170.64 79.2702 171.66C79.6752 172.68 79.8777 173.857 79.8777 175.192C79.8777 176.527 79.6752 177.705 79.2702 178.725C78.8802 179.745 78.3477 180.6 77.6727 181.29C76.9977 181.965 76.2102 182.475 75.3102 182.82C74.4252 183.165 73.4802 183.338 72.4752 183.338C71.4552 183.338 70.4877 183.165 69.5727 182.82C68.6727 182.475 67.8777 181.965 67.1877 181.29C66.5127 180.6 65.9727 179.745 65.5677 178.725C65.1777 177.705 64.9827 176.527 64.9827 175.192ZM67.2777 175.192C67.2777 176.137 67.3977 177 67.6377 177.78C67.8777 178.545 68.2152 179.197 68.6502 179.737C69.1002 180.277 69.6402 180.697 70.2702 180.997C70.9152 181.282 71.6352 181.425 72.4302 181.425C73.2252 181.425 73.9377 181.282 74.5677 180.997C75.1977 180.697 75.7302 180.277 76.1652 179.737C76.6152 179.197 76.9602 178.545 77.2002 177.78C77.4402 177 77.5602 176.137 77.5602 175.192C77.5602 174.247 77.4402 173.392 77.2002 172.627C76.9602 171.847 76.6152 171.187 76.1652 170.647C75.7302 170.107 75.1977 169.695 74.5677 169.41C73.9377 169.11 73.2252 168.96 72.4302 168.96C71.6352 168.96 70.9152 169.11 70.2702 169.41C69.6402 169.695 69.1002 170.107 68.6502 170.647C68.2152 171.187 67.8777 171.847 67.6377 172.627C67.3977 173.392 67.2777 174.247 67.2777 175.192ZM88.3899 167.25C90.5799 167.25 92.2599 167.67 93.4299 168.51C94.6149 169.335 95.2074 170.572 95.2074 172.222C95.2074 173.122 95.0424 173.895 94.7124 174.54C94.3974 175.17 93.9324 175.687 93.3174 176.092C92.7174 176.482 91.9824 176.767 91.1124 176.947C90.2424 177.127 89.2599 177.218 88.1649 177.218H86.4324V183H84.2499V167.632C84.8649 167.482 85.5474 167.385 86.2974 167.34C87.0624 167.28 87.7599 167.25 88.3899 167.25ZM88.5699 169.162C87.6399 169.162 86.9274 169.185 86.4324 169.23V175.35H88.0749C88.8249 175.35 89.4999 175.305 90.0999 175.215C90.6999 175.11 91.2024 174.945 91.6074 174.72C92.0274 174.48 92.3499 174.157 92.5749 173.752C92.7999 173.347 92.9124 172.83 92.9124 172.2C92.9124 171.6 92.7924 171.105 92.5524 170.715C92.3274 170.325 92.0124 170.017 91.6074 169.792C91.2174 169.552 90.7599 169.387 90.2349 169.297C89.7099 169.207 89.1549 169.162 88.5699 169.162ZM99.0639 183V167.407H101.201V178.95C101.681 178.155 102.266 177.247 102.956 176.227C103.661 175.207 104.404 174.172 105.184 173.122C105.979 172.057 106.774 171.03 107.569 170.04C108.379 169.035 109.136 168.157 109.841 167.407H111.574V183H109.436V170.827C109.016 171.307 108.559 171.862 108.064 172.492C107.569 173.122 107.059 173.797 106.534 174.517C106.009 175.222 105.476 175.957 104.936 176.722C104.411 177.487 103.901 178.245 103.406 178.995C102.911 179.73 102.446 180.442 102.011 181.132C101.591 181.822 101.216 182.445 100.886 183H99.0639ZM122.611 169.162C122.041 169.162 121.494 169.207 120.969 169.297C120.459 169.387 120.001 169.545 119.596 169.77C119.191 169.995 118.869 170.302 118.629 170.692C118.389 171.082 118.269 171.57 118.269 172.155C118.269 173.265 118.621 174.037 119.326 174.472C120.046 174.892 121.119 175.102 122.544 175.102H124.794V169.23C124.629 169.23 124.434 169.222 124.209 169.207C124.014 169.192 123.781 169.185 123.511 169.185C123.256 169.17 122.956 169.162 122.611 169.162ZM122.791 167.25C123.106 167.25 123.444 167.257 123.804 167.272C124.164 167.287 124.524 167.31 124.884 167.34C125.259 167.37 125.626 167.407 125.986 167.452C126.346 167.497 126.676 167.557 126.976 167.632V183H124.794V176.902H122.926C122.716 176.902 122.491 176.902 122.251 176.902C122.026 176.887 121.719 176.857 121.329 176.812C121.059 177.172 120.766 177.592 120.451 178.072C120.136 178.552 119.821 179.062 119.506 179.602C119.191 180.142 118.876 180.705 118.561 181.29C118.261 181.875 117.984 182.445 117.729 183H115.434C115.674 182.415 115.959 181.807 116.289 181.177C116.619 180.547 116.956 179.947 117.301 179.377C117.661 178.807 117.999 178.282 118.314 177.802C118.644 177.307 118.929 176.902 119.169 176.587C118.824 176.482 118.464 176.332 118.089 176.137C117.714 175.942 117.369 175.672 117.054 175.327C116.739 174.982 116.476 174.555 116.266 174.045C116.071 173.52 115.974 172.897 115.974 172.177C115.974 171.367 116.131 170.655 116.446 170.04C116.761 169.425 117.211 168.915 117.796 168.51C118.396 168.09 119.116 167.775 119.956 167.565C120.796 167.355 121.741 167.25 122.791 167.25ZM142.506 183.135C142.191 183.135 141.846 183.128 141.471 183.113C141.111 183.098 140.743 183.075 140.368 183.045C140.008 183.015 139.648 182.977 139.288 182.932C138.928 182.887 138.598 182.827 138.298 182.752V167.632C138.598 167.557 138.928 167.497 139.288 167.452C139.648 167.407 140.008 167.37 140.368 167.34C140.743 167.31 141.111 167.287 141.471 167.272C141.831 167.257 142.168 167.25 142.483 167.25C143.383 167.25 144.223 167.317 145.003 167.452C145.798 167.587 146.481 167.82 147.051 168.15C147.636 168.465 148.093 168.885 148.423 169.41C148.753 169.935 148.918 170.58 148.918 171.345C148.918 172.2 148.716 172.905 148.311 173.46C147.906 174 147.366 174.405 146.691 174.675C147.606 174.945 148.333 175.372 148.873 175.957C149.413 176.542 149.683 177.367 149.683 178.432C149.683 179.992 149.106 181.17 147.951 181.965C146.811 182.745 144.996 183.135 142.506 183.135ZM140.458 175.732V181.222C140.623 181.237 140.818 181.252 141.043 181.267C141.238 181.282 141.463 181.297 141.718 181.312C141.988 181.312 142.296 181.312 142.641 181.312C143.286 181.312 143.893 181.275 144.463 181.2C145.048 181.11 145.558 180.96 145.993 180.75C146.428 180.54 146.773 180.247 147.028 179.872C147.298 179.497 147.433 179.025 147.433 178.455C147.433 177.945 147.336 177.517 147.141 177.172C146.946 176.812 146.661 176.527 146.286 176.317C145.926 176.107 145.491 175.957 144.981 175.867C144.471 175.777 143.901 175.732 143.271 175.732H140.458ZM140.458 173.977H142.753C143.293 173.977 143.803 173.94 144.283 173.865C144.763 173.79 145.176 173.655 145.521 173.46C145.881 173.265 146.158 173.01 146.353 172.695C146.563 172.38 146.668 171.982 146.668 171.502C146.668 171.052 146.563 170.677 146.353 170.377C146.143 170.062 145.851 169.815 145.476 169.635C145.116 169.44 144.688 169.297 144.193 169.207C143.698 169.117 143.173 169.072 142.618 169.072C142.063 169.072 141.628 169.08 141.313 169.095C140.998 169.11 140.713 169.132 140.458 169.162V173.977ZM165.546 169.275C165.516 170.115 165.486 170.932 165.456 171.727C165.426 172.507 165.381 173.272 165.321 174.022C165.261 174.757 165.171 175.477 165.051 176.182C164.931 176.887 164.766 177.577 164.556 178.252C164.346 178.927 164.084 179.565 163.769 180.165C163.469 180.75 163.086 181.267 162.621 181.717C162.171 182.152 161.631 182.505 161.001 182.775C160.386 183.045 159.659 183.195 158.819 183.225L158.571 181.335C159.621 181.215 160.431 180.885 161.001 180.345C161.586 179.805 162.066 178.98 162.441 177.87C162.861 176.61 163.124 175.095 163.229 173.325C163.349 171.54 163.409 169.567 163.409 167.407H172.251V183H170.069V169.275H165.546ZM177.247 183V167.407H179.385V178.95C179.865 178.155 180.45 177.247 181.14 176.227C181.845 175.207 182.587 174.172 183.367 173.122C184.162 172.057 184.957 171.03 185.752 170.04C186.562 169.035 187.32 168.157 188.025 167.407H189.757V183H187.62V170.827C187.2 171.307 186.742 171.862 186.247 172.492C185.752 173.122 185.242 173.797 184.717 174.517C184.192 175.222 183.66 175.957 183.12 176.722C182.595 177.487 182.085 178.245 181.59 178.995C181.095 179.73 180.63 180.442 180.195 181.132C179.775 181.822 179.4 182.445 179.07 183H177.247ZM206.599 181.132H208.557V187.163H206.487V183H194.742V167.407H196.924V181.132H204.417V167.407H206.599V181.132ZM223.005 183C222.75 182.325 222.51 181.665 222.285 181.02C222.06 180.36 221.828 179.693 221.588 179.017H214.523L213.105 183H210.833C211.433 181.35 211.995 179.827 212.52 178.432C213.045 177.022 213.555 175.687 214.05 174.427C214.56 173.167 215.063 171.967 215.558 170.827C216.053 169.672 216.57 168.532 217.11 167.407H219.113C219.653 168.532 220.17 169.672 220.665 170.827C221.16 171.967 221.655 173.167 222.15 174.427C222.66 175.687 223.178 177.022 223.703 178.432C224.228 179.827 224.79 181.35 225.39 183H223.005ZM220.958 177.218C220.478 175.912 219.998 174.652 219.518 173.437C219.053 172.207 218.565 171.03 218.055 169.905C217.53 171.03 217.028 172.207 216.548 173.437C216.083 174.652 215.618 175.912 215.153 177.218H220.958ZM238.564 183C238.339 182.55 238.069 182.055 237.754 181.515C237.439 180.96 237.094 180.39 236.719 179.805C236.344 179.205 235.954 178.612 235.549 178.027C235.144 177.427 234.754 176.865 234.379 176.34C234.004 176.865 233.614 177.427 233.209 178.027C232.804 178.612 232.414 179.205 232.039 179.805C231.679 180.39 231.334 180.96 231.004 181.515C230.689 182.055 230.419 182.55 230.194 183H227.786C228.461 181.68 229.241 180.337 230.126 178.972C231.026 177.607 231.979 176.205 232.984 174.765L227.989 167.407H230.509L234.356 173.212L238.159 167.407H240.656L235.751 174.675C236.771 176.13 237.731 177.547 238.631 178.927C239.531 180.307 240.326 181.665 241.016 183H238.564Z" fill="white"/>
<path d="M81.174 195.1C81.858 194.836 82.524 194.5 83.172 194.092C83.82 193.672 84.414 193.15 84.954 192.526H86.142V205H84.468V194.848C84.324 194.98 84.144 195.118 83.928 195.262C83.724 195.406 83.496 195.544 83.244 195.676C83.004 195.808 82.746 195.934 82.47 196.054C82.206 196.174 81.948 196.276 81.696 196.36L81.174 195.1ZM99.8032 197.512C99.8032 199.984 99.1852 201.856 97.9492 203.128C96.7252 204.388 94.9012 205.024 92.4772 205.036L92.4232 203.632C93.1792 203.632 93.8572 203.56 94.4572 203.416C95.0692 203.272 95.6032 203.044 96.0592 202.732C96.5152 202.408 96.8932 201.994 97.1932 201.49C97.5052 200.986 97.7332 200.368 97.8772 199.636C97.5652 199.78 97.2112 199.9 96.8152 199.996C96.4192 200.08 96.0112 200.122 95.5912 200.122C94.8832 200.122 94.2832 200.02 93.7912 199.816C93.2992 199.6 92.8972 199.318 92.5852 198.97C92.2732 198.61 92.0452 198.202 91.9012 197.746C91.7692 197.278 91.7032 196.792 91.7032 196.288C91.7032 195.844 91.7812 195.382 91.9372 194.902C92.0932 194.422 92.3272 193.984 92.6392 193.588C92.9632 193.192 93.3712 192.868 93.8632 192.616C94.3552 192.364 94.9372 192.238 95.6092 192.238C96.2932 192.238 96.8932 192.358 97.4092 192.598C97.9372 192.838 98.3752 193.186 98.7232 193.642C99.0832 194.098 99.3532 194.656 99.5332 195.316C99.7132 195.964 99.8032 196.696 99.8032 197.512ZM95.7712 198.754C96.1912 198.754 96.5872 198.718 96.9592 198.646C97.3312 198.562 97.6912 198.442 98.0392 198.286C98.0512 198.154 98.0572 198.028 98.0572 197.908C98.0572 197.776 98.0572 197.644 98.0572 197.512C98.0572 196.996 98.0212 196.504 97.9492 196.036C97.8772 195.556 97.7452 195.142 97.5532 194.794C97.3732 194.434 97.1272 194.152 96.8152 193.948C96.5032 193.732 96.1072 193.624 95.6272 193.624C95.2312 193.624 94.8952 193.708 94.6192 193.876C94.3432 194.044 94.1152 194.26 93.9352 194.524C93.7552 194.776 93.6232 195.058 93.5392 195.37C93.4672 195.67 93.4312 195.964 93.4312 196.252C93.4312 197.068 93.6232 197.692 94.0072 198.124C94.4032 198.544 94.9912 198.754 95.7712 198.754ZM106.138 203.776C107.206 203.776 107.968 203.566 108.424 203.146C108.892 202.726 109.126 202.162 109.126 201.454C109.126 200.998 109.03 200.614 108.838 200.302C108.646 199.99 108.394 199.744 108.082 199.564C107.77 199.372 107.404 199.24 106.984 199.168C106.576 199.084 106.156 199.042 105.724 199.042H105.292V197.674H105.886C106.186 197.674 106.492 197.644 106.804 197.584C107.128 197.524 107.422 197.416 107.686 197.26C107.95 197.104 108.166 196.894 108.334 196.63C108.502 196.354 108.586 196.012 108.586 195.604C108.586 195.268 108.526 194.98 108.406 194.74C108.286 194.5 108.124 194.302 107.92 194.146C107.728 193.99 107.5 193.882 107.236 193.822C106.984 193.75 106.714 193.714 106.426 193.714C105.85 193.714 105.358 193.798 104.95 193.966C104.554 194.134 104.218 194.308 103.942 194.488L103.294 193.21C103.438 193.114 103.618 193.012 103.834 192.904C104.062 192.784 104.314 192.676 104.59 192.58C104.866 192.484 105.16 192.406 105.472 192.346C105.796 192.274 106.132 192.238 106.48 192.238C107.14 192.238 107.71 192.322 108.19 192.49C108.67 192.646 109.066 192.874 109.378 193.174C109.69 193.462 109.924 193.81 110.08 194.218C110.236 194.614 110.314 195.046 110.314 195.514C110.314 196.162 110.128 196.72 109.756 197.188C109.384 197.644 108.934 197.992 108.406 198.232C108.73 198.328 109.042 198.466 109.342 198.646C109.642 198.826 109.9 199.054 110.116 199.33C110.344 199.606 110.524 199.924 110.656 200.284C110.8 200.644 110.872 201.046 110.872 201.49C110.872 202.03 110.776 202.534 110.584 203.002C110.404 203.458 110.116 203.854 109.72 204.19C109.336 204.526 108.85 204.79 108.262 204.982C107.674 205.174 106.978 205.27 106.174 205.27C105.862 205.27 105.538 205.246 105.202 205.198C104.878 205.15 104.572 205.09 104.284 205.018C103.996 204.946 103.744 204.874 103.528 204.802C103.312 204.73 103.156 204.67 103.06 204.622L103.384 203.164C103.588 203.26 103.924 203.386 104.392 203.542C104.872 203.698 105.454 203.776 106.138 203.776ZM114.255 198.754C114.255 196.666 114.621 195.058 115.353 193.93C116.097 192.802 117.123 192.238 118.431 192.238C119.739 192.238 120.759 192.802 121.491 193.93C122.235 195.058 122.607 196.666 122.607 198.754C122.607 200.842 122.235 202.45 121.491 203.578C120.759 204.706 119.739 205.27 118.431 205.27C117.123 205.27 116.097 204.706 115.353 203.578C114.621 202.45 114.255 200.842 114.255 198.754ZM120.843 198.754C120.843 198.07 120.801 197.422 120.717 196.81C120.645 196.198 120.513 195.664 120.321 195.208C120.141 194.752 119.895 194.392 119.583 194.128C119.271 193.852 118.887 193.714 118.431 193.714C117.975 193.714 117.591 193.852 117.279 194.128C116.967 194.392 116.715 194.752 116.523 195.208C116.343 195.664 116.211 196.198 116.127 196.81C116.055 197.422 116.019 198.07 116.019 198.754C116.019 199.438 116.055 200.086 116.127 200.698C116.211 201.31 116.343 201.844 116.523 202.3C116.715 202.756 116.967 203.122 117.279 203.398C117.591 203.662 117.975 203.794 118.431 203.794C118.887 203.794 119.271 203.662 119.583 203.398C119.895 203.122 120.141 202.756 120.321 202.3C120.513 201.844 120.645 201.31 120.717 200.698C120.801 200.086 120.843 199.438 120.843 198.754ZM124.605 198.898H133.605V200.32H124.605V198.898ZM136.369 195.1C137.053 194.836 137.719 194.5 138.367 194.092C139.015 193.672 139.609 193.15 140.149 192.526H141.337V205H139.663V194.848C139.519 194.98 139.339 195.118 139.123 195.262C138.919 195.406 138.691 195.544 138.439 195.676C138.199 195.808 137.941 195.934 137.665 196.054C137.401 196.174 137.143 196.276 136.891 196.36L136.369 195.1ZM154.998 197.512C154.998 199.984 154.38 201.856 153.144 203.128C151.92 204.388 150.096 205.024 147.672 205.036L147.618 203.632C148.374 203.632 149.052 203.56 149.652 203.416C150.264 203.272 150.798 203.044 151.254 202.732C151.71 202.408 152.088 201.994 152.388 201.49C152.7 200.986 152.928 200.368 153.072 199.636C152.76 199.78 152.406 199.9 152.01 199.996C151.614 200.08 151.206 200.122 150.786 200.122C150.078 200.122 149.478 200.02 148.986 199.816C148.494 199.6 148.092 199.318 147.78 198.97C147.468 198.61 147.24 198.202 147.096 197.746C146.964 197.278 146.898 196.792 146.898 196.288C146.898 195.844 146.976 195.382 147.132 194.902C147.288 194.422 147.522 193.984 147.834 193.588C148.158 193.192 148.566 192.868 149.058 192.616C149.55 192.364 150.132 192.238 150.804 192.238C151.488 192.238 152.088 192.358 152.604 192.598C153.132 192.838 153.57 193.186 153.918 193.642C154.278 194.098 154.548 194.656 154.728 195.316C154.908 195.964 154.998 196.696 154.998 197.512ZM150.966 198.754C151.386 198.754 151.782 198.718 152.154 198.646C152.526 198.562 152.886 198.442 153.234 198.286C153.246 198.154 153.252 198.028 153.252 197.908C153.252 197.776 153.252 197.644 153.252 197.512C153.252 196.996 153.216 196.504 153.144 196.036C153.072 195.556 152.94 195.142 152.748 194.794C152.568 194.434 152.322 194.152 152.01 193.948C151.698 193.732 151.302 193.624 150.822 193.624C150.426 193.624 150.09 193.708 149.814 193.876C149.538 194.044 149.31 194.26 149.13 194.524C148.95 194.776 148.818 195.058 148.734 195.37C148.662 195.67 148.626 195.964 148.626 196.252C148.626 197.068 148.818 197.692 149.202 198.124C149.598 198.544 150.186 198.754 150.966 198.754ZM166.284 197.512C166.284 199.984 165.666 201.856 164.43 203.128C163.206 204.388 161.382 205.024 158.958 205.036L158.904 203.632C159.66 203.632 160.338 203.56 160.938 203.416C161.55 203.272 162.084 203.044 162.54 202.732C162.996 202.408 163.374 201.994 163.674 201.49C163.986 200.986 164.214 200.368 164.358 199.636C164.046 199.78 163.692 199.9 163.296 199.996C162.9 200.08 162.492 200.122 162.072 200.122C161.364 200.122 160.764 200.02 160.272 199.816C159.78 199.6 159.378 199.318 159.066 198.97C158.754 198.61 158.526 198.202 158.382 197.746C158.25 197.278 158.184 196.792 158.184 196.288C158.184 195.844 158.262 195.382 158.418 194.902C158.574 194.422 158.808 193.984 159.12 193.588C159.444 193.192 159.852 192.868 160.344 192.616C160.836 192.364 161.418 192.238 162.09 192.238C162.774 192.238 163.374 192.358 163.89 192.598C164.418 192.838 164.856 193.186 165.204 193.642C165.564 194.098 165.834 194.656 166.014 195.316C166.194 195.964 166.284 196.696 166.284 197.512ZM162.252 198.754C162.672 198.754 163.068 198.718 163.44 198.646C163.812 198.562 164.172 198.442 164.52 198.286C164.532 198.154 164.538 198.028 164.538 197.908C164.538 197.776 164.538 197.644 164.538 197.512C164.538 196.996 164.502 196.504 164.43 196.036C164.358 195.556 164.226 195.142 164.034 194.794C163.854 194.434 163.608 194.152 163.296 193.948C162.984 193.732 162.588 193.624 162.108 193.624C161.712 193.624 161.376 193.708 161.1 193.876C160.824 194.044 160.596 194.26 160.416 194.524C160.236 194.776 160.104 195.058 160.02 195.37C159.948 195.67 159.912 195.964 159.912 196.252C159.912 197.068 160.104 197.692 160.488 198.124C160.884 198.544 161.472 198.754 162.252 198.754ZM169.451 198.754C169.451 196.666 169.817 195.058 170.549 193.93C171.293 192.802 172.319 192.238 173.627 192.238C174.935 192.238 175.955 192.802 176.687 193.93C177.431 195.058 177.803 196.666 177.803 198.754C177.803 200.842 177.431 202.45 176.687 203.578C175.955 204.706 174.935 205.27 173.627 205.27C172.319 205.27 171.293 204.706 170.549 203.578C169.817 202.45 169.451 200.842 169.451 198.754ZM176.039 198.754C176.039 198.07 175.997 197.422 175.913 196.81C175.841 196.198 175.709 195.664 175.517 195.208C175.337 194.752 175.091 194.392 174.779 194.128C174.467 193.852 174.083 193.714 173.627 193.714C173.171 193.714 172.787 193.852 172.475 194.128C172.163 194.392 171.911 194.752 171.719 195.208C171.539 195.664 171.407 196.198 171.323 196.81C171.251 197.422 171.215 198.07 171.215 198.754C171.215 199.438 171.251 200.086 171.323 200.698C171.407 201.31 171.539 201.844 171.719 202.3C171.911 202.756 172.163 203.122 172.475 203.398C172.787 203.662 173.171 203.794 173.627 203.794C174.083 203.794 174.467 203.662 174.779 203.398C175.091 203.122 175.337 202.756 175.517 202.3C175.709 201.844 175.841 201.31 175.913 200.698C175.997 200.086 176.039 199.438 176.039 198.754Z" fill="white"/>
</svg>
