<svg width="361" height="136" viewBox="0 0 361 136" fill="none" xmlns="http://www.w3.org/2000/svg">
<path d="M116.625 21.4075V37H113.115V24.3775H107.31V37H103.8V21.4075H116.625ZM131.801 37C131.636 36.46 131.448 35.905 131.238 35.335C131.043 34.765 130.848 34.195 130.653 33.625H124.578C124.383 34.195 124.181 34.765 123.971 35.335C123.776 35.905 123.596 36.46 123.431 37H119.786C120.371 35.32 120.926 33.7675 121.451 32.3425C121.976 30.9175 122.486 29.575 122.981 28.315C123.491 27.055 123.986 25.8625 124.466 24.7375C124.961 23.5975 125.471 22.4875 125.996 21.4075H129.348C129.858 22.4875 130.361 23.5975 130.856 24.7375C131.351 25.8625 131.846 27.055 132.341 28.315C132.851 29.575 133.368 30.9175 133.893 32.3425C134.418 33.7675 134.973 35.32 135.558 37H131.801ZM127.593 24.94C127.518 25.165 127.406 25.4725 127.256 25.8625C127.106 26.2525 126.933 26.7025 126.738 27.2125C126.543 27.7225 126.326 28.285 126.086 28.9C125.861 29.515 125.628 30.16 125.388 30.835H129.821C129.581 30.16 129.348 29.515 129.123 28.9C128.898 28.285 128.681 27.7225 128.471 27.2125C128.276 26.7025 128.103 26.2525 127.953 25.8625C127.803 25.4725 127.683 25.165 127.593 24.94ZM142.841 21.4075C143.111 21.9025 143.419 22.5175 143.764 23.2525C144.124 23.9725 144.491 24.76 144.866 25.615C145.256 26.455 145.639 27.3175 146.014 28.2025C146.389 29.0875 146.741 29.92 147.071 30.7C147.401 29.92 147.754 29.0875 148.129 28.2025C148.504 27.3175 148.879 26.455 149.254 25.615C149.644 24.76 150.011 23.9725 150.356 23.2525C150.716 22.5175 151.031 21.9025 151.301 21.4075H154.496C154.646 22.4425 154.781 23.605 154.901 24.895C155.036 26.17 155.149 27.505 155.239 28.9C155.344 30.28 155.434 31.6675 155.509 33.0625C155.599 34.4575 155.674 35.77 155.734 37H152.314C152.269 35.485 152.209 33.835 152.134 32.05C152.059 30.265 151.946 28.465 151.796 26.65C151.526 27.28 151.226 27.9775 150.896 28.7425C150.566 29.5075 150.236 30.2725 149.906 31.0375C149.591 31.8025 149.284 32.5375 148.984 33.2425C148.684 33.9325 148.429 34.525 148.219 35.02H145.766C145.556 34.525 145.301 33.9325 145.001 33.2425C144.701 32.5375 144.386 31.8025 144.056 31.0375C143.741 30.2725 143.419 29.5075 143.089 28.7425C142.759 27.9775 142.459 27.28 142.189 26.65C142.039 28.465 141.926 30.265 141.851 32.05C141.776 33.835 141.716 35.485 141.671 37H138.251C138.311 35.77 138.379 34.4575 138.454 33.0625C138.544 31.6675 138.634 30.28 138.724 28.9C138.829 27.505 138.941 26.17 139.061 24.895C139.196 23.605 139.339 22.4425 139.489 21.4075H142.841ZM167.039 24.265C166.589 24.265 166.154 24.3025 165.734 24.3775C165.329 24.4375 164.969 24.55 164.654 24.715C164.339 24.865 164.084 25.0825 163.889 25.3675C163.694 25.6375 163.597 25.9825 163.597 26.4025C163.597 27.1975 163.874 27.745 164.429 28.045C164.999 28.345 165.839 28.495 166.949 28.495H168.412V24.2875C168.232 24.2725 168.037 24.265 167.827 24.265C167.617 24.265 167.354 24.265 167.039 24.265ZM167.197 21.25C167.827 21.25 168.562 21.2875 169.402 21.3625C170.257 21.4375 171.097 21.565 171.922 21.745V37H168.412V31.3975H167.332C167.137 31.3975 166.949 31.3975 166.769 31.3975C166.589 31.3975 166.372 31.3825 166.117 31.3525C165.622 32.0275 165.074 32.875 164.474 33.895C163.889 34.9 163.342 35.935 162.832 37H159.119C159.389 36.385 159.674 35.7775 159.974 35.1775C160.289 34.5775 160.604 34.0075 160.919 33.4675C161.234 32.9275 161.542 32.4325 161.842 31.9825C162.142 31.5175 162.419 31.1125 162.674 30.7675C162.344 30.6175 162.014 30.4225 161.684 30.1825C161.369 29.9275 161.084 29.6275 160.829 29.2825C160.574 28.9375 160.364 28.5325 160.199 28.0675C160.049 27.5875 159.974 27.04 159.974 26.425C159.974 25.57 160.139 24.82 160.469 24.175C160.814 23.53 161.294 22.99 161.909 22.555C162.539 22.12 163.297 21.7975 164.182 21.5875C165.082 21.3625 166.087 21.25 167.197 21.25ZM188.222 21.4075V24.4H183.519V37H180.009V24.4H175.307V21.4075H188.222ZM203.618 31.8925C203.618 33.6325 202.973 34.9525 201.683 35.8525C200.393 36.7525 198.593 37.2025 196.283 37.2025C195.638 37.2025 194.895 37.1575 194.055 37.0675C193.23 36.9775 192.413 36.835 191.603 36.64V21.4075H195.113V26.5825C195.308 26.5675 195.48 26.56 195.63 26.56C195.795 26.56 195.96 26.56 196.125 26.56C198.66 26.56 200.543 26.995 201.773 27.865C203.003 28.735 203.618 30.0775 203.618 31.8925ZM195.81 29.53C195.735 29.53 195.63 29.53 195.495 29.53C195.36 29.53 195.233 29.5375 195.113 29.5525V34.21C195.278 34.225 195.465 34.2325 195.675 34.2325C195.885 34.2325 196.14 34.2325 196.44 34.2325C196.905 34.2325 197.355 34.195 197.79 34.12C198.225 34.045 198.608 33.9175 198.938 33.7375C199.268 33.5575 199.53 33.3175 199.725 33.0175C199.92 32.7175 200.018 32.3425 200.018 31.8925C200.018 31.4275 199.92 31.045 199.725 30.745C199.53 30.445 199.245 30.205 198.87 30.025C198.51 29.845 198.068 29.7175 197.543 29.6425C197.033 29.5675 196.455 29.53 195.81 29.53ZM223.292 37C222.977 36.49 222.602 35.9425 222.167 35.3575C221.747 34.7575 221.282 34.165 220.772 33.58C220.277 32.98 219.76 32.41 219.22 31.87C218.68 31.315 218.14 30.8275 217.6 30.4075V37H214.09V21.4075H217.6V27.3025C218.515 26.3425 219.43 25.345 220.345 24.31C221.275 23.26 222.137 22.2925 222.932 21.4075H227.095C226.03 22.6675 224.957 23.8825 223.877 25.0525C222.812 26.2225 221.687 27.4 220.502 28.585C221.747 29.62 222.947 30.85 224.102 32.275C225.272 33.7 226.39 35.275 227.455 37H223.292ZM232.312 29.1925C232.312 29.9575 232.402 30.6475 232.582 31.2625C232.777 31.8775 233.047 32.41 233.392 32.86C233.752 33.295 234.187 33.6325 234.697 33.8725C235.207 34.1125 235.792 34.2325 236.452 34.2325C237.097 34.2325 237.675 34.1125 238.185 33.8725C238.71 33.6325 239.145 33.295 239.49 32.86C239.85 32.41 240.12 31.8775 240.3 31.2625C240.495 30.6475 240.592 29.9575 240.592 29.1925C240.592 28.4275 240.495 27.7375 240.3 27.1225C240.12 26.4925 239.85 25.96 239.49 25.525C239.145 25.075 238.71 24.73 238.185 24.49C237.675 24.25 237.097 24.13 236.452 24.13C235.792 24.13 235.207 24.2575 234.697 24.5125C234.187 24.7525 233.752 25.0975 233.392 25.5475C233.047 25.9825 232.777 26.515 232.582 27.145C232.402 27.76 232.312 28.4425 232.312 29.1925ZM244.215 29.1925C244.215 30.5275 244.012 31.705 243.607 32.725C243.217 33.73 242.677 34.5775 241.987 35.2675C241.297 35.9425 240.472 36.4525 239.512 36.7975C238.567 37.1425 237.547 37.315 236.452 37.315C235.387 37.315 234.382 37.1425 233.437 36.7975C232.492 36.4525 231.667 35.9425 230.962 35.2675C230.257 34.5775 229.702 33.73 229.297 32.725C228.892 31.705 228.69 30.5275 228.69 29.1925C228.69 27.8575 228.9 26.6875 229.32 25.6825C229.74 24.6625 230.302 23.8075 231.007 23.1175C231.727 22.4275 232.552 21.91 233.482 21.565C234.427 21.22 235.417 21.0475 236.452 21.0475C237.517 21.0475 238.522 21.22 239.467 21.565C240.412 21.91 241.237 22.4275 241.942 23.1175C242.647 23.8075 243.202 24.6625 243.607 25.6825C244.012 26.6875 244.215 27.8575 244.215 29.1925ZM252.946 21.2275C255.271 21.2275 257.056 21.64 258.301 22.465C259.546 23.275 260.168 24.61 260.168 26.47C260.168 28.345 259.538 29.7025 258.278 30.5425C257.018 31.3675 255.218 31.78 252.878 31.78H251.776V37H248.266V21.6325C249.031 21.4825 249.841 21.3775 250.696 21.3175C251.551 21.2575 252.301 21.2275 252.946 21.2275ZM253.171 24.22C252.916 24.22 252.661 24.2275 252.406 24.2425C252.166 24.2575 251.956 24.2725 251.776 24.2875V28.7875H252.878C254.093 28.7875 255.008 28.6225 255.623 28.2925C256.238 27.9625 256.546 27.3475 256.546 26.4475C256.546 26.0125 256.463 25.6525 256.298 25.3675C256.148 25.0825 255.923 24.8575 255.623 24.6925C255.338 24.5125 254.986 24.3925 254.566 24.3325C254.146 24.2575 253.681 24.22 253.171 24.22ZM272.773 37C272.608 36.46 272.42 35.905 272.21 35.335C272.015 34.765 271.82 34.195 271.625 33.625H265.55C265.355 34.195 265.153 34.765 264.943 35.335C264.748 35.905 264.568 36.46 264.403 37H260.758C261.343 35.32 261.898 33.7675 262.423 32.3425C262.948 30.9175 263.458 29.575 263.953 28.315C264.463 27.055 264.958 25.8625 265.438 24.7375C265.933 23.5975 266.443 22.4875 266.968 21.4075H270.32C270.83 22.4875 271.333 23.5975 271.828 24.7375C272.323 25.8625 272.818 27.055 273.313 28.315C273.823 29.575 274.34 30.9175 274.865 32.3425C275.39 33.7675 275.945 35.32 276.53 37H272.773ZM268.565 24.94C268.49 25.165 268.378 25.4725 268.228 25.8625C268.078 26.2525 267.905 26.7025 267.71 27.2125C267.515 27.7225 267.298 28.285 267.058 28.9C266.833 29.515 266.6 30.16 266.36 30.835H270.793C270.553 30.16 270.32 29.515 270.095 28.9C269.87 28.285 269.653 27.7225 269.443 27.2125C269.248 26.7025 269.075 26.2525 268.925 25.8625C268.775 25.4725 268.655 25.165 268.565 24.94ZM283.026 24.3775V26.9425H284.174C285.329 26.9425 286.356 27.0325 287.256 27.2125C288.171 27.3925 288.936 27.685 289.551 28.09C290.181 28.495 290.661 29.02 290.991 29.665C291.321 30.31 291.486 31.0975 291.486 32.0275C291.486 33.7525 290.856 35.0425 289.596 35.8975C288.351 36.7375 286.566 37.1575 284.241 37.1575C283.611 37.1575 282.891 37.12 282.081 37.045C281.286 36.97 280.484 36.835 279.674 36.64V21.4075H290.024V24.3775H283.026ZM284.421 34.165C284.886 34.165 285.329 34.135 285.749 34.075C286.169 34.015 286.536 33.91 286.851 33.76C287.181 33.595 287.444 33.3775 287.639 33.1075C287.834 32.8375 287.931 32.485 287.931 32.05C287.931 31.6 287.841 31.2325 287.661 30.9475C287.481 30.6625 287.226 30.4375 286.896 30.2725C286.566 30.1075 286.161 29.995 285.681 29.935C285.201 29.875 284.661 29.845 284.061 29.845H283.026V34.12C283.191 34.135 283.386 34.15 283.611 34.165C283.851 34.165 284.121 34.165 284.421 34.165ZM295.432 37V21.4075H305.962V24.355H298.942V27.415H305.175V30.295H298.942V34.0525H306.48V37H295.432ZM317.02 24.3775C316.975 25.3825 316.915 26.395 316.84 27.415C316.78 28.42 316.66 29.395 316.48 30.34C316.315 31.285 316.067 32.17 315.737 32.995C315.422 33.82 314.98 34.5475 314.41 35.1775C313.855 35.8075 313.157 36.31 312.317 36.685C311.477 37.06 310.45 37.27 309.235 37.315L308.852 34.255C309.932 34.135 310.765 33.865 311.35 33.445C311.935 33.01 312.377 32.35 312.677 31.465C313.052 30.37 313.315 28.96 313.465 27.235C313.63 25.495 313.712 23.5525 313.712 21.4075H324.355V37H320.845V24.3775H317.02ZM338.284 37C337.969 36.49 337.594 35.9425 337.159 35.3575C336.739 34.7575 336.274 34.165 335.764 33.58C335.269 32.98 334.751 32.41 334.211 31.87C333.671 31.315 333.131 30.8275 332.591 30.4075V37H329.081V21.4075H332.591V27.3025C333.506 26.3425 334.421 25.345 335.336 24.31C336.266 23.26 337.129 22.2925 337.924 21.4075H342.086C341.021 22.6675 339.949 23.8825 338.869 25.0525C337.804 26.2225 336.679 27.4 335.494 28.585C336.739 29.62 337.939 30.85 339.094 32.275C340.264 33.7 341.381 35.275 342.446 37H338.284ZM345.587 37V21.4075H349.075V30.61C349.615 29.8 350.192 28.96 350.807 28.09C351.422 27.205 352.037 26.3575 352.652 25.5475C353.282 24.7225 353.897 23.95 354.497 23.23C355.097 22.51 355.645 21.9025 356.14 21.4075H358.997V37H355.532V26.785C354.212 28.33 352.967 29.9725 351.797 31.7125C350.627 33.4525 349.54 35.215 348.535 37H345.587Z" fill="white"/>
<path d="M103.935 73V57.4075H106.073V68.95C106.553 68.155 107.138 67.2475 107.828 66.2275C108.533 65.2075 109.275 64.1725 110.055 63.1225C110.85 62.0575 111.645 61.03 112.44 60.04C113.25 59.035 114.008 58.1575 114.712 57.4075H116.445V73H114.308V60.8275C113.888 61.3075 113.43 61.8625 112.935 62.4925C112.44 63.1225 111.93 63.7975 111.405 64.5175C110.88 65.2225 110.348 65.9575 109.808 66.7225C109.283 67.4875 108.773 68.245 108.278 68.995C107.783 69.73 107.318 70.4425 106.883 71.1325C106.463 71.8225 106.088 72.445 105.758 73H103.935ZM128.135 73.3375C127.04 73.3375 126.042 73.1575 125.142 72.7975C124.242 72.4375 123.47 71.9125 122.825 71.2225C122.18 70.5325 121.677 69.685 121.317 68.68C120.972 67.66 120.8 66.4975 120.8 65.1925C120.8 63.8875 120.995 62.7325 121.385 61.7275C121.79 60.7075 122.33 59.8525 123.005 59.1625C123.68 58.4725 124.467 57.9475 125.367 57.5875C126.267 57.2275 127.227 57.0475 128.247 57.0475C128.892 57.0475 129.47 57.0925 129.98 57.1825C130.505 57.2725 130.955 57.3775 131.33 57.4975C131.72 57.6175 132.035 57.7375 132.275 57.8575C132.515 57.9775 132.68 58.0675 132.77 58.1275L132.14 59.9275C132.005 59.8375 131.81 59.74 131.555 59.635C131.3 59.53 131.007 59.425 130.677 59.32C130.362 59.215 130.01 59.1325 129.62 59.0725C129.245 58.9975 128.862 58.96 128.472 58.96C127.647 58.96 126.905 59.1025 126.245 59.3875C125.585 59.6725 125.022 60.085 124.557 60.625C124.092 61.165 123.732 61.825 123.477 62.605C123.237 63.37 123.117 64.2325 123.117 65.1925C123.117 66.1225 123.222 66.97 123.432 67.735C123.657 68.5 123.987 69.16 124.422 69.715C124.857 70.255 125.397 70.675 126.042 70.975C126.702 71.275 127.467 71.425 128.337 71.425C129.342 71.425 130.175 71.32 130.835 71.11C131.495 70.9 131.99 70.7125 132.32 70.5475L132.882 72.3475C132.777 72.4225 132.59 72.52 132.32 72.64C132.05 72.745 131.712 72.85 131.307 72.955C130.902 73.06 130.43 73.15 129.89 73.225C129.35 73.3 128.765 73.3375 128.135 73.3375ZM147.298 57.4075V59.2975H142.393V73H140.211V59.2975H135.306V57.4075H147.298ZM149.483 65.1925C149.483 63.8575 149.678 62.68 150.068 61.66C150.473 60.64 151.013 59.7925 151.688 59.1175C152.378 58.4275 153.173 57.91 154.073 57.565C154.988 57.22 155.955 57.0475 156.975 57.0475C157.98 57.0475 158.925 57.22 159.81 57.565C160.71 57.91 161.498 58.4275 162.173 59.1175C162.848 59.7925 163.38 60.64 163.77 61.66C164.175 62.68 164.378 63.8575 164.378 65.1925C164.378 66.5275 164.175 67.705 163.77 68.725C163.38 69.745 162.848 70.6 162.173 71.29C161.498 71.965 160.71 72.475 159.81 72.82C158.925 73.165 157.98 73.3375 156.975 73.3375C155.955 73.3375 154.988 73.165 154.073 72.82C153.173 72.475 152.378 71.965 151.688 71.29C151.013 70.6 150.473 69.745 150.068 68.725C149.678 67.705 149.483 66.5275 149.483 65.1925ZM151.778 65.1925C151.778 66.1375 151.898 67 152.138 67.78C152.378 68.545 152.715 69.1975 153.15 69.7375C153.6 70.2775 154.14 70.6975 154.77 70.9975C155.415 71.2825 156.135 71.425 156.93 71.425C157.725 71.425 158.438 71.2825 159.068 70.9975C159.698 70.6975 160.23 70.2775 160.665 69.7375C161.115 69.1975 161.46 68.545 161.7 67.78C161.94 67 162.06 66.1375 162.06 65.1925C162.06 64.2475 161.94 63.3925 161.7 62.6275C161.46 61.8475 161.115 61.1875 160.665 60.6475C160.23 60.1075 159.698 59.695 159.068 59.41C158.438 59.11 157.725 58.96 156.93 58.96C156.135 58.96 155.415 59.11 154.77 59.41C154.14 59.695 153.6 60.1075 153.15 60.6475C152.715 61.1875 152.378 61.8475 152.138 62.6275C151.898 63.3925 151.778 64.2475 151.778 65.1925ZM172.89 57.25C175.08 57.25 176.76 57.67 177.93 58.51C179.115 59.335 179.707 60.5725 179.707 62.2225C179.707 63.1225 179.542 63.895 179.212 64.54C178.897 65.17 178.432 65.6875 177.817 66.0925C177.217 66.4825 176.482 66.7675 175.612 66.9475C174.742 67.1275 173.76 67.2175 172.665 67.2175H170.932V73H168.75V57.6325C169.365 57.4825 170.047 57.385 170.797 57.34C171.562 57.28 172.26 57.25 172.89 57.25ZM173.07 59.1625C172.14 59.1625 171.427 59.185 170.932 59.23V65.35H172.575C173.325 65.35 174 65.305 174.6 65.215C175.2 65.11 175.702 64.945 176.107 64.72C176.527 64.48 176.85 64.1575 177.075 63.7525C177.3 63.3475 177.412 62.83 177.412 62.2C177.412 61.6 177.292 61.105 177.052 60.715C176.827 60.325 176.512 60.0175 176.107 59.7925C175.717 59.5525 175.26 59.3875 174.735 59.2975C174.21 59.2075 173.655 59.1625 173.07 59.1625ZM183.564 73V57.4075H185.701V68.95C186.181 68.155 186.766 67.2475 187.456 66.2275C188.161 65.2075 188.904 64.1725 189.684 63.1225C190.479 62.0575 191.274 61.03 192.069 60.04C192.879 59.035 193.636 58.1575 194.341 57.4075H196.074V73H193.936V60.8275C193.516 61.3075 193.059 61.8625 192.564 62.4925C192.069 63.1225 191.559 63.7975 191.034 64.5175C190.509 65.2225 189.976 65.9575 189.436 66.7225C188.911 67.4875 188.401 68.245 187.906 68.995C187.411 69.73 186.946 70.4425 186.511 71.1325C186.091 71.8225 185.716 72.445 185.386 73H183.564ZM207.111 59.1625C206.541 59.1625 205.994 59.2075 205.469 59.2975C204.959 59.3875 204.501 59.545 204.096 59.77C203.691 59.995 203.369 60.3025 203.129 60.6925C202.889 61.0825 202.769 61.57 202.769 62.155C202.769 63.265 203.121 64.0375 203.826 64.4725C204.546 64.8925 205.619 65.1025 207.044 65.1025H209.294V59.23C209.129 59.23 208.934 59.2225 208.709 59.2075C208.514 59.1925 208.281 59.185 208.011 59.185C207.756 59.17 207.456 59.1625 207.111 59.1625ZM207.291 57.25C207.606 57.25 207.944 57.2575 208.304 57.2725C208.664 57.2875 209.024 57.31 209.384 57.34C209.759 57.37 210.126 57.4075 210.486 57.4525C210.846 57.4975 211.176 57.5575 211.476 57.6325V73H209.294V66.9025H207.426C207.216 66.9025 206.991 66.9025 206.751 66.9025C206.526 66.8875 206.219 66.8575 205.829 66.8125C205.559 67.1725 205.266 67.5925 204.951 68.0725C204.636 68.5525 204.321 69.0625 204.006 69.6025C203.691 70.1425 203.376 70.705 203.061 71.29C202.761 71.875 202.484 72.445 202.229 73H199.934C200.174 72.415 200.459 71.8075 200.789 71.1775C201.119 70.5475 201.456 69.9475 201.801 69.3775C202.161 68.8075 202.499 68.2825 202.814 67.8025C203.144 67.3075 203.429 66.9025 203.669 66.5875C203.324 66.4825 202.964 66.3325 202.589 66.1375C202.214 65.9425 201.869 65.6725 201.554 65.3275C201.239 64.9825 200.976 64.555 200.766 64.045C200.571 63.52 200.474 62.8975 200.474 62.1775C200.474 61.3675 200.631 60.655 200.946 60.04C201.261 59.425 201.711 58.915 202.296 58.51C202.896 58.09 203.616 57.775 204.456 57.565C205.296 57.355 206.241 57.25 207.291 57.25ZM227.006 73.135C226.691 73.135 226.346 73.1275 225.971 73.1125C225.611 73.0975 225.243 73.075 224.868 73.045C224.508 73.015 224.148 72.9775 223.788 72.9325C223.428 72.8875 223.098 72.8275 222.798 72.7525V57.6325C223.098 57.5575 223.428 57.4975 223.788 57.4525C224.148 57.4075 224.508 57.37 224.868 57.34C225.243 57.31 225.611 57.2875 225.971 57.2725C226.331 57.2575 226.668 57.25 226.983 57.25C227.883 57.25 228.723 57.3175 229.503 57.4525C230.298 57.5875 230.981 57.82 231.551 58.15C232.136 58.465 232.593 58.885 232.923 59.41C233.253 59.935 233.418 60.58 233.418 61.345C233.418 62.2 233.216 62.905 232.811 63.46C232.406 64 231.866 64.405 231.191 64.675C232.106 64.945 232.833 65.3725 233.373 65.9575C233.913 66.5425 234.183 67.3675 234.183 68.4325C234.183 69.9925 233.606 71.17 232.451 71.965C231.311 72.745 229.496 73.135 227.006 73.135ZM224.958 65.7325V71.2225C225.123 71.2375 225.318 71.2525 225.543 71.2675C225.738 71.2825 225.963 71.2975 226.218 71.3125C226.488 71.3125 226.796 71.3125 227.141 71.3125C227.786 71.3125 228.393 71.275 228.963 71.2C229.548 71.11 230.058 70.96 230.493 70.75C230.928 70.54 231.273 70.2475 231.528 69.8725C231.798 69.4975 231.933 69.025 231.933 68.455C231.933 67.945 231.836 67.5175 231.641 67.1725C231.446 66.8125 231.161 66.5275 230.786 66.3175C230.426 66.1075 229.991 65.9575 229.481 65.8675C228.971 65.7775 228.401 65.7325 227.771 65.7325H224.958ZM224.958 63.9775H227.253C227.793 63.9775 228.303 63.94 228.783 63.865C229.263 63.79 229.676 63.655 230.021 63.46C230.381 63.265 230.658 63.01 230.853 62.695C231.063 62.38 231.168 61.9825 231.168 61.5025C231.168 61.0525 231.063 60.6775 230.853 60.3775C230.643 60.0625 230.351 59.815 229.976 59.635C229.616 59.44 229.188 59.2975 228.693 59.2075C228.198 59.1175 227.673 59.0725 227.118 59.0725C226.563 59.0725 226.128 59.08 225.813 59.095C225.498 59.11 225.213 59.1325 224.958 59.1625V63.9775ZM250.046 59.275C250.016 60.115 249.986 60.9325 249.956 61.7275C249.926 62.5075 249.881 63.2725 249.821 64.0225C249.761 64.7575 249.671 65.4775 249.551 66.1825C249.431 66.8875 249.266 67.5775 249.056 68.2525C248.846 68.9275 248.584 69.565 248.269 70.165C247.969 70.75 247.586 71.2675 247.121 71.7175C246.671 72.1525 246.131 72.505 245.501 72.775C244.886 73.045 244.159 73.195 243.319 73.225L243.071 71.335C244.121 71.215 244.931 70.885 245.501 70.345C246.086 69.805 246.566 68.98 246.941 67.87C247.361 66.61 247.624 65.095 247.729 63.325C247.849 61.54 247.909 59.5675 247.909 57.4075H256.751V73H254.569V59.275H250.046ZM261.747 73V57.4075H263.885V68.95C264.365 68.155 264.95 67.2475 265.64 66.2275C266.345 65.2075 267.087 64.1725 267.867 63.1225C268.662 62.0575 269.457 61.03 270.252 60.04C271.062 59.035 271.82 58.1575 272.525 57.4075H274.257V73H272.12V60.8275C271.7 61.3075 271.242 61.8625 270.747 62.4925C270.252 63.1225 269.742 63.7975 269.217 64.5175C268.692 65.2225 268.16 65.9575 267.62 66.7225C267.095 67.4875 266.585 68.245 266.09 68.995C265.595 69.73 265.13 70.4425 264.695 71.1325C264.275 71.8225 263.9 72.445 263.57 73H261.747ZM291.099 71.1325H293.057V77.1625H290.987V73H279.242V57.4075H281.424V71.1325H288.917V57.4075H291.099V71.1325ZM307.505 73C307.25 72.325 307.01 71.665 306.785 71.02C306.56 70.36 306.328 69.6925 306.088 69.0175H299.023L297.605 73H295.333C295.933 71.35 296.495 69.8275 297.02 68.4325C297.545 67.0225 298.055 65.6875 298.55 64.4275C299.06 63.1675 299.563 61.9675 300.058 60.8275C300.553 59.6725 301.07 58.5325 301.61 57.4075H303.613C304.153 58.5325 304.67 59.6725 305.165 60.8275C305.66 61.9675 306.155 63.1675 306.65 64.4275C307.16 65.6875 307.678 67.0225 308.203 68.4325C308.728 69.8275 309.29 71.35 309.89 73H307.505ZM305.458 67.2175C304.978 65.9125 304.498 64.6525 304.018 63.4375C303.553 62.2075 303.065 61.03 302.555 59.905C302.03 61.03 301.528 62.2075 301.048 63.4375C300.583 64.6525 300.118 65.9125 299.653 67.2175H305.458ZM323.064 73C322.839 72.55 322.569 72.055 322.254 71.515C321.939 70.96 321.594 70.39 321.219 69.805C320.844 69.205 320.454 68.6125 320.049 68.0275C319.644 67.4275 319.254 66.865 318.879 66.34C318.504 66.865 318.114 67.4275 317.709 68.0275C317.304 68.6125 316.914 69.205 316.539 69.805C316.179 70.39 315.834 70.96 315.504 71.515C315.189 72.055 314.919 72.55 314.694 73H312.286C312.961 71.68 313.741 70.3375 314.626 68.9725C315.526 67.6075 316.479 66.205 317.484 64.765L312.489 57.4075H315.009L318.856 63.2125L322.659 57.4075H325.156L320.251 64.675C321.271 66.13 322.231 67.5475 323.131 68.9275C324.031 70.3075 324.826 71.665 325.516 73H323.064Z" fill="white"/>
<path d="M103.674 90.1C104.358 89.836 105.024 89.5 105.672 89.092C106.32 88.672 106.914 88.15 107.454 87.526H108.642V100H106.968V89.848C106.824 89.98 106.644 90.118 106.428 90.262C106.224 90.406 105.996 90.544 105.744 90.676C105.504 90.808 105.246 90.934 104.97 91.054C104.706 91.174 104.448 91.276 104.196 91.36L103.674 90.1ZM122.303 92.512C122.303 94.984 121.685 96.856 120.449 98.128C119.225 99.388 117.401 100.024 114.977 100.036L114.923 98.632C115.679 98.632 116.357 98.56 116.957 98.416C117.569 98.272 118.103 98.044 118.559 97.732C119.015 97.408 119.393 96.994 119.693 96.49C120.005 95.986 120.233 95.368 120.377 94.636C120.065 94.78 119.711 94.9 119.315 94.996C118.919 95.08 118.511 95.122 118.091 95.122C117.383 95.122 116.783 95.02 116.291 94.816C115.799 94.6 115.397 94.318 115.085 93.97C114.773 93.61 114.545 93.202 114.401 92.746C114.269 92.278 114.203 91.792 114.203 91.288C114.203 90.844 114.281 90.382 114.437 89.902C114.593 89.422 114.827 88.984 115.139 88.588C115.463 88.192 115.871 87.868 116.363 87.616C116.855 87.364 117.437 87.238 118.109 87.238C118.793 87.238 119.393 87.358 119.909 87.598C120.437 87.838 120.875 88.186 121.223 88.642C121.583 89.098 121.853 89.656 122.033 90.316C122.213 90.964 122.303 91.696 122.303 92.512ZM118.271 93.754C118.691 93.754 119.087 93.718 119.459 93.646C119.831 93.562 120.191 93.442 120.539 93.286C120.551 93.154 120.557 93.028 120.557 92.908C120.557 92.776 120.557 92.644 120.557 92.512C120.557 91.996 120.521 91.504 120.449 91.036C120.377 90.556 120.245 90.142 120.053 89.794C119.873 89.434 119.627 89.152 119.315 88.948C119.003 88.732 118.607 88.624 118.127 88.624C117.731 88.624 117.395 88.708 117.119 88.876C116.843 89.044 116.615 89.26 116.435 89.524C116.255 89.776 116.123 90.058 116.039 90.37C115.967 90.67 115.931 90.964 115.931 91.252C115.931 92.068 116.123 92.692 116.507 93.124C116.903 93.544 117.491 93.754 118.271 93.754ZM128.638 98.776C129.706 98.776 130.468 98.566 130.924 98.146C131.392 97.726 131.626 97.162 131.626 96.454C131.626 95.998 131.53 95.614 131.338 95.302C131.146 94.99 130.894 94.744 130.582 94.564C130.27 94.372 129.904 94.24 129.484 94.168C129.076 94.084 128.656 94.042 128.224 94.042H127.792V92.674H128.386C128.686 92.674 128.992 92.644 129.304 92.584C129.628 92.524 129.922 92.416 130.186 92.26C130.45 92.104 130.666 91.894 130.834 91.63C131.002 91.354 131.086 91.012 131.086 90.604C131.086 90.268 131.026 89.98 130.906 89.74C130.786 89.5 130.624 89.302 130.42 89.146C130.228 88.99 130 88.882 129.736 88.822C129.484 88.75 129.214 88.714 128.926 88.714C128.35 88.714 127.858 88.798 127.45 88.966C127.054 89.134 126.718 89.308 126.442 89.488L125.794 88.21C125.938 88.114 126.118 88.012 126.334 87.904C126.562 87.784 126.814 87.676 127.09 87.58C127.366 87.484 127.66 87.406 127.972 87.346C128.296 87.274 128.632 87.238 128.98 87.238C129.64 87.238 130.21 87.322 130.69 87.49C131.17 87.646 131.566 87.874 131.878 88.174C132.19 88.462 132.424 88.81 132.58 89.218C132.736 89.614 132.814 90.046 132.814 90.514C132.814 91.162 132.628 91.72 132.256 92.188C131.884 92.644 131.434 92.992 130.906 93.232C131.23 93.328 131.542 93.466 131.842 93.646C132.142 93.826 132.4 94.054 132.616 94.33C132.844 94.606 133.024 94.924 133.156 95.284C133.3 95.644 133.372 96.046 133.372 96.49C133.372 97.03 133.276 97.534 133.084 98.002C132.904 98.458 132.616 98.854 132.22 99.19C131.836 99.526 131.35 99.79 130.762 99.982C130.174 100.174 129.478 100.27 128.674 100.27C128.362 100.27 128.038 100.246 127.702 100.198C127.378 100.15 127.072 100.09 126.784 100.018C126.496 99.946 126.244 99.874 126.028 99.802C125.812 99.73 125.656 99.67 125.56 99.622L125.884 98.164C126.088 98.26 126.424 98.386 126.892 98.542C127.372 98.698 127.954 98.776 128.638 98.776ZM136.755 93.754C136.755 91.666 137.121 90.058 137.853 88.93C138.597 87.802 139.623 87.238 140.931 87.238C142.239 87.238 143.259 87.802 143.991 88.93C144.735 90.058 145.107 91.666 145.107 93.754C145.107 95.842 144.735 97.45 143.991 98.578C143.259 99.706 142.239 100.27 140.931 100.27C139.623 100.27 138.597 99.706 137.853 98.578C137.121 97.45 136.755 95.842 136.755 93.754ZM143.343 93.754C143.343 93.07 143.301 92.422 143.217 91.81C143.145 91.198 143.013 90.664 142.821 90.208C142.641 89.752 142.395 89.392 142.083 89.128C141.771 88.852 141.387 88.714 140.931 88.714C140.475 88.714 140.091 88.852 139.779 89.128C139.467 89.392 139.215 89.752 139.023 90.208C138.843 90.664 138.711 91.198 138.627 91.81C138.555 92.422 138.519 93.07 138.519 93.754C138.519 94.438 138.555 95.086 138.627 95.698C138.711 96.31 138.843 96.844 139.023 97.3C139.215 97.756 139.467 98.122 139.779 98.398C140.091 98.662 140.475 98.794 140.931 98.794C141.387 98.794 141.771 98.662 142.083 98.398C142.395 98.122 142.641 97.756 142.821 97.3C143.013 96.844 143.145 96.31 143.217 95.698C143.301 95.086 143.343 94.438 143.343 93.754ZM147.105 93.898H156.105V95.32H147.105V93.898ZM158.869 90.1C159.553 89.836 160.219 89.5 160.867 89.092C161.515 88.672 162.109 88.15 162.649 87.526H163.837V100H162.163V89.848C162.019 89.98 161.839 90.118 161.623 90.262C161.419 90.406 161.191 90.544 160.939 90.676C160.699 90.808 160.441 90.934 160.165 91.054C159.901 91.174 159.643 91.276 159.391 91.36L158.869 90.1ZM177.498 92.512C177.498 94.984 176.88 96.856 175.644 98.128C174.42 99.388 172.596 100.024 170.172 100.036L170.118 98.632C170.874 98.632 171.552 98.56 172.152 98.416C172.764 98.272 173.298 98.044 173.754 97.732C174.21 97.408 174.588 96.994 174.888 96.49C175.2 95.986 175.428 95.368 175.572 94.636C175.26 94.78 174.906 94.9 174.51 94.996C174.114 95.08 173.706 95.122 173.286 95.122C172.578 95.122 171.978 95.02 171.486 94.816C170.994 94.6 170.592 94.318 170.28 93.97C169.968 93.61 169.74 93.202 169.596 92.746C169.464 92.278 169.398 91.792 169.398 91.288C169.398 90.844 169.476 90.382 169.632 89.902C169.788 89.422 170.022 88.984 170.334 88.588C170.658 88.192 171.066 87.868 171.558 87.616C172.05 87.364 172.632 87.238 173.304 87.238C173.988 87.238 174.588 87.358 175.104 87.598C175.632 87.838 176.07 88.186 176.418 88.642C176.778 89.098 177.048 89.656 177.228 90.316C177.408 90.964 177.498 91.696 177.498 92.512ZM173.466 93.754C173.886 93.754 174.282 93.718 174.654 93.646C175.026 93.562 175.386 93.442 175.734 93.286C175.746 93.154 175.752 93.028 175.752 92.908C175.752 92.776 175.752 92.644 175.752 92.512C175.752 91.996 175.716 91.504 175.644 91.036C175.572 90.556 175.44 90.142 175.248 89.794C175.068 89.434 174.822 89.152 174.51 88.948C174.198 88.732 173.802 88.624 173.322 88.624C172.926 88.624 172.59 88.708 172.314 88.876C172.038 89.044 171.81 89.26 171.63 89.524C171.45 89.776 171.318 90.058 171.234 90.37C171.162 90.67 171.126 90.964 171.126 91.252C171.126 92.068 171.318 92.692 171.702 93.124C172.098 93.544 172.686 93.754 173.466 93.754ZM188.784 92.512C188.784 94.984 188.166 96.856 186.93 98.128C185.706 99.388 183.882 100.024 181.458 100.036L181.404 98.632C182.16 98.632 182.838 98.56 183.438 98.416C184.05 98.272 184.584 98.044 185.04 97.732C185.496 97.408 185.874 96.994 186.174 96.49C186.486 95.986 186.714 95.368 186.858 94.636C186.546 94.78 186.192 94.9 185.796 94.996C185.4 95.08 184.992 95.122 184.572 95.122C183.864 95.122 183.264 95.02 182.772 94.816C182.28 94.6 181.878 94.318 181.566 93.97C181.254 93.61 181.026 93.202 180.882 92.746C180.75 92.278 180.684 91.792 180.684 91.288C180.684 90.844 180.762 90.382 180.918 89.902C181.074 89.422 181.308 88.984 181.62 88.588C181.944 88.192 182.352 87.868 182.844 87.616C183.336 87.364 183.918 87.238 184.59 87.238C185.274 87.238 185.874 87.358 186.39 87.598C186.918 87.838 187.356 88.186 187.704 88.642C188.064 89.098 188.334 89.656 188.514 90.316C188.694 90.964 188.784 91.696 188.784 92.512ZM184.752 93.754C185.172 93.754 185.568 93.718 185.94 93.646C186.312 93.562 186.672 93.442 187.02 93.286C187.032 93.154 187.038 93.028 187.038 92.908C187.038 92.776 187.038 92.644 187.038 92.512C187.038 91.996 187.002 91.504 186.93 91.036C186.858 90.556 186.726 90.142 186.534 89.794C186.354 89.434 186.108 89.152 185.796 88.948C185.484 88.732 185.088 88.624 184.608 88.624C184.212 88.624 183.876 88.708 183.6 88.876C183.324 89.044 183.096 89.26 182.916 89.524C182.736 89.776 182.604 90.058 182.52 90.37C182.448 90.67 182.412 90.964 182.412 91.252C182.412 92.068 182.604 92.692 182.988 93.124C183.384 93.544 183.972 93.754 184.752 93.754ZM191.951 93.754C191.951 91.666 192.317 90.058 193.049 88.93C193.793 87.802 194.819 87.238 196.127 87.238C197.435 87.238 198.455 87.802 199.187 88.93C199.931 90.058 200.303 91.666 200.303 93.754C200.303 95.842 199.931 97.45 199.187 98.578C198.455 99.706 197.435 100.27 196.127 100.27C194.819 100.27 193.793 99.706 193.049 98.578C192.317 97.45 191.951 95.842 191.951 93.754ZM198.539 93.754C198.539 93.07 198.497 92.422 198.413 91.81C198.341 91.198 198.209 90.664 198.017 90.208C197.837 89.752 197.591 89.392 197.279 89.128C196.967 88.852 196.583 88.714 196.127 88.714C195.671 88.714 195.287 88.852 194.975 89.128C194.663 89.392 194.411 89.752 194.219 90.208C194.039 90.664 193.907 91.198 193.823 91.81C193.751 92.422 193.715 93.07 193.715 93.754C193.715 94.438 193.751 95.086 193.823 95.698C193.907 96.31 194.039 96.844 194.219 97.3C194.411 97.756 194.663 98.122 194.975 98.398C195.287 98.662 195.671 98.794 196.127 98.794C196.583 98.794 196.967 98.662 197.279 98.398C197.591 98.122 197.837 97.756 198.017 97.3C198.209 96.844 198.341 96.31 198.413 95.698C198.497 95.086 198.539 94.438 198.539 93.754Z" fill="white"/>
<path fill-rule="evenodd" clip-rule="evenodd" d="M34.1641 34.2872C34.1577 33.3486 34.1454 33.2125 34.2324 33.1321C34.3191 33.052 34.5054 33.0272 34.6793 33.0828C34.8527 33.1385 35.0143 33.2743 35.1168 33.7655C35.2193 34.2568 35.2629 35.1032 35.2647 35.8053C35.2663 36.507 35.2266 37.0641 35.2124 37.4407C35.1985 37.8173 35.2104 38.0137 35.041 38.2133C34.8714 38.413 34.5211 38.6165 34.3458 38.6998C34.1703 38.7829 34.1703 38.7459 34.1703 37.8565C34.1703 36.9674 34.1703 35.2259 34.1641 34.2872ZM40.5302 73.6594L37.4131 78.2289H40.5302V73.6594ZM71.842 71.5407C71.6914 72.0587 71.4145 72.5415 70.5942 74.0021C69.3095 76.2889 68.0343 78.5808 66.7685 80.878C65.1277 83.8561 63.2093 87.3748 61.684 90.169C60.1585 92.9634 59.0266 95.0331 57.8017 97.1602C56.5548 99.3271 55.2601 101.466 53.9184 103.576C52.578 105.681 51.2147 107.705 49.7932 109.636C48.3718 111.569 46.8925 113.408 45.7486 114.708C44.6042 116.007 43.7956 116.766 43.0905 117.405C42.3855 118.044 41.7848 118.563 40.9296 118.823C40.0746 119.082 38.9651 119.082 37.983 118.65C37.0007 118.218 36.1455 117.354 35.0362 116.151C33.9268 114.949 32.563 113.408 31.4308 111.856C30.2985 110.303 29.3969 108.74 28.4379 107.13C27.631 105.776 26.7827 104.386 25.7088 102.187L25.4333 102.165C22.9512 101.965 21.5932 101.856 19.8367 101.707C18.0802 101.557 15.9249 101.367 14.8243 101.284C13.7238 101.201 13.6774 101.224 13.4118 100.304C13.1456 99.3839 12.6604 97.5213 12.327 96.4859C11.9935 95.4509 11.8118 95.244 12.2971 95.1178C12.7823 94.9913 13.9347 94.9454 15.2391 94.7959C16.5434 94.6465 17.9994 94.3935 19.8832 93.9911C20.5764 93.8431 21.2675 93.6858 21.9563 93.5191C21.517 92.439 21.1032 91.4108 20.7419 90.5137C19.5514 87.5587 18.9274 86.0178 18.315 84.2125C17.7024 82.4071 17.1017 80.3372 16.6856 78.7277C16.2698 77.1179 16.0388 75.968 15.8306 74.5994C15.6227 73.2311 15.4376 71.6445 15.4228 69.9906C15.4077 68.3372 15.5625 66.6171 15.9206 65.0532C16.2789 63.4893 16.8401 62.0818 17.3984 61.1023C17.9567 60.1225 18.5115 59.5706 18.7891 59.2945C19.0664 59.019 19.0664 59.019 19.0664 54.0858C19.0664 49.1527 19.0664 39.2867 19.0897 34.3535C19.1127 29.4206 19.159 29.4206 19.2745 29.2828C19.39 29.1447 19.5749 28.8687 19.9446 28.5006C20.3146 28.1327 20.8692 27.6725 21.2737 27.2933C21.6781 26.914 21.9324 26.6149 22.1058 26.3389C22.2788 26.0628 22.3717 25.8098 22.3138 25.5109C22.256 25.212 22.0481 24.8672 22.1519 24.4991C22.256 24.1309 22.6721 23.7403 23.5271 23.1537C24.3825 22.5673 25.6764 21.7853 27.0515 21.0263C28.4269 20.2675 29.8828 19.5317 31.4757 18.8342C33.0684 18.1365 34.798 17.4774 36.2192 16.9946C37.2461 16.6444 38.2849 16.33 39.3337 16.0518C39.9132 15.8985 39.9596 15.8985 39.9826 18.8192C40.0061 21.7397 40.0061 27.581 39.9943 30.5015C39.9826 33.4221 39.9596 33.4221 40.262 33.2382C40.5646 33.054 41.1925 32.6863 41.874 32.3184C42.5556 31.9505 43.2916 31.5825 44.1909 31.1456C45.0901 30.7086 46.1535 30.2028 47.6672 29.6162C49.1806 29.0298 51.1455 28.363 53.1328 27.7993C55.1208 27.2363 57.1313 26.7761 58.8532 26.4196C60.5752 26.063 62.0079 25.8102 62.974 25.7212C63.9395 25.6322 64.4388 25.7069 64.7045 25.7185C64.9702 25.7298 65.0033 25.6778 65.0193 32.7008C65.0357 39.7239 65.0357 53.8217 65.001 60.8931C64.9663 67.965 64.8967 68.0109 65.1048 68.034C65.313 68.057 65.7985 68.057 66.4225 68.0456C67.046 68.034 67.8092 68.0111 68.491 68.0111C69.1727 68.0111 69.7739 68.034 70.3174 68.1832C70.8603 68.3327 71.3449 68.6089 71.6222 68.9195C71.8995 69.2296 71.9694 69.5748 71.9926 70.0231C72.015 70.4716 71.9924 71.0233 71.842 71.5407ZM22.5135 90.5678C22.8442 91.4054 23.1982 92.2591 23.5611 93.1053C23.7076 93.0649 23.8532 93.0238 23.9993 92.982C23.6316 92.1276 23.2764 91.268 22.9339 90.4033C21.5606 86.926 20.7403 84.0941 20.0177 81.4912C19.3056 78.9257 18.8281 77.1086 18.4944 75.4132C18.1847 73.839 17.9747 72.2469 17.8656 70.6465C17.7682 69.2123 17.7752 68.0999 17.888 67.0402C18.006 65.9362 18.2399 64.9019 18.5647 64.0489C18.8459 63.3107 19.2161 62.6385 19.7648 61.8686C20.211 61.2424 20.675 60.6885 20.8982 60.4221C21.1817 60.0835 21.1817 60.0835 21.1817 55.0806C21.1817 50.2883 21.1817 40.3162 21.1933 35.3951C21.2038 30.9378 21.2248 30.5573 21.3406 30.4181L21.4481 30.2866C21.614 30.0827 21.8644 29.7743 22.1175 29.5312C22.3058 29.3505 22.5066 29.1953 22.7191 29.0314C22.8618 28.9212 23.0113 28.8056 23.1694 28.6737C23.575 28.3348 24.0707 27.8626 24.3031 27.2129C24.4524 26.7961 24.4866 26.3171 24.5142 25.9322C24.5277 25.7443 24.5405 25.567 24.564 25.4377C24.6174 25.143 24.7112 25.0907 25.0211 24.9174L25.0565 24.8977C25.5385 24.6245 26.0151 24.342 26.486 24.0503L26.7213 23.9045C27.2382 23.584 27.8239 23.2207 28.6081 22.8062C29.412 22.3808 30.5274 21.8482 31.7487 21.3066C32.9328 20.7817 33.8332 20.419 34.7594 20.0944C35.9481 19.6779 37.1513 19.3354 37.3805 19.2709C37.4279 19.2575 37.4843 19.2416 37.5236 19.235C37.6003 19.4335 37.5968 20.2627 37.5914 21.5886L37.59 21.9511C37.5843 23.4628 37.5813 25.7239 37.5784 27.9839C37.5754 30.2457 37.5727 32.5064 37.5667 34.0133L37.5647 34.5321C37.556 36.5472 37.5548 36.8568 37.7249 37.0269C37.7806 37.0828 37.8545 37.1132 37.9333 37.1132C38.0431 37.1132 38.1334 37.0562 38.2343 36.9924C38.3893 36.8947 38.6162 36.7544 38.8853 36.5879C39.2825 36.3428 39.6789 36.0963 40.0744 35.8484L40.207 35.7653C40.9312 35.3101 41.6803 34.8393 43.1825 34.0644C44.1658 33.5575 46.7839 32.2496 49.8553 31.0588C52.4079 30.0695 55.2573 29.1667 57.4776 28.6439C59.6102 28.1413 61.0522 28.0196 61.8289 27.9539L62.5906 27.8892C62.6081 28.3693 62.6081 29.9739 62.6081 34.4626C62.6081 41.1024 62.6081 54.9187 62.5744 63.3582C62.568 65.1779 62.5562 66.9975 62.5388 68.8171C62.6908 68.7933 62.8409 68.7708 62.9909 68.7487C63.0066 67.2146 63.0171 65.4418 63.0258 63.36C63.0596 54.9196 63.0596 41.1027 63.0596 34.4614C63.0596 31.1176 63.0596 29.439 63.053 28.5644C63.0448 27.5315 63.0439 27.4236 62.7789 27.4236L61.7888 27.5061C61.0025 27.5724 59.5386 27.6959 57.3733 28.2063C55.1336 28.7336 52.2619 29.6432 49.691 30.6396C46.7104 31.7951 44.2034 33.0311 42.9744 33.6649C41.455 34.4487 40.6635 34.9461 39.9653 35.3849L39.8329 35.468C39.4382 35.7153 39.0427 35.9613 38.6463 36.2059C38.403 36.3565 38.1937 36.4857 38.0369 36.5842C38.0086 36.286 38.0116 35.6013 38.0161 34.5336L38.0182 34.0149C38.0239 32.5076 38.0268 30.2464 38.0298 27.9841C38.0328 25.7244 38.0355 23.4637 38.0415 21.9525L38.0428 21.59C38.0513 19.5398 38.0531 19.1131 37.8331 18.8935C37.7962 18.8569 37.7522 18.8282 37.7039 18.809C37.6555 18.7897 37.6037 18.7805 37.5517 18.7817C37.456 18.7817 37.3595 18.809 37.2572 18.8376C37.0258 18.9028 35.8104 19.2489 34.6087 19.6697C33.6705 19.9988 32.7598 20.3654 31.5643 20.8955C30.3338 21.4412 29.2086 21.9788 28.3956 22.4087C27.5975 22.8307 27.0047 23.1984 26.4819 23.5227L26.2475 23.6678C25.7821 23.9563 25.311 24.2356 24.8344 24.5054L24.7997 24.5247C24.4706 24.7087 24.2104 24.8538 24.1191 25.3571C24.0913 25.5104 24.0776 25.6996 24.0632 25.8997C24.0363 26.276 24.0059 26.7025 23.8774 27.0616C23.6814 27.6094 23.2406 28.0266 22.8789 28.3287C22.7253 28.457 22.5803 28.5687 22.4418 28.6757C22.2195 28.8474 22.0095 29.0096 21.8036 29.2071C21.5304 29.4695 21.2693 29.7908 21.0966 30.0034L20.9895 30.1342C20.7665 30.4024 20.7531 30.4183 20.7414 35.3933C20.7298 40.315 20.7298 50.2874 20.7298 55.0799C20.7298 59.7844 20.7248 59.9261 20.5511 60.1334C20.3244 60.4041 19.8524 60.9672 19.3962 61.6076C18.8242 62.41 18.4376 63.1134 18.1422 63.8888C17.804 64.7772 17.5607 65.8501 17.4386 66.9918C17.3229 68.0785 17.3156 69.2146 17.4148 70.6758C17.5253 72.2951 17.7378 73.906 18.0512 75.4988C18.3876 77.208 18.8674 79.0338 19.5822 81.61C20.3078 84.2249 21.1319 87.0702 22.5135 90.5678ZM57.8777 43.9872C57.8777 44.5237 57.8777 44.6079 57.352 44.952C56.8264 45.2959 55.7758 45.9 55.231 46.2718C54.6867 46.6436 54.6492 46.7832 54.6305 46.9942C54.6116 47.2052 54.6116 47.4873 54.738 47.6619C54.8651 47.8368 55.1187 47.9043 55.91 47.5563C56.7013 47.2084 58.0301 46.4448 58.6943 45.9997C59.3589 45.555 59.3589 45.4283 59.3589 42.7604C59.3589 40.0927 59.3589 34.8834 59.3514 32.2514C59.3439 29.6194 59.329 29.5642 59.046 29.6105C58.7621 29.6566 58.2102 29.8038 57.945 29.8776C57.6798 29.9512 57.7022 29.9512 57.7131 31.5201C57.7243 33.0892 57.7243 36.2275 57.7149 37.8057C57.7051 39.3841 57.6869 39.4027 57.5858 39.4647C57.4321 39.5594 57.2715 39.6424 57.1053 39.713C56.9097 39.7934 56.7034 39.8483 56.5742 39.8499C56.4448 39.8517 56.3925 39.8 56.367 38.2217C56.3412 36.6433 56.3412 33.5384 56.3069 31.9768C56.2727 30.4152 56.2045 30.397 55.9849 30.4374C55.7653 30.4776 55.3944 30.5769 55.1915 30.6723C54.9886 30.7674 54.9539 30.8594 54.9393 30.9745C54.9247 31.0897 54.9295 31.2278 54.9318 32.7799C54.935 34.3322 54.935 37.299 54.935 39.0584C54.935 40.8176 54.935 41.3691 55.0416 41.7066C55.1486 42.0438 55.3629 42.1667 55.7477 42.0693C56.1316 41.9712 56.6865 41.6527 57.0106 41.4465C57.3351 41.2405 57.4292 41.147 57.504 41.1161C57.5789 41.0852 57.6346 41.1172 57.6939 41.1874C57.7533 41.2571 57.8156 41.365 57.8469 41.9135C57.8777 42.462 57.8777 43.4508 57.8777 43.9872ZM52.056 37.0094C52.0594 34.5652 52.066 34.5411 52.3484 34.3685C52.6309 34.1962 53.1899 33.8752 53.4752 33.7147C53.7605 33.5539 53.7721 33.5539 53.7774 33.146C53.7835 32.7379 53.7835 31.9212 53.7835 31.5246C53.7835 31.1278 53.7835 31.1508 52.8617 31.6059C51.9403 32.0611 50.0972 32.9486 49.1594 33.3997C48.222 33.8509 48.1903 33.8664 48.2147 34.2706C48.2392 34.6749 48.3202 35.4682 48.3891 35.8448C48.4578 36.2211 48.5149 36.1804 48.7618 36.0342C49.0088 35.8879 49.4459 35.637 49.8103 35.4721C50.1751 35.3067 50.467 35.2277 50.6158 35.2584C50.7651 35.2888 50.7715 35.4285 50.7856 37.9047C50.8002 40.3809 50.8226 45.1937 50.8301 47.5863C50.8372 49.9794 50.8301 49.9524 51.0424 49.8148C51.2549 49.6773 51.6869 49.4291 51.8921 49.3049C52.0968 49.1804 52.0752 49.1804 52.0637 46.7489C52.053 44.3172 52.053 39.4534 52.056 37.0094ZM44.182 78.6831V78.2289H40.9866V71.9658L36.8197 78.2289H35.2432L26.6234 87.5996L26.6076 87.7179V91.4015H27.0641V87.8942L35.4409 78.6831H44.182ZM39.6172 81.4085V83.4525H40.7584V81.4085H39.6172ZM36.4219 81.4085V83.4525H37.7913V81.4085H36.4219ZM33.683 82.7712V84.8152H34.3677V82.7712H33.683ZM31.4006 85.4966V87.0863H32.0853V85.4966H31.4006ZM28.89 88.2219V89.8117H29.5747V88.2219H28.89ZM22.6926 44.493C22.6853 47.3315 22.6707 47.3828 23.3666 47.0301C24.0623 46.6779 25.4689 45.9209 26.1979 45.4944C26.9267 45.0679 26.9778 44.9713 26.8975 44.7442C26.8174 44.5173 26.6058 44.1596 26.4369 44.0002C26.2682 43.8405 26.142 43.8789 25.8232 44.0361C25.5041 44.1928 24.9921 44.4683 24.7155 44.6173C24.4389 44.766 24.3978 44.788 24.3775 42.5925C24.357 40.397 24.357 35.9838 24.3483 33.7467C24.3394 31.5096 24.322 31.4488 24.5852 31.2718C24.8486 31.0949 25.3925 30.8024 25.6764 30.6371C25.9601 30.4717 25.9838 30.4338 25.9955 30.1585C26.0071 29.8833 26.0071 29.3707 25.9647 29.1093C25.922 28.8474 25.8364 28.8372 25.7513 28.8263C24.7269 29.3775 23.7026 29.9287 23.1943 30.1912C22.6856 30.4535 22.6929 30.4281 22.6967 33.2282C22.7002 36.0285 22.7002 41.6543 22.6926 44.493ZM30.3546 29.7136C30.3494 31.4878 30.3494 34.9736 30.3494 37.3253C30.3494 39.6773 30.3494 40.8955 30.3434 41.5106C30.3377 42.1258 30.3261 42.1376 30.6166 41.9707C30.9069 41.8035 31.4992 41.4574 31.7973 41.2841C32.0958 41.1108 32.1002 41.1102 32.102 41.0995C32.1043 41.0893 32.1041 41.0695 32.1006 38.487C32.0972 35.9043 32.0899 30.759 32.0657 28.1731C32.0417 25.5874 32.0002 25.5608 31.7544 25.5593C31.5084 25.5579 31.0576 25.5815 30.2697 26.0087C29.4811 26.4359 28.3552 27.2669 27.7988 27.6939C27.2423 28.1209 27.2551 28.1436 27.2617 30.824C27.2681 33.5046 27.2681 38.8427 27.2732 41.5162C27.2782 44.1898 27.2884 44.1987 27.576 44.0363C27.8634 43.8737 28.4283 43.5398 28.7209 43.3341C29.0135 43.1281 29.0342 43.0499 29.0443 40.6559C29.0546 38.2622 29.0546 33.5525 29.0546 31.1683C29.0546 28.7838 29.0546 28.7248 29.2757 28.5531C29.4971 28.3816 29.9399 28.0979 30.1554 27.9875C30.3708 27.8765 30.3599 27.9394 30.3546 29.7136ZM33.8677 30.7433C33.8752 30.3711 33.9341 30.0811 34.257 29.851C34.58 29.621 35.1663 29.4504 35.5374 29.0352C35.9083 28.6194 36.0635 27.9587 35.6354 27.9405C35.2072 27.9221 34.1959 28.5462 33.6716 28.9587C33.1471 29.3711 33.1092 29.5712 33.0905 31.407C33.0716 33.2425 33.1277 36.287 33.1524 38.4729C33.1747 40.4427 33.0446 40.4032 33.445 40.2353C33.4888 40.2169 33.5394 40.1969 33.597 40.1779C34.1806 39.9855 34.9461 39.5663 35.4416 39.2531C35.9371 38.9399 36.2329 38.6964 36.3203 37.574C36.4073 36.4521 36.2856 34.451 36.0948 33.3517C35.9035 32.2525 35.6431 32.0549 35.356 31.9702C35.0689 31.8853 34.755 31.9134 34.5163 31.9416C34.2773 31.9693 34.1128 31.9968 34.0089 31.7831C33.9044 31.5698 33.8604 31.1156 33.8677 30.7433ZM36.405 42.6107C36.7188 42.427 37.3583 42.0595 37.6685 41.8594C37.9789 41.6596 37.9597 41.6264 37.9502 41.3273C37.9406 41.028 37.9406 40.4622 37.9193 40.0988C37.8981 39.7357 37.8557 39.5749 37.302 39.8002C36.7487 40.0252 35.6844 40.6369 35.1472 40.9473C34.6097 41.2576 34.5992 41.2669 34.5939 43.8476C34.5889 46.428 34.5889 51.5797 34.5889 54.1612C34.5889 56.7426 34.5889 56.7542 34.8395 56.6161C35.0903 56.4776 35.5918 56.1896 35.846 56.0515C36.1001 55.9137 36.1074 55.9257 36.1108 53.7413C36.1142 51.5567 36.1142 47.1755 36.1083 44.9852C36.1023 42.7944 36.0907 42.7944 36.405 42.6107ZM45.0728 43.7145C45.5058 42.5071 45.6213 42.5187 45.6788 42.5821C45.7367 42.6455 45.7361 42.7604 45.7361 44.3645C45.7361 45.9686 45.7345 49.0616 45.7456 50.6149C45.7568 52.1679 45.776 52.1808 46.0538 52.0341C46.3311 51.8876 46.8574 51.5819 47.1238 51.4427C47.3899 51.3042 47.3771 51.333 47.3771 48.507V37.1718C47.3771 34.3431 47.3899 34.366 47.268 34.3774C47.1468 34.389 46.9163 34.389 46.6967 34.4866C46.4769 34.5847 46.2804 34.7798 45.726 36.5727C45.1712 38.3653 44.2582 41.7552 43.7848 43.4454C43.3106 45.1358 43.2761 45.1267 43.2067 45.1219C43.1371 45.1171 43.033 45.1171 42.5594 43.9675C42.0856 42.8176 41.2423 40.5181 40.8091 39.368C40.3754 38.2181 40.3524 38.2181 40.1269 38.3389C39.9016 38.4595 39.4741 38.701 39.2196 38.8679C38.9654 39.0348 38.8846 39.1268 38.8442 41.8805C38.8038 44.6345 38.8038 50.0507 38.8038 52.7702C38.8038 55.4896 38.8038 55.5126 39.0389 55.3888C39.2742 55.2652 39.7446 54.995 39.9755 54.8576C40.2063 54.7197 40.1976 54.715 40.1935 52.9183C40.1889 51.1213 40.1889 47.5332 40.2271 45.7169C40.265 43.9009 40.3412 43.8573 40.4126 43.8017C40.4841 43.7463 40.5518 43.6795 41.0051 44.6729C41.4584 45.6663 42.2979 47.7205 42.7174 48.7473C43.1369 49.7743 43.1369 49.7743 43.5126 48.5611C43.8887 47.3483 44.6396 44.9218 45.0728 43.7145ZM52.3687 102.074C52.1612 102.154 51.9405 102.225 51.7022 102.291C51.3242 102.894 50.9421 103.495 50.556 104.094C48.8819 106.687 47.4316 108.75 45.9921 110.585C44.8094 112.093 43.7198 113.34 42.753 114.289C41.909 115.119 41.2 115.682 40.5859 116.011C40.0018 116.323 39.5987 116.386 39.1025 116.246C38.6572 116.119 38.0631 115.809 36.7439 114.41C35.5781 113.175 33.7102 110.943 32.165 108.743C30.8914 106.931 29.8381 105.145 28.4376 102.405L27.9097 102.363C29.3837 105.264 30.4703 107.115 31.7948 109.001C33.3528 111.22 35.2375 113.471 36.4146 114.718C37.7315 116.114 38.3918 116.511 38.9786 116.678C39.1706 116.734 39.3696 116.763 39.5697 116.764C39.9536 116.764 40.3446 116.65 40.8002 116.406C41.4527 116.057 42.1954 115.469 43.0705 114.609C44.051 113.646 45.1541 112.385 46.3484 110.862C47.7966 109.015 49.2544 106.942 50.9365 104.337C51.4202 103.587 51.8976 102.833 52.3687 102.074ZM60.8719 88.1268C60.8658 87.9657 60.7619 87.9657 60.4846 88.2935C60.2073 88.6212 59.7568 89.2766 58.9823 90.4206C58.2079 91.5648 57.1106 93.1975 56.1912 94.4051C55.273 95.6122 54.5328 96.3944 53.7765 97.0498C53.0196 97.7057 52.2452 98.2344 51.4708 98.5967C50.6964 98.9587 49.9226 99.1543 48.5703 99.3266C47.2185 99.4992 45.2885 99.6487 43.1914 99.7234C41.0939 99.7979 38.8289 99.7979 34.4088 99.7466C29.9885 99.6945 23.4134 99.5912 19.9465 99.4992C16.4795 99.4073 16.1216 99.3266 15.9192 99.2406C15.7172 99.1543 15.6709 99.0623 15.6248 98.6367C15.5782 98.2113 15.5321 97.4525 15.5091 97.0728C15.486 96.6937 15.486 96.6937 15.9539 96.6476C16.422 96.6015 17.358 96.5097 18.4326 96.3542C19.5073 96.1991 20.7209 95.9806 22.0844 95.6987C23.4481 95.4171 24.9616 95.0721 26.5852 94.5836C28.2087 94.0951 29.9424 93.4623 31.3232 92.9332C32.7041 92.4042 33.7325 91.9786 34.8253 91.3915C35.9186 90.804 37.0758 90.0545 38.0983 89.3016C39.121 88.5485 40.0091 87.7915 40.8114 87.0507C41.6136 86.3098 42.3301 85.5856 43.1565 84.6714C43.9825 83.7573 44.9187 82.6531 45.8835 81.4919C46.8483 80.3306 47.8422 79.1117 48.8533 78.0595C49.8647 77.0073 50.8929 76.122 52.3029 75.2767C53.7128 74.4318 55.5035 73.6267 56.8616 73.1956C58.2196 72.7646 59.1439 72.7069 59.9526 72.6667C60.7617 72.6265 61.4549 72.6031 62.0789 72.7294C62.7029 72.8563 63.2575 73.132 63.6044 73.5402C63.9509 73.9487 64.0899 74.489 63.732 75.519C63.3732 76.5492 62.5187 78.0693 61.7849 79.2957C61.0516 80.5225 60.4399 81.456 59.7527 82.4378C59.0652 83.4194 58.3022 84.4489 57.5848 85.4302C56.8679 86.4109 56.1976 87.3439 55.4232 88.2642C54.6488 89.1849 53.7707 90.0933 52.9041 90.9729C52.037 91.8523 51.1821 92.7033 50.4193 93.3933C49.6565 94.0833 48.9866 94.6122 48.3624 95.078C47.7382 95.5438 47.1605 95.9461 46.652 96.2565C46.1435 96.567 45.7046 96.7855 45.485 96.9694C45.2654 97.1536 45.2654 97.3031 45.6525 97.3891C46.0396 97.4757 46.8138 97.4984 47.4784 97.4697C48.1428 97.4409 48.6977 97.3605 49.5584 97.056C50.4191 96.7512 51.5865 96.222 52.4066 95.7391C53.2278 95.2563 53.7014 94.8193 54.3194 94.2039C54.9377 93.5888 55.7 92.7955 56.411 91.8928C57.122 90.99 57.7804 89.978 58.4104 88.9314C59.0399 87.8856 59.6408 86.8045 60.2415 85.6489C60.8429 84.4932 61.4439 83.2627 62.1371 81.7966C62.8302 80.3306 63.616 78.6286 64.1707 77.335C64.7257 76.0414 65.0494 75.1561 65.5574 74.0119C66.0662 72.8677 66.7593 71.4648 67.1003 70.6888C67.4413 69.9125 67.4292 69.7628 66.5106 69.7342C65.5924 69.7053 63.7669 69.7971 62.3219 70.0015C60.8772 70.2052 59.8145 70.5211 58.6073 70.9295C57.4007 71.3376 56.0508 71.8382 54.6988 72.4855C53.3467 73.1323 51.993 73.9258 51.0385 74.541C50.0842 75.1563 49.5296 75.5933 48.9412 76.0759C48.3528 76.559 47.7309 77.0879 47.1126 77.6861C46.4943 78.2836 45.8801 78.9507 45.3186 79.6061C44.7571 80.2618 44.2486 80.9057 43.6477 81.682C43.0467 82.4582 42.3536 83.3662 41.5043 84.3092C40.5963 85.3146 39.6173 86.2542 38.5748 87.1209C37.5001 88.0121 36.3561 88.8169 35.0849 89.5646C33.8138 90.3118 32.4154 91.0018 31.0402 91.6168C29.6651 92.2321 28.313 92.7726 26.7359 93.2784C25.1583 93.7842 23.3557 94.2556 21.9979 94.5893C20.6401 94.9227 19.7271 95.118 18.6695 95.2906C17.6123 95.463 16.4106 95.6124 15.5091 95.6871C14.6077 95.7621 14.0066 95.7621 13.7005 95.808C13.3942 95.8541 13.3826 95.9458 13.5213 96.7221C13.6599 97.4981 13.949 98.9585 14.0933 99.6889C14.238 100.419 14.238 100.419 15.8211 100.545C17.4046 100.672 20.5705 100.925 23.2459 101.097C25.9211 101.27 28.1051 101.362 29.9712 101.465C31.8375 101.569 33.3858 101.684 35.443 101.815C37.4996 101.947 40.065 102.095 42.1107 102.12C44.1567 102.145 45.6827 102.047 46.9797 101.86C48.2773 101.672 49.3447 101.395 50.275 101.089C51.2047 100.782 51.9964 100.445 52.9356 99.8229C53.8744 99.2001 54.9608 98.2917 55.9659 96.9924C56.9711 95.6928 57.8957 94.0026 58.6701 92.5938C59.4445 91.1857 60.0685 90.0586 60.4269 89.3341C60.785 88.6098 60.8772 88.2878 60.8719 88.1268ZM55.2691 77.8044C55.2502 78.3664 55.2343 78.9284 55.2217 79.4905C55.2052 80.2943 55.2128 80.6429 55.1582 80.8873C55.1032 81.1314 54.9857 81.2716 54.817 81.3504C54.649 81.4285 54.4292 81.4458 54.2039 81.414C53.9784 81.3824 53.7475 81.302 53.5539 81.1582C53.3599 81.0145 53.204 80.8076 53.0338 80.6125C52.8635 80.4176 52.6788 80.2339 52.515 80.1403C52.3511 80.0472 52.2078 80.0438 52.1324 80.1439C52.0574 80.2441 52.0496 80.4483 52.1359 80.6942C52.2221 80.94 52.4013 81.2277 52.6323 81.5064C52.8637 81.7851 53.1467 82.0553 53.5957 82.3249C54.0451 82.5947 54.6602 82.8634 55.2173 82.9604C55.7745 83.0576 56.2736 82.9829 56.765 82.7757C57.2562 82.5688 57.7387 82.2298 58.0947 81.9195C58.4506 81.61 58.6788 81.3295 58.8333 81.1176C58.9878 80.9057 59.0686 80.7617 59.1097 80.602C59.1508 80.4424 59.1526 80.267 59.0474 80.1996C58.9426 80.1319 58.7322 80.1723 58.5119 80.3261C58.2917 80.4801 58.0621 80.7474 57.8142 80.9416C57.5664 81.1355 57.3007 81.2563 57.0724 81.3252C56.8442 81.394 56.6539 81.4115 56.4859 81.3942C56.3188 81.3769 56.1739 81.3252 56.0874 81.2277C56.0009 81.1298 55.9716 80.9861 55.9429 80.1782C55.921 79.5714 55.8995 78.5903 55.882 77.8083C56.1275 77.8083 56.3601 77.8065 56.5432 77.8024C57.0546 77.7908 57.1877 77.7622 57.2801 77.702C57.3723 77.6418 57.4246 77.5496 57.4536 77.4579C57.4821 77.3657 57.4883 77.2737 57.4938 77.2251C57.4999 77.1762 57.5054 77.1703 56.8727 77.1678C56.6151 77.1665 56.251 77.1656 55.8678 77.1653L55.8667 77.1179C55.8631 76.9364 55.8576 76.755 55.85 76.5737C55.9367 76.5274 56.0093 76.4587 56.0601 76.3748C56.1109 76.2909 56.138 76.1949 56.1385 76.097C56.1385 75.7959 55.8895 75.5506 55.5846 75.5506C55.2792 75.5506 55.0304 75.7959 55.0304 76.097C55.031 76.1946 55.0579 76.2902 55.1083 76.3739C55.1588 76.4576 55.2309 76.5263 55.3171 76.5728C55.3134 76.6378 55.3102 76.7123 55.3063 76.8002C55.3018 76.9055 55.297 77.0295 55.292 77.1649C54.9261 77.1649 54.5812 77.1653 54.3334 77.1658C53.6977 77.1678 53.6977 77.1703 53.6977 77.2192C53.6977 77.268 53.6977 77.3629 53.7253 77.4542C53.7527 77.5451 53.8077 77.633 53.9002 77.6904C53.9926 77.7479 54.1231 77.7754 54.6326 77.7917C54.8092 77.7974 55.0327 77.8015 55.2691 77.8044ZM70.0501 70.1918C69.8794 70.1668 69.6199 70.3574 69.3813 70.5784C69.1433 70.7998 68.9262 71.0508 68.5067 71.6883C68.0877 72.3258 67.4671 73.3494 66.9025 74.4393C66.3378 75.5292 65.829 76.685 65.1585 78.2289C64.4884 79.7728 63.6567 81.7047 62.9907 83.1864C62.3247 84.6685 61.8246 85.7003 61.6457 86.2553C61.4665 86.81 61.6082 86.8876 61.9501 86.3716C62.2925 85.8558 62.8359 84.7459 63.4595 83.5534C64.0835 82.3601 64.7887 81.0837 65.4878 79.7903C66.1872 78.4967 66.8805 77.1853 67.5219 76.0534C68.163 74.9206 68.7528 73.966 69.2207 73.1034C69.6883 72.2413 70.0355 71.4709 70.1683 70.9649C70.3011 70.4589 70.2204 70.2173 70.0501 70.1918Z" fill="white"/>
</svg>
