<svg width="90" height="90" viewBox="0 0 90 90" fill="none" xmlns="http://www.w3.org/2000/svg">
<path d="M78.75 45C78.75 26.3672 63.6328 11.25 45 11.25C26.3672 11.25 11.25 26.3672 11.25 45C11.25 63.6328 26.3672 78.75 45 78.75C63.6328 78.75 78.75 63.6328 78.75 45Z" stroke="#01437C" stroke-width="3" stroke-miterlimit="10"/>
<path d="M38.025 58.7883L58.1432 46.6348C58.4236 46.464 58.6554 46.2239 58.8162 45.9376C58.977 45.6513 59.0615 45.3284 59.0615 45.0001C59.0615 44.6717 58.977 44.3488 58.8162 44.0625C58.6554 43.7763 58.4236 43.5361 58.1432 43.3653L38.025 31.2118C37.7367 31.039 37.4075 30.9461 37.0714 30.9425C36.7353 30.9389 36.4042 31.0248 36.1122 31.1914C35.8202 31.3579 35.5778 31.5992 35.4098 31.8904C35.2418 32.1815 35.1543 32.5122 35.1563 32.8483V57.1518C35.1543 57.488 35.2418 57.8186 35.4098 58.1098C35.5778 58.4009 35.8202 58.6422 36.1122 58.8088C36.4042 58.9753 36.7353 59.0612 37.0714 59.0576C37.4075 59.054 37.7367 58.9611 38.025 58.7883Z" fill="#01437C"/>
</svg>
