<svg width="25" height="25" viewBox="0 0 25 25" fill="none" xmlns="http://www.w3.org/2000/svg">
<g clip-path="url(#clip0_1801_917)">
<path fill-rule="evenodd" clip-rule="evenodd" d="M16.6299 15.1552L22.2846 20.8104C22.3813 20.9069 22.4579 21.0216 22.5101 21.1478C22.5622 21.274 22.589 21.4093 22.5887 21.5459C22.5884 21.6825 22.5611 21.8177 22.5084 21.9437C22.4557 22.0697 22.3786 22.1841 22.2815 22.2802C22.1853 22.377 22.0709 22.4538 21.9449 22.5064C21.8189 22.559 21.6838 22.5862 21.5473 22.5865C21.4108 22.5867 21.2755 22.5601 21.1493 22.5081C21.0231 22.4561 20.9084 22.3797 20.8117 22.2833L15.1565 16.6286C13.7963 17.6692 12.1306 18.2319 10.418 18.2291C6.10338 18.2291 2.60547 14.7312 2.60547 10.4166C2.60547 6.10204 6.10338 2.60413 10.418 2.60413C14.7326 2.60413 18.2305 6.10204 18.2305 10.4166C18.2305 12.1984 17.6341 13.8411 16.6299 15.1552ZM10.418 16.1458C7.25391 16.1458 4.6888 13.5807 4.6888 10.4166C4.6888 7.25256 7.25391 4.68746 10.418 4.68746C13.582 4.68746 16.1471 7.25256 16.1471 10.4166C16.1471 13.5807 13.582 16.1458 10.418 16.1458Z" fill="white"/>
</g>
<defs>
<clipPath id="clip0_1801_917">
<rect width="25" height="25" fill="white"/>
</clipPath>
</defs>
</svg>
