<svg width="357" height="732" viewBox="0 0 357 732" fill="none" xmlns="http://www.w3.org/2000/svg">
<path fill-rule="evenodd" clip-rule="evenodd" d="M132.138 130.608C132.1 123.956 132.027 122.992 132.542 122.422C133.055 121.854 134.157 121.678 135.186 122.073C136.212 122.467 137.168 123.429 137.774 126.911C138.381 130.393 138.639 136.392 138.649 141.367C138.659 146.341 138.424 150.29 138.34 152.958C138.258 155.627 138.328 157.019 137.326 158.434C136.323 159.849 134.25 161.291 133.213 161.882C132.174 162.471 132.174 162.209 132.174 155.906C132.174 149.604 132.174 137.261 132.138 130.608ZM169.803 409.654L151.361 442.04H169.803V409.654ZM355.065 394.638C354.174 398.309 352.536 401.731 347.682 412.083C340.081 428.29 332.536 444.534 325.047 460.815C315.339 481.922 303.989 506.86 294.964 526.664C285.938 546.469 279.241 561.137 271.993 576.213C264.616 591.57 256.955 606.732 249.017 621.687C241.086 636.603 233.02 650.947 224.61 664.637C216.2 678.33 207.448 691.368 200.679 700.579C193.908 709.789 189.124 715.164 184.952 719.696C180.781 724.224 177.227 727.904 172.167 729.745C167.108 731.584 160.544 731.584 154.733 728.522C148.921 725.46 143.861 719.334 137.298 710.811C130.733 702.29 122.665 691.368 115.965 680.365C109.266 669.365 103.932 658.281 98.2573 646.871C93.4836 637.276 88.4641 627.425 82.1105 611.841L80.4805 611.683C65.7948 610.268 57.7598 609.496 47.3671 608.435C36.9743 607.376 24.2224 606.032 17.7107 605.439C11.199 604.849 10.9249 605.013 9.35298 598.492C7.7784 591.973 4.90743 578.772 2.93448 571.434C0.961527 564.099 -0.113401 562.633 2.75757 561.738C5.62855 560.841 12.4468 560.516 20.1644 559.457C27.882 558.398 36.4963 556.604 47.6426 553.752C51.7437 552.704 55.8327 551.589 59.9083 550.407C57.3088 542.752 54.8605 535.465 52.7228 529.107C45.6791 508.164 41.987 497.243 38.3639 484.448C34.7394 471.652 31.1851 456.982 28.7233 445.575C26.2628 434.166 24.8962 426.016 23.6646 416.316C22.4344 406.618 21.3392 395.373 21.2515 383.652C21.1623 371.934 22.0779 359.742 24.1967 348.658C26.3169 337.574 29.6375 327.599 32.9406 320.657C36.2437 313.713 39.5266 309.802 41.1687 307.844C42.8094 305.892 42.8094 305.892 42.8094 270.929C42.8094 235.966 42.8094 166.041 42.9472 131.079C43.0836 96.1171 43.3577 96.1171 44.041 95.1401C44.7243 94.1614 45.8182 92.2057 48.0058 89.5965C50.1948 86.9889 53.4763 83.7277 55.8693 81.0396C58.2622 78.3515 59.7666 76.2316 60.7929 74.2759C61.8165 72.3186 62.3661 70.5255 62.0231 68.4072C61.6814 66.2889 60.4512 63.8455 61.0656 61.2362C61.6814 58.627 64.1432 55.8584 69.2019 51.7007C74.2632 47.5446 81.9187 42.0027 90.0549 36.6232C98.1925 31.2454 106.807 26.0302 116.231 21.087C125.654 16.1422 135.888 11.471 144.297 8.04891C150.373 5.56722 156.519 3.33866 162.725 1.3673C166.153 0.280789 166.427 0.2808 166.564 20.9808C166.703 41.6791 166.703 83.0791 166.633 103.777C166.564 124.477 166.427 124.477 168.217 123.174C170.007 121.868 173.722 119.262 177.755 116.655C181.787 114.047 186.142 111.439 191.463 108.342C196.783 105.245 203.075 101.661 212.031 97.503C220.985 93.3469 232.611 88.621 244.369 84.6259C256.131 80.6356 268.027 77.3745 278.215 74.8473C288.403 72.3202 296.88 70.5287 302.596 69.8977C308.308 69.2667 311.263 69.7963 312.835 69.8784C314.407 69.9589 314.603 69.5903 314.697 119.365C314.794 169.14 314.794 269.057 314.589 319.175C314.384 369.296 313.972 369.621 315.204 369.785C316.435 369.947 319.308 369.947 323 369.867C326.689 369.785 331.205 369.622 335.238 369.622C339.272 369.622 342.829 369.785 346.044 370.842C349.257 371.902 352.124 373.859 353.765 376.061C355.405 378.258 355.819 380.705 355.956 383.882C356.089 387.061 355.955 390.971 355.065 394.638ZM63.2047 529.49C65.1614 535.426 67.2559 541.477 69.4031 547.475C70.2701 547.188 71.1316 546.897 71.9959 546.601C69.8203 540.545 67.7188 534.453 65.6922 528.325C57.5667 503.68 52.7134 483.609 48.438 465.161C44.2247 446.978 41.3996 434.1 39.4253 422.084C37.5926 410.927 36.3501 399.643 35.7049 388.301C35.1283 378.136 35.1702 370.252 35.8373 362.741C36.5354 354.917 37.9196 347.586 39.8412 341.54C41.5049 336.309 43.6953 331.545 46.9417 326.088C49.5817 321.65 52.3271 317.724 53.6478 315.836C55.325 313.436 55.325 313.436 55.325 277.979C55.325 244.014 55.325 173.338 55.3939 138.46C55.456 106.87 55.5803 104.173 56.2649 103.187L56.901 102.255C57.8827 100.809 59.3641 98.6233 60.8617 96.901C61.9758 95.6198 63.1642 94.5204 64.4214 93.3582C65.2654 92.5775 66.1499 91.7582 67.0858 90.823C69.4855 88.4214 72.4186 85.075 73.7933 80.4698C74.6765 77.5161 74.879 74.1214 75.0424 71.3931C75.1221 70.0619 75.1977 68.8048 75.3368 67.8889C75.6528 65.7996 76.2078 65.4293 78.0417 64.2012L78.251 64.0612C81.1028 62.1253 83.9226 60.123 86.7086 58.0556L88.1009 57.0222C91.1596 54.751 94.6247 52.1756 99.2647 49.238C104.021 46.2231 110.62 42.4485 117.846 38.6095C124.852 34.8897 130.18 32.3191 135.66 30.0189C142.693 27.0668 149.812 24.6395 151.168 24.1823C151.449 24.0874 151.782 23.9747 152.015 23.928C152.468 25.3348 152.448 31.2116 152.416 40.6087L152.407 43.1777C152.374 53.8915 152.356 69.917 152.339 85.9345C152.321 101.965 152.305 117.987 152.27 128.667L152.258 132.344C152.206 146.626 152.2 148.82 153.206 150.026C153.535 150.422 153.973 150.637 154.439 150.637C155.088 150.637 155.623 150.233 156.22 149.781C157.137 149.089 158.479 148.094 160.071 146.914C162.421 145.177 164.767 143.43 167.107 141.673L167.891 141.084C172.176 137.858 176.608 134.522 185.497 129.029C191.314 125.437 206.805 116.167 224.977 107.727C240.08 100.716 256.939 94.3175 270.076 90.6122C282.694 87.05 291.226 86.1873 295.821 85.7221L300.328 85.2633C300.432 88.6661 300.432 100.038 300.432 131.851C300.432 178.911 300.432 276.831 300.232 336.646C300.194 349.542 300.124 362.439 300.021 375.335C300.92 375.166 301.809 375.007 302.696 374.85C302.789 363.977 302.851 351.412 302.903 336.658C303.103 276.838 303.103 178.912 303.103 131.843C303.103 108.144 303.103 96.2475 303.063 90.0488C303.015 82.7281 303.009 81.9636 301.442 81.9636L295.584 82.5479C290.931 83.0179 282.27 83.8935 269.458 87.5104C256.207 91.248 239.216 97.6946 224.005 104.756C206.37 112.946 191.537 121.706 184.265 126.198C175.275 131.753 170.592 135.278 166.461 138.388L165.678 138.977C163.343 140.73 161.003 142.473 158.657 144.207C157.218 145.274 155.979 146.19 155.052 146.888C154.884 144.775 154.902 139.922 154.929 132.355L154.941 128.679C154.975 117.995 154.992 101.97 155.01 85.9361C155.027 69.9202 155.043 53.8979 155.079 43.1873L155.087 40.6184C155.137 26.0881 155.147 23.0636 153.846 21.5071C153.627 21.248 153.367 21.0442 153.081 20.9081C152.795 20.772 152.489 20.7064 152.181 20.7152C151.615 20.7152 151.044 20.9083 150.439 21.1111C149.069 21.5731 141.878 24.0262 134.768 27.0089C129.217 29.3412 123.829 31.9392 116.755 35.6961C109.475 39.5641 102.818 43.3741 98.0075 46.4211C93.2851 49.4118 89.7781 52.0178 86.6843 54.3164L85.2974 55.345C82.5439 57.3896 79.7566 59.3687 76.937 61.2813L76.7318 61.4181C74.7845 62.7219 73.245 63.7505 72.7048 67.3175C72.5401 68.404 72.4591 69.7448 72.374 71.1629C72.2146 73.8301 72.035 76.853 71.2748 79.3978C70.1148 83.2803 67.5071 86.2372 65.3667 88.378C64.4579 89.2874 63.6004 90.0794 62.7807 90.8375C61.4654 92.0544 60.223 93.2037 59.0049 94.6041C57.3885 96.4632 55.8436 98.7408 54.8213 100.247L54.188 101.175C52.8687 103.076 52.789 103.188 52.7201 138.447C52.6512 173.33 52.6512 244.008 52.6512 277.974C52.6512 311.316 52.6215 312.321 51.5939 313.79C50.2529 315.709 47.4602 319.699 44.7608 324.238C41.3766 329.925 39.0891 334.91 37.3416 340.406C35.3403 346.703 33.9008 354.307 33.1783 362.398C32.4936 370.1 32.4504 378.152 33.0379 388.508C33.6911 399.985 34.9486 411.402 36.8028 422.69C38.7933 434.805 41.6319 447.744 45.8614 466.003C50.1543 484.536 55.0307 504.702 63.2047 529.49ZM272.443 199.356C272.443 203.158 272.443 203.755 269.333 206.194C266.223 208.631 260.007 212.913 256.784 215.548C253.563 218.183 253.341 219.172 253.231 220.668C253.119 222.163 253.118 224.162 253.867 225.4C254.619 226.64 256.119 227.118 260.801 224.652C265.483 222.186 273.345 216.774 277.275 213.619C281.207 210.468 281.207 209.569 281.207 190.661C281.207 171.754 281.207 134.834 281.163 116.18C281.118 97.5256 281.03 97.1344 279.356 97.4628C277.676 97.7895 274.41 98.8326 272.841 99.3557C271.272 99.8772 271.404 99.8773 271.469 110.997C271.535 122.118 271.535 144.36 271.48 155.545C271.422 166.732 271.314 166.864 270.716 167.303C269.807 167.975 268.857 168.563 267.873 169.063C266.716 169.633 265.495 170.022 264.731 170.033C263.965 170.046 263.656 169.679 263.504 158.494C263.352 147.307 263.352 125.302 263.149 114.234C262.947 103.166 262.543 103.037 261.244 103.323C259.945 103.608 257.75 104.312 256.55 104.988C255.349 105.662 255.144 106.314 255.058 107.13C254.971 107.946 255 108.925 255.013 119.925C255.032 130.927 255.032 151.954 255.032 164.424C255.032 176.892 255.032 180.8 255.663 183.192C256.296 185.583 257.564 186.453 259.841 185.763C262.112 185.067 265.395 182.811 267.313 181.349C269.233 179.889 269.789 179.226 270.232 179.007C270.675 178.788 271.005 179.015 271.356 179.513C271.707 180.007 272.076 180.771 272.261 184.659C272.443 188.546 272.443 195.554 272.443 199.356ZM237.998 149.902C238.018 132.579 238.057 132.408 239.728 131.185C241.4 129.963 244.707 127.689 246.395 126.551C248.083 125.411 248.152 125.411 248.183 122.52C248.219 119.628 248.219 113.839 248.219 111.029C248.219 108.217 248.219 108.379 242.765 111.605C237.313 114.831 226.409 121.121 220.86 124.318C215.314 127.516 215.126 127.626 215.271 130.491C215.415 133.356 215.894 138.979 216.302 141.647C216.709 144.315 217.046 144.026 218.507 142.99C219.969 141.953 222.555 140.175 224.711 139.006C226.869 137.834 228.596 137.274 229.477 137.491C230.36 137.707 230.398 138.697 230.482 156.247C230.568 173.797 230.7 207.907 230.745 224.864C230.787 241.825 230.745 241.633 232.001 240.658C233.258 239.684 235.814 237.925 237.028 237.044C238.24 236.162 238.111 236.162 238.044 218.929C237.98 201.695 237.98 167.223 237.998 149.902ZM191.41 445.259V442.04H172.504V397.651L147.85 442.04H138.523L87.5216 508.454L87.4284 509.292V535.399H90.1292V510.541L139.692 445.259H191.41ZM164.402 464.575V479.062H171.154V464.575H164.402ZM145.496 464.575V479.062H153.599V464.575H145.496ZM129.291 474.233V488.719H133.342V474.233H129.291ZM115.787 493.548V504.816H119.838V493.548H115.787ZM100.933 512.864V524.132H104.984V512.864H100.933ZM64.2648 202.941C64.2216 223.058 64.1351 223.422 68.2525 220.922C72.3686 218.426 80.6912 213.061 85.0044 210.038C89.3163 207.015 89.6187 206.331 89.1434 204.721C88.6694 203.113 87.4176 200.578 86.4183 199.448C85.4203 198.316 84.6736 198.588 82.787 199.702C80.8992 200.813 77.8702 202.765 76.2335 203.821C74.5968 204.876 74.3537 205.032 74.2335 189.471C74.112 173.911 74.112 142.633 74.0607 126.778C74.008 110.923 73.9054 110.491 75.4624 109.237C77.0208 107.983 80.2388 105.91 81.9187 104.738C83.5973 103.567 83.7377 103.298 83.8066 101.347C83.8755 99.396 83.8755 95.763 83.6243 93.9103C83.3717 92.0544 82.8653 91.982 82.3616 91.9047C76.301 95.8113 70.2403 99.7179 67.233 101.579C64.2229 103.438 64.2661 103.257 64.2891 123.103C64.3093 142.95 64.3093 182.822 64.2648 202.941ZM109.598 98.1936C109.567 110.768 109.567 135.473 109.567 152.141C109.567 168.81 109.567 177.444 109.532 181.803C109.498 186.164 109.429 186.247 111.148 185.064C112.866 183.88 116.37 181.426 118.134 180.198C119.9 178.97 119.926 178.965 119.937 178.89C119.95 178.817 119.949 178.677 119.929 160.374C119.908 142.069 119.865 105.603 119.722 87.2754C119.58 68.9496 119.335 68.7613 117.88 68.75C116.424 68.7404 113.757 68.9078 109.096 71.9355C104.43 74.9632 97.7685 80.8529 94.4762 83.879C91.1839 86.9052 91.2595 87.0661 91.2987 106.063C91.3365 125.062 91.3365 162.895 91.3662 181.843C91.3959 200.792 91.4567 200.855 93.1582 199.704C94.8583 198.551 98.2006 196.185 99.9319 194.727C101.663 193.267 101.786 192.713 101.845 175.746C101.906 158.78 101.906 125.401 101.906 108.503C101.906 91.6037 101.906 91.1852 103.215 89.9683C104.525 88.753 107.144 86.7426 108.419 85.9603C109.694 85.1732 109.629 85.6191 109.598 98.1936ZM130.384 105.492C130.428 102.853 130.777 100.798 132.687 99.1674C134.598 97.5368 138.067 96.328 140.263 93.3856C142.458 90.4383 143.376 85.7559 140.843 85.6271C138.309 85.4967 132.326 89.92 129.224 92.8431C126.12 95.7662 125.896 97.1843 125.785 110.195C125.673 123.204 126.006 144.781 126.151 160.274C126.284 174.235 125.514 173.954 127.883 172.765C128.142 172.635 128.442 172.493 128.782 172.358C132.235 170.994 136.764 168.023 139.696 165.803C142.628 163.584 144.378 161.858 144.895 153.903C145.41 145.952 144.69 131.769 143.561 123.978C142.429 116.188 140.888 114.787 139.19 114.187C137.491 113.585 135.634 113.785 134.221 113.984C132.808 114.18 131.834 114.375 131.22 112.861C130.601 111.349 130.34 108.13 130.384 105.492ZM145.396 189.6C147.253 188.298 151.037 185.694 152.872 184.275C154.709 182.859 154.595 182.624 154.538 180.504C154.482 178.383 154.482 174.373 154.356 171.798C154.231 169.224 153.979 168.084 150.703 169.681C147.43 171.276 141.133 175.611 137.954 177.811C134.774 180.01 134.712 180.076 134.681 198.366C134.651 216.655 134.651 253.166 134.651 271.463C134.651 289.758 134.651 289.841 136.134 288.862C137.618 287.88 140.585 285.839 142.089 284.86C143.592 283.883 143.635 283.969 143.655 268.487C143.676 253.004 143.676 221.952 143.641 206.429C143.606 190.902 143.537 190.902 145.396 189.6ZM196.681 197.423C199.242 188.866 199.926 188.948 200.266 189.397C200.609 189.846 200.605 190.661 200.605 202.03C200.605 213.399 200.596 235.32 200.662 246.329C200.728 257.335 200.841 257.427 202.485 256.387C204.126 255.349 207.24 253.183 208.816 252.196C210.39 251.214 210.314 251.418 210.314 231.39V151.053C210.314 131.004 210.39 131.167 209.669 131.248C208.952 131.33 207.588 131.33 206.289 132.022C204.988 132.717 203.826 134.1 200.546 146.806C197.263 159.511 191.861 183.537 189.06 195.516C186.254 207.496 186.05 207.432 185.64 207.398C185.228 207.364 184.612 207.364 181.81 199.216C179.007 191.067 174.017 174.769 171.454 166.618C168.888 158.468 168.752 158.468 167.417 159.324C166.084 160.179 163.555 161.89 162.049 163.073C160.545 164.256 160.067 164.908 159.828 184.425C159.589 203.944 159.589 242.33 159.589 261.604C159.589 280.878 159.589 281.041 160.98 280.163C162.372 279.288 165.155 277.372 166.522 276.398C167.887 275.421 167.836 275.388 167.812 262.654C167.785 249.918 167.785 224.488 168.01 211.615C168.234 198.745 168.685 198.435 169.108 198.041C169.531 197.648 169.932 197.175 172.614 204.216C175.296 211.256 180.262 225.815 182.744 233.093C185.227 240.371 185.227 240.371 187.449 231.773C189.675 223.177 194.118 205.98 196.681 197.423ZM239.848 611.042C238.62 611.609 237.315 612.111 235.905 612.575C233.668 616.852 231.407 621.111 229.123 625.352C219.218 643.733 210.637 658.351 202.12 671.362C195.122 682.05 188.675 690.882 182.955 697.614C177.961 703.491 173.767 707.482 170.133 709.813C166.677 712.026 164.292 712.474 161.357 711.479C158.722 710.579 155.207 708.382 147.402 698.472C140.504 689.717 129.452 673.9 120.31 658.306C112.774 645.46 106.542 632.802 98.256 613.388L95.1325 613.09C103.853 633.645 110.283 646.768 118.119 660.133C127.337 675.858 138.489 691.814 145.453 700.654C153.245 710.546 157.151 713.359 160.623 714.544C161.759 714.942 162.937 715.147 164.121 715.152C166.392 715.152 168.706 714.348 171.401 712.619C175.262 710.143 179.656 705.976 184.834 699.882C190.635 693.055 197.161 684.12 204.228 673.323C212.797 660.235 221.422 645.54 231.374 627.078C234.236 621.761 237.061 616.415 239.848 611.042ZM290.159 512.19C290.122 511.048 289.508 511.048 287.867 513.371C286.227 515.694 283.561 520.339 278.979 528.447C274.397 536.556 267.904 548.128 262.465 556.687C257.032 565.242 252.653 570.785 248.177 575.431C243.699 580.079 239.117 583.827 234.535 586.394C229.954 588.96 225.376 590.346 217.374 591.567C209.376 592.791 197.957 593.85 185.549 594.379C173.139 594.907 159.738 594.907 133.585 594.544C107.432 594.175 68.5294 593.443 48.0166 592.791C27.5039 592.139 25.3864 591.567 24.1886 590.957C22.9935 590.346 22.7194 589.694 22.4466 586.677C22.1711 583.662 21.8983 578.285 21.7619 575.593C21.6255 572.907 21.6255 572.907 24.3939 572.58C27.1636 572.253 32.7016 571.603 39.0593 570.5C45.4184 569.401 52.5986 567.853 60.6659 565.855C68.7346 563.859 77.6892 561.414 87.296 557.952C96.9015 554.489 107.159 550.005 115.329 546.254C123.499 542.506 129.584 539.489 136.05 535.328C142.518 531.164 149.365 525.852 155.415 520.516C161.466 515.179 166.72 509.814 171.467 504.563C176.214 499.312 180.453 494.179 185.343 487.701C190.23 481.222 195.769 473.396 201.477 465.166C207.186 456.936 213.067 448.297 219.049 440.839C225.033 433.382 231.116 427.107 239.459 421.116C247.801 415.128 258.396 409.422 266.431 406.367C274.466 403.312 279.935 402.903 284.719 402.618C289.507 402.333 293.608 402.168 297.3 403.063C300.992 403.962 304.273 405.916 306.326 408.809C308.376 411.705 309.198 415.534 307.081 422.834C304.958 430.135 299.902 440.908 295.561 449.6C291.222 458.296 287.603 464.911 283.537 471.87C279.469 478.827 274.955 486.123 270.71 493.078C266.469 500.029 262.503 506.641 257.921 513.163C253.339 519.689 248.144 526.127 243.016 532.362C237.886 538.594 232.827 544.625 228.314 549.516C223.801 554.406 219.838 558.155 216.144 561.456C212.451 564.757 209.033 567.608 206.024 569.808C203.016 572.009 200.419 573.557 199.12 574.861C197.82 576.166 197.82 577.226 200.111 577.836C202.401 578.449 206.982 578.61 210.914 578.407C214.845 578.203 218.128 577.633 223.22 575.474C228.313 573.314 235.22 569.564 240.072 566.142C244.931 562.719 247.733 559.622 251.39 555.26C255.048 550.901 259.559 545.279 263.765 538.881C267.972 532.482 271.868 525.31 275.595 517.893C279.319 510.48 282.875 502.818 286.429 494.628C289.987 486.437 293.543 477.716 297.644 467.326C301.745 456.936 306.395 444.873 309.676 435.704C312.961 426.536 314.876 420.262 317.882 412.152C320.892 404.043 324.993 394.1 327.01 388.6C329.028 383.098 328.956 382.037 323.521 381.835C318.088 381.63 307.288 382.28 298.738 383.729C290.19 385.173 283.902 387.412 276.76 390.306C269.621 393.199 261.634 396.746 253.634 401.334C245.635 405.918 237.625 411.542 231.978 415.903C226.332 420.263 223.05 423.36 219.569 426.781C216.088 430.204 212.408 433.953 208.749 438.193C205.091 442.428 201.457 447.155 198.135 451.801C194.813 456.448 191.804 461.011 188.249 466.513C184.693 472.015 180.592 478.45 175.567 485.133C170.195 492.259 164.403 498.918 158.235 505.061C151.875 511.377 145.107 517.081 137.585 522.38C130.065 527.676 121.791 532.566 113.655 536.925C105.519 541.286 97.5187 545.116 88.1873 548.701C78.8533 552.286 68.1877 555.627 60.1541 557.992C52.1205 560.355 46.7189 561.739 40.4611 562.962C34.206 564.184 27.096 565.243 21.7619 565.773C16.4291 566.304 12.8722 566.304 11.0613 566.629C9.24901 566.956 9.18014 567.606 10.0012 573.108C10.8209 578.608 12.5319 588.958 13.3853 594.135C14.2415 599.308 14.2415 599.308 23.6079 600.205C32.9771 601.103 51.7087 602.894 67.5382 604.118C83.3664 605.341 96.2884 605.991 107.329 606.724C118.372 607.458 127.533 608.274 139.704 609.206C151.873 610.138 167.051 611.187 179.155 611.366C191.26 611.543 200.289 610.848 207.963 609.52C215.641 608.192 221.956 606.228 227.461 604.055C232.961 601.88 237.645 599.493 243.202 595.084C248.757 590.671 255.185 584.232 261.132 575.024C267.079 565.813 272.55 553.834 277.132 543.85C281.713 533.87 285.405 525.881 287.526 520.747C289.644 515.613 290.19 513.331 290.159 512.19ZM257.009 439.032C256.897 443.014 256.803 446.998 256.728 450.981C256.631 456.678 256.675 459.149 256.353 460.881C256.027 462.611 255.332 463.604 254.334 464.163C253.34 464.717 252.04 464.839 250.707 464.613C249.372 464.39 248.006 463.82 246.861 462.801C245.713 461.782 244.791 460.316 243.783 458.933C242.776 457.552 241.683 456.25 240.714 455.587C239.744 454.927 238.896 454.903 238.45 455.612C238.006 456.322 237.96 457.769 238.471 459.513C238.981 461.254 240.041 463.294 241.408 465.269C242.777 467.244 244.452 469.159 247.108 471.07C249.767 472.982 253.406 474.886 256.702 475.574C259.999 476.263 262.952 475.733 265.86 474.265C268.766 472.799 271.621 470.395 273.727 468.197C275.832 466.003 277.183 464.015 278.097 462.513C279.011 461.011 279.489 459.991 279.732 458.859C279.975 457.727 279.986 456.485 279.364 456.007C278.744 455.527 277.499 455.814 276.196 456.903C274.893 457.995 273.534 459.889 272.067 461.265C270.601 462.64 269.029 463.496 267.679 463.984C266.328 464.472 265.202 464.596 264.208 464.474C263.22 464.351 262.362 463.984 261.85 463.294C261.338 462.6 261.166 461.581 260.995 455.855C260.866 451.555 260.739 444.601 260.635 439.059C262.088 439.059 263.464 439.046 264.547 439.017C267.573 438.935 268.361 438.732 268.908 438.306C269.453 437.879 269.762 437.226 269.934 436.575C270.103 435.922 270.139 435.27 270.172 434.925C270.208 434.579 270.24 434.537 266.497 434.52C264.972 434.51 262.818 434.504 260.551 434.502L260.544 434.166C260.523 432.88 260.491 431.594 260.446 430.309C260.959 429.981 261.389 429.494 261.689 428.899C261.989 428.305 262.15 427.624 262.153 426.93C262.153 424.796 260.679 423.057 258.875 423.057C257.068 423.057 255.597 424.796 255.597 426.93C255.6 427.622 255.759 428.3 256.058 428.893C256.356 429.486 256.783 429.973 257.293 430.302C257.271 430.763 257.252 431.291 257.229 431.914C257.202 432.661 257.174 433.539 257.144 434.499C254.979 434.499 252.939 434.502 251.472 434.505C247.711 434.52 247.711 434.537 247.711 434.883C247.711 435.23 247.711 435.902 247.875 436.549C248.037 437.193 248.362 437.816 248.909 438.223C249.456 438.631 250.229 438.826 253.243 438.941C254.288 438.982 255.61 439.011 257.009 439.032ZM344.463 385.078C343.453 384.901 341.917 386.251 340.506 387.818C339.098 389.387 337.814 391.166 335.332 395.684C332.852 400.202 329.18 407.457 325.84 415.181C322.499 422.906 319.489 431.098 315.521 442.04C311.556 452.982 306.635 466.674 302.695 477.175C298.754 487.68 295.796 494.992 294.737 498.926C293.677 502.857 294.515 503.407 296.538 499.75C298.564 496.095 301.779 488.229 305.469 479.776C309.161 471.319 313.333 462.273 317.47 453.106C321.607 443.938 325.71 434.644 329.505 426.621C333.298 418.592 336.787 411.827 339.556 405.714C342.323 399.603 344.377 394.143 345.163 390.557C345.948 386.971 345.47 385.258 344.463 385.078Z" stroke="#F0F0F0"/>
</svg>
