<svg width="60" height="103" viewBox="0 0 60 103" fill="none" xmlns="http://www.w3.org/2000/svg">
<path fill-rule="evenodd" clip-rule="evenodd" d="M22.1641 18.2872C22.1577 17.3486 22.1454 17.2125 22.2324 17.1321C22.3191 17.052 22.5054 17.0272 22.6793 17.0828C22.8527 17.1385 23.0143 17.2743 23.1168 17.7655C23.2193 18.2568 23.2629 19.1032 23.2647 19.8053C23.2663 20.507 23.2266 21.0641 23.2124 21.4407C23.1985 21.8173 23.2104 22.0137 23.041 22.2133C22.8714 22.413 22.5211 22.6165 22.3458 22.6998C22.1703 22.7829 22.1703 22.7459 22.1703 21.8565C22.1703 20.9674 22.1703 19.2259 22.1641 18.2872ZM28.5302 57.6594L25.4131 62.2289H28.5302V57.6594ZM59.842 55.5407C59.6914 56.0587 59.4145 56.5415 58.5942 58.0021C57.3095 60.2889 56.0343 62.5808 54.7685 64.878C53.1277 67.8561 51.2093 71.3748 49.684 74.169C48.1585 76.9634 47.0266 79.0331 45.8017 81.1602C44.5548 83.3271 43.2601 85.4663 41.9184 87.5764C40.578 89.681 39.2147 91.7048 37.7932 93.6365C36.3718 95.5685 34.8925 97.4081 33.7486 98.7077C32.6042 100.007 31.7956 100.766 31.0905 101.405C30.3855 102.044 29.7848 102.563 28.9296 102.823C28.0746 103.082 26.9651 103.082 25.983 102.65C25.0007 102.218 24.1455 101.354 23.0362 100.151C21.9268 98.9491 20.563 97.4081 19.4308 95.8556C18.2985 94.3035 17.3969 92.7396 16.4379 91.1298C15.631 89.776 14.7827 88.386 13.7088 86.1871L13.4333 86.1649C10.9512 85.9652 9.59321 85.8562 7.83669 85.7066C6.08016 85.5571 3.92491 85.3675 2.82434 85.2839C1.72377 85.2005 1.67744 85.2237 1.41177 84.3037C1.14565 83.3839 0.660411 81.5213 0.326954 80.4859C-0.00650242 79.4509 -0.18818 79.244 0.297055 79.1178C0.78229 78.9913 1.93467 78.9454 3.23905 78.7959C4.54343 78.6465 5.99937 78.3935 7.88325 77.9911C8.57641 77.8431 9.2675 77.6858 9.95634 77.5191C9.51698 76.439 9.10318 75.4108 8.74188 74.5137C7.55139 71.5587 6.92739 70.0178 6.31502 68.2125C5.70243 66.4071 5.10171 64.3372 4.68563 62.7277C4.26978 61.1179 4.0388 59.968 3.83064 58.5994C3.62272 57.2311 3.43762 55.6445 3.42278 53.9906C3.40772 52.3372 3.56246 50.6171 3.92057 49.0532C4.27891 47.4893 4.84014 46.0818 5.39842 45.1023C5.95669 44.1225 6.51154 43.5706 6.78907 43.2945C7.06638 43.019 7.06638 43.019 7.06638 38.0858C7.06638 33.1527 7.06638 23.2867 7.08966 18.3535C7.11271 13.4206 7.15905 13.4206 7.27454 13.2828C7.39003 13.1447 7.5749 12.8687 7.94464 12.5006C8.31462 12.1327 8.86924 11.6725 9.27368 11.2933C9.67812 10.914 9.93237 10.6149 10.1058 10.3389C10.2788 10.0628 10.3717 9.80976 10.3138 9.51088C10.256 9.21199 10.0481 8.86724 10.1519 8.49908C10.256 8.13093 10.6721 7.7403 11.5271 7.15367C12.3825 6.56726 13.6764 5.78531 15.0515 5.02629C16.4269 4.26751 17.8828 3.53166 19.4757 2.83419C21.0684 2.1365 22.798 1.47742 24.2192 0.994572C25.2461 0.644415 26.2849 0.329975 27.3337 0.051824C27.9132 -0.101478 27.9596 -0.101476 27.9826 2.8192C28.0061 5.73966 28.0061 11.581 27.9943 14.5015C27.9826 17.4221 27.9596 17.4221 28.262 17.2382C28.5646 17.054 29.1925 16.6863 29.874 16.3184C30.5556 15.9505 31.2916 15.5825 32.1909 15.1456C33.0901 14.7086 34.1535 14.2028 35.6672 13.6162C37.1806 13.0298 39.1455 12.363 41.1328 11.7993C43.1208 11.2363 45.1313 10.7761 46.8532 10.4196C48.5752 10.063 50.0079 9.81021 50.974 9.72118C51.9395 9.63215 52.4388 9.70687 52.7045 9.71846C52.9702 9.72981 53.0033 9.6778 53.0193 16.7008C53.0357 23.7239 53.0357 37.8217 53.001 44.8931C52.9663 51.965 52.8967 52.0109 53.1048 52.034C53.313 52.057 53.7985 52.057 54.4225 52.0456C55.046 52.034 55.8092 52.0111 56.491 52.0111C57.1727 52.0111 57.7739 52.034 58.3174 52.1832C58.8603 52.3327 59.3449 52.6089 59.6222 52.9195C59.8995 53.2296 59.9694 53.5748 59.9926 54.0231C60.015 54.4716 59.9924 55.0233 59.842 55.5407ZM10.5135 74.5678C10.8442 75.4054 11.1982 76.2591 11.5611 77.1053C11.7076 77.0649 11.8532 77.0238 11.9993 76.982C11.6316 76.1276 11.2764 75.268 10.9339 74.4033C9.56057 70.926 8.74028 68.0941 8.01768 65.4912C7.30558 62.9257 6.8281 61.1086 6.49442 59.4132C6.18467 57.839 5.97466 56.2469 5.86562 54.6465C5.76816 53.2123 5.77524 52.0999 5.88799 51.0402C6.00599 49.9362 6.23993 48.9019 6.56471 48.0489C6.8459 47.3107 7.21611 46.6385 7.76479 45.8686C8.211 45.2424 8.67501 44.6885 8.89823 44.4221C9.1817 44.0835 9.1817 44.0835 9.1817 39.0806C9.1817 34.2883 9.1817 24.3162 9.19334 19.3951C9.20384 14.9378 9.22483 14.5573 9.34055 14.4181L9.44805 14.2866C9.61398 14.0827 9.86436 13.7743 10.1175 13.5312C10.3058 13.3505 10.5066 13.1953 10.7191 13.0314C10.8618 12.9212 11.0113 12.8056 11.1694 12.6737C11.575 12.3348 12.0707 11.8626 12.3031 11.2129C12.4524 10.7961 12.4866 10.3171 12.5142 9.93217C12.5277 9.74435 12.5405 9.56697 12.564 9.43775C12.6174 9.14295 12.7112 9.09072 13.0211 8.91743L13.0565 8.89767C13.5385 8.62452 14.0151 8.34202 14.486 8.05031L14.7213 7.9045C15.2382 7.58404 15.8239 7.22066 16.6081 6.80618C17.412 6.3808 18.5274 5.84822 19.7487 5.30655C20.9328 4.78169 21.8332 4.41899 22.7594 4.09445C23.9481 3.67792 25.1513 3.33543 25.3805 3.27093C25.4279 3.25753 25.4843 3.24164 25.5236 3.23505C25.6003 3.43355 25.5968 4.26274 25.5914 5.58863L25.59 5.9511C25.5843 7.46277 25.5813 9.72391 25.5784 11.9839C25.5754 14.2457 25.5727 16.5064 25.5667 18.0133L25.5647 18.5321C25.556 20.5472 25.5548 20.8568 25.7249 21.0269C25.7806 21.0828 25.8545 21.1132 25.9333 21.1132C26.0431 21.1132 26.1334 21.0562 26.2343 20.9924C26.3893 20.8947 26.6162 20.7544 26.8853 20.5879C27.2825 20.3428 27.6789 20.0963 28.0744 19.8484L28.207 19.7653C28.9312 19.3101 29.6803 18.8393 31.1825 18.0644C32.1658 17.5575 34.7839 16.2496 37.8553 15.0588C40.4079 14.0695 43.2573 13.1667 45.4776 12.6439C47.6102 12.1413 49.0522 12.0196 49.8289 11.9539L50.5906 11.8892C50.6081 12.3693 50.6081 13.9739 50.6081 18.4626C50.6081 25.1024 50.6081 38.9187 50.5744 47.3582C50.568 49.1779 50.5562 50.9975 50.5388 52.8171C50.6908 52.7933 50.8409 52.7708 50.9909 52.7487C51.0066 51.2146 51.0171 49.4418 51.0258 47.36C51.0596 38.9196 51.0596 25.1027 51.0596 18.4614C51.0596 15.1176 51.0596 13.439 51.053 12.5644C51.0448 11.5315 51.0439 11.4236 50.7789 11.4236L49.7888 11.5061C49.0025 11.5724 47.5386 11.6959 45.3733 12.2063C43.1336 12.7336 40.2619 13.6432 37.691 14.6396C34.7104 15.7951 32.2034 17.0311 30.9744 17.6649C29.455 18.4487 28.6635 18.9461 27.9653 19.3849L27.8329 19.468C27.4382 19.7153 27.0427 19.9613 26.6463 20.2059C26.403 20.3565 26.1937 20.4857 26.0369 20.5842C26.0086 20.286 26.0116 19.6013 26.0161 18.5336L26.0182 18.0149C26.0239 16.5076 26.0268 14.2464 26.0298 11.9841C26.0328 9.72436 26.0355 7.46367 26.0415 5.95246L26.0428 5.58999C26.0513 3.53983 26.0531 3.11309 25.8331 2.89347C25.7962 2.85691 25.7522 2.82816 25.7039 2.80895C25.6555 2.78975 25.6037 2.78049 25.5517 2.78173C25.456 2.78173 25.3595 2.80898 25.2572 2.8376C25.0258 2.90278 23.8104 3.2489 22.6087 3.66974C21.6705 3.99883 20.7598 4.36539 19.5643 4.89547C18.3338 5.44123 17.2086 5.97881 16.3956 6.40873C15.5975 6.83071 15.0047 7.19841 14.4819 7.52272L14.2475 7.66785C13.7821 7.95634 13.311 8.23559 12.8344 8.50544L12.7997 8.52475C12.4706 8.70871 12.2104 8.85384 12.1191 9.35712C12.0913 9.51042 12.0776 9.69961 12.0632 9.89969C12.0363 10.276 12.0059 10.7025 11.8774 11.0616C11.6814 11.6094 11.2406 12.0266 10.8789 12.3287C10.7253 12.457 10.5803 12.5687 10.4418 12.6757C10.2195 12.8474 10.0095 13.0096 9.80365 13.2071C9.53045 13.4695 9.26934 13.7908 9.09656 14.0034L8.98952 14.1342C8.76653 14.4024 8.75307 14.4183 8.74143 19.3933C8.72978 24.315 8.72979 34.2874 8.72979 39.0799C8.72979 43.7844 8.72476 43.9261 8.55107 44.1334C8.32443 44.4041 7.85244 44.9672 7.39619 45.6076C6.82422 46.41 6.43759 47.1134 6.14225 47.8888C5.804 48.7772 5.56069 49.8501 5.43859 50.9918C5.32287 52.0785 5.31556 53.2146 5.41485 54.6758C5.52526 56.2951 5.73779 57.906 6.05118 59.4988C6.3876 61.208 6.86736 63.0338 7.5822 65.61C8.30777 68.2249 9.13194 71.0702 10.5135 74.5678ZM45.8777 27.9872C45.8777 28.5237 45.8777 28.6079 45.352 28.952C44.8264 29.2959 43.7758 29.9 43.231 30.2718C42.6867 30.6436 42.6492 30.7832 42.6305 30.9942C42.6116 31.2052 42.6116 31.4873 42.738 31.6619C42.8651 31.8368 43.1187 31.9043 43.91 31.5563C44.7013 31.2084 46.0301 30.4448 46.6943 29.9997C47.3589 29.555 47.3589 29.4283 47.3589 26.7604C47.3589 24.0927 47.3589 18.8834 47.3514 16.2514C47.3439 13.6194 47.329 13.5642 47.046 13.6105C46.7621 13.6566 46.2102 13.8038 45.945 13.8776C45.6798 13.9512 45.7022 13.9512 45.7131 15.5201C45.7243 17.0892 45.7243 20.2275 45.7149 21.8057C45.7051 23.3841 45.6869 23.4027 45.5858 23.4647C45.4321 23.5594 45.2715 23.6424 45.1053 23.713C44.9097 23.7934 44.7034 23.8483 44.5742 23.8499C44.4448 23.8517 44.3925 23.8 44.367 22.2217C44.3412 20.6433 44.3412 17.5384 44.3069 15.9768C44.2727 14.4152 44.2045 14.397 43.9849 14.4374C43.7653 14.4776 43.3944 14.5769 43.1915 14.6723C42.9886 14.7674 42.9539 14.8594 42.9393 14.9745C42.9247 15.0897 42.9295 15.2278 42.9318 16.7799C42.935 18.3322 42.935 21.299 42.935 23.0584C42.935 24.8176 42.935 25.3691 43.0416 25.7066C43.1486 26.0438 43.3629 26.1667 43.7477 26.0693C44.1316 25.9712 44.6865 25.6527 45.0106 25.4465C45.3351 25.2405 45.4292 25.147 45.504 25.1161C45.5789 25.0852 45.6346 25.1172 45.6939 25.1874C45.7533 25.2571 45.8156 25.365 45.8469 25.9135C45.8777 26.462 45.8777 27.4508 45.8777 27.9872ZM40.056 21.0094C40.0594 18.5652 40.066 18.5411 40.3484 18.3685C40.6309 18.1962 41.1899 17.8752 41.4752 17.7147C41.7605 17.5539 41.7721 17.5539 41.7774 17.146C41.7835 16.7379 41.7835 15.9212 41.7835 15.5246C41.7835 15.1278 41.7835 15.1508 40.8617 15.6059C39.9403 16.0611 38.0972 16.9486 37.1594 17.3997C36.222 17.8509 36.1903 17.8664 36.2147 18.2706C36.2392 18.6749 36.3202 19.4682 36.3891 19.8448C36.4578 20.2211 36.5149 20.1804 36.7618 20.0342C37.0088 19.8879 37.4459 19.637 37.8103 19.4721C38.1751 19.3067 38.467 19.2277 38.6158 19.2584C38.7651 19.2888 38.7715 19.4285 38.7856 21.9047C38.8002 24.3809 38.8226 29.1937 38.8301 31.5863C38.8372 33.9794 38.8301 33.9524 39.0424 33.8148C39.2549 33.6773 39.6869 33.4291 39.8921 33.3049C40.0968 33.1804 40.0752 33.1804 40.0637 30.7489C40.053 28.3172 40.053 23.4534 40.056 21.0094ZM32.182 62.6831V62.2289H28.9866V55.9658L24.8197 62.2289H23.2432L14.6234 71.5996L14.6076 71.7179V75.4015H15.0641V71.8942L23.4409 62.6831H32.182ZM27.6172 65.4085V67.4525H28.7584V65.4085H27.6172ZM24.4219 65.4085V67.4525H25.7913V65.4085H24.4219ZM21.683 66.7712V68.8152H22.3677V66.7712H21.683ZM19.4006 69.4966V71.0863H20.0853V69.4966H19.4006ZM16.89 72.2219V73.8117H17.5747V72.2219H16.89ZM10.6926 28.493C10.6853 31.3315 10.6707 31.3828 11.3666 31.0301C12.0623 30.6779 13.4689 29.9209 14.1979 29.4944C14.9267 29.0679 14.9778 28.9713 14.8975 28.7442C14.8174 28.5173 14.6058 28.1596 14.4369 28.0002C14.2682 27.8405 14.142 27.8789 13.8232 28.0361C13.5041 28.1928 12.9921 28.4683 12.7155 28.6173C12.4389 28.766 12.3978 28.788 12.3775 26.5925C12.357 24.397 12.357 19.9838 12.3483 17.7467C12.3394 15.5096 12.322 15.4488 12.5852 15.2718C12.8486 15.0949 13.3925 14.8024 13.6764 14.6371C13.9601 14.4717 13.9838 14.4338 13.9955 14.1585C14.0071 13.8833 14.0071 13.3707 13.9647 13.1093C13.922 12.8474 13.8364 12.8372 13.7513 12.8263C12.7269 13.3775 11.7026 13.9287 11.1943 14.1912C10.6856 14.4535 10.6929 14.4281 10.6967 17.2282C10.7002 20.0285 10.7002 25.6543 10.6926 28.493ZM18.3546 13.7136C18.3494 15.4878 18.3494 18.9736 18.3494 21.3253C18.3494 23.6773 18.3494 24.8955 18.3434 25.5106C18.3377 26.1258 18.3261 26.1376 18.6166 25.9707C18.9069 25.8035 19.4992 25.4574 19.7973 25.2841C20.0958 25.1108 20.1002 25.1102 20.102 25.0995C20.1043 25.0893 20.1041 25.0695 20.1006 22.487C20.0972 19.9043 20.0899 14.759 20.0657 12.1731C20.0417 9.58741 20.0002 9.56084 19.7544 9.55925C19.5084 9.55789 19.0576 9.58151 18.2697 10.0087C17.4811 10.4359 16.3552 11.2669 15.7988 11.6939C15.2423 12.1209 15.2551 12.1436 15.2617 14.824C15.2681 17.5046 15.2681 22.8427 15.2732 25.5162C15.2782 28.1898 15.2884 28.1987 15.576 28.0363C15.8634 27.8737 16.4283 27.5398 16.7209 27.3341C17.0135 27.1281 17.0342 27.0499 17.0443 24.6559C17.0546 22.2622 17.0546 17.5525 17.0546 15.1683C17.0546 12.7838 17.0546 12.7248 17.2757 12.5531C17.4971 12.3816 17.9399 12.0979 18.1554 11.9875C18.3708 11.8765 18.3599 11.9394 18.3546 13.7136ZM21.8677 14.7433C21.8752 14.3711 21.9341 14.0811 22.257 13.851C22.58 13.621 23.1663 13.4504 23.5374 13.0352C23.9083 12.6194 24.0635 11.9587 23.6354 11.9405C23.2072 11.9221 22.1959 12.5462 21.6716 12.9587C21.1471 13.3711 21.1092 13.5712 21.0905 15.407C21.0716 17.2425 21.1277 20.287 21.1524 22.4729C21.1747 24.4427 21.0446 24.4032 21.445 24.2353C21.4888 24.2169 21.5394 24.1969 21.597 24.1779C22.1806 23.9855 22.9461 23.5663 23.4416 23.2531C23.9371 22.9399 24.2329 22.6964 24.3203 21.574C24.4073 20.4521 24.2856 18.451 24.0948 17.3517C23.9035 16.2525 23.6431 16.0549 23.356 15.9702C23.0689 15.8853 22.755 15.9134 22.5163 15.9416C22.2773 15.9693 22.1128 15.9968 22.0089 15.7831C21.9044 15.5698 21.8604 15.1156 21.8677 14.7433ZM24.405 26.6107C24.7188 26.427 25.3583 26.0595 25.6685 25.8594C25.9789 25.6596 25.9597 25.6264 25.9502 25.3273C25.9406 25.028 25.9406 24.4622 25.9193 24.0988C25.8981 23.7357 25.8557 23.5749 25.302 23.8002C24.7487 24.0252 23.6844 24.6369 23.1472 24.9473C22.6097 25.2576 22.5992 25.2669 22.5939 27.8476C22.5889 30.428 22.5889 35.5797 22.5889 38.1612C22.5889 40.7426 22.5889 40.7542 22.8395 40.6161C23.0903 40.4776 23.5918 40.1896 23.846 40.0515C24.1001 39.9137 24.1074 39.9257 24.1108 37.7413C24.1142 35.5567 24.1142 31.1755 24.1083 28.9852C24.1023 26.7944 24.0907 26.7944 24.405 26.6107ZM33.0728 27.7145C33.5058 26.5071 33.6213 26.5187 33.6788 26.5821C33.7367 26.6455 33.7361 26.7604 33.7361 28.3645C33.7361 29.9686 33.7345 33.0616 33.7456 34.6149C33.7568 36.1679 33.776 36.1808 34.0538 36.0341C34.3311 35.8876 34.8574 35.5819 35.1238 35.4427C35.3899 35.3042 35.3771 35.333 35.3771 32.507V21.1718C35.3771 18.3431 35.3899 18.366 35.268 18.3774C35.1468 18.389 34.9163 18.389 34.6967 18.4866C34.4769 18.5847 34.2804 18.7798 33.726 20.5727C33.1712 22.3653 32.2582 25.7552 31.7848 27.4454C31.3106 29.1358 31.2761 29.1267 31.2067 29.1219C31.1371 29.1171 31.033 29.1171 30.5594 27.9675C30.0856 26.8176 29.2423 24.5181 28.8091 23.368C28.3754 22.2181 28.3524 22.2181 28.1269 22.3389C27.9016 22.4595 27.4741 22.701 27.2196 22.8679C26.9654 23.0348 26.8846 23.1268 26.8442 25.8805C26.8038 28.6345 26.8038 34.0507 26.8038 36.7702C26.8038 39.4896 26.8038 39.5126 27.0389 39.3888C27.2742 39.2652 27.7446 38.995 27.9755 38.8576C28.2063 38.7197 28.1976 38.715 28.1935 36.9183C28.1889 35.1213 28.1889 31.5332 28.2271 29.7169C28.265 27.9009 28.3412 27.8573 28.4126 27.8017C28.4841 27.7463 28.5518 27.6795 29.0051 28.6729C29.4584 29.6663 30.2979 31.7205 30.7174 32.7473C31.1369 33.7743 31.1369 33.7743 31.5126 32.5611C31.8887 31.3483 32.6396 28.9218 33.0728 27.7145ZM40.3687 86.0745C40.1612 86.1544 39.9405 86.2253 39.7022 86.2907C39.3242 86.8942 38.9421 87.4951 38.556 88.0935C36.8819 90.6869 35.4316 92.7496 33.9921 94.5853C32.8094 96.0934 31.7198 97.3395 30.753 98.2893C29.909 99.1185 29.2 99.6818 28.5859 100.011C28.0018 100.323 27.5987 100.386 27.1025 100.246C26.6572 100.119 26.0631 99.8087 24.7439 98.4104C23.5781 97.1751 21.7102 94.9435 20.165 92.7432C18.8914 90.9306 17.8381 89.1446 16.4376 86.4054L15.9097 86.3634C17.3837 89.2636 18.4703 91.1153 19.7948 93.001C21.3528 95.2197 23.2375 97.471 24.4146 98.7183C25.7315 100.114 26.3918 100.511 26.9786 100.678C27.1706 100.734 27.3696 100.763 27.5697 100.764C27.9536 100.764 28.3446 100.65 28.8002 100.406C29.4527 100.057 30.1954 99.4692 31.0705 98.6093C32.051 97.6461 33.1541 96.3854 34.3484 94.862C35.7966 93.0153 37.2544 90.942 38.9365 88.337C39.4202 87.5868 39.8976 86.8326 40.3687 86.0745ZM48.8719 72.1268C48.8658 71.9657 48.7619 71.9657 48.4846 72.2935C48.2073 72.6212 47.7568 73.2766 46.9823 74.4206C46.2079 75.5648 45.1106 77.1975 44.1912 78.4051C43.273 79.6122 42.5328 80.3944 41.7765 81.0498C41.0196 81.7057 40.2452 82.2344 39.4708 82.5967C38.6964 82.9587 37.9226 83.1543 36.5703 83.3266C35.2185 83.4992 33.2885 83.6487 31.1914 83.7234C29.0939 83.7979 26.8289 83.7979 22.4088 83.7466C17.9885 83.6945 11.4134 83.5912 7.94647 83.4992C4.47953 83.4073 4.12165 83.3266 3.9192 83.2406C3.71721 83.1543 3.67088 83.0623 3.62477 82.6367C3.57821 82.2113 3.53211 81.4525 3.50906 81.0728C3.486 80.6937 3.486 80.6937 3.95389 80.6476C4.42201 80.6015 5.35802 80.5097 6.43256 80.3542C7.50734 80.1991 8.72088 79.9806 10.0844 79.6987C11.4481 79.4171 12.9616 79.0721 14.5852 78.5836C16.2087 78.0951 17.9424 77.4623 19.3232 76.9332C20.7041 76.4042 21.7325 75.9786 22.8253 75.3915C23.9186 74.804 25.0758 74.0545 26.0983 73.3016C27.121 72.5485 28.0091 71.7915 28.8114 71.0507C29.6136 70.3098 30.3301 69.5856 31.1565 68.6714C31.9825 67.7573 32.9187 66.6531 33.8835 65.4919C34.8483 64.3306 35.8422 63.1117 36.8533 62.0595C37.8647 61.0073 38.8929 60.122 40.3029 59.2767C41.7128 58.4318 43.5035 57.6267 44.8616 57.1956C46.2196 56.7646 47.1439 56.7069 47.9526 56.6667C48.7617 56.6265 49.4549 56.6031 50.0789 56.7294C50.7029 56.8563 51.2575 57.132 51.6044 57.5402C51.9509 57.9487 52.0899 58.489 51.732 59.519C51.3732 60.5492 50.5187 62.0693 49.7849 63.2957C49.0516 64.5225 48.4399 65.456 47.7527 66.4378C47.0652 67.4194 46.3022 68.4489 45.5848 69.4302C44.8679 70.4109 44.1976 71.3439 43.4232 72.2642C42.6488 73.1849 41.7707 74.0933 40.9041 74.9729C40.037 75.8523 39.1821 76.7033 38.4193 77.3933C37.6565 78.0833 36.9866 78.6122 36.3624 79.078C35.7382 79.5438 35.1605 79.9461 34.652 80.2565C34.1435 80.567 33.7046 80.7855 33.485 80.9694C33.2654 81.1536 33.2654 81.3031 33.6525 81.3891C34.0396 81.4757 34.8138 81.4984 35.4784 81.4697C36.1428 81.4409 36.6977 81.3605 37.5584 81.056C38.4191 80.7512 39.5865 80.222 40.4066 79.7391C41.2278 79.2563 41.7014 78.8193 42.3194 78.2039C42.9377 77.5888 43.7 76.7955 44.411 75.8928C45.122 74.99 45.7804 73.978 46.4104 72.9314C47.0399 71.8856 47.6408 70.8045 48.2415 69.6489C48.8429 68.4932 49.4439 67.2627 50.1371 65.7966C50.8302 64.3306 51.616 62.6286 52.1707 61.335C52.7257 60.0414 53.0494 59.1561 53.5574 58.0119C54.0662 56.8677 54.7593 55.4648 55.1003 54.6888C55.4413 53.9125 55.4292 53.7628 54.5106 53.7342C53.5924 53.7053 51.7669 53.7971 50.3219 54.0015C48.8772 54.2052 47.8145 54.5211 46.6073 54.9295C45.4007 55.3376 44.0508 55.8382 42.6988 56.4855C41.3467 57.1323 39.993 57.9258 39.0385 58.541C38.0842 59.1563 37.5296 59.5933 36.9412 60.0759C36.3528 60.559 35.7309 61.0879 35.1126 61.6861C34.4943 62.2836 33.8801 62.9507 33.3186 63.6061C32.7571 64.2618 32.2486 64.9057 31.6477 65.682C31.0467 66.4582 30.3536 67.3662 29.5043 68.3092C28.5963 69.3146 27.6173 70.2542 26.5748 71.1209C25.5001 72.0121 24.3561 72.8169 23.0849 73.5646C21.8138 74.3118 20.4154 75.0018 19.0402 75.6168C17.6651 76.2321 16.313 76.7726 14.7359 77.2784C13.1583 77.7842 11.3557 78.2556 9.99788 78.5893C8.64009 78.9227 7.72713 79.118 6.66948 79.2906C5.61228 79.463 4.4106 79.6124 3.50906 79.6871C2.60774 79.7621 2.00656 79.7621 1.70049 79.808C1.3942 79.8541 1.38256 79.9458 1.52133 80.7221C1.65987 81.4981 1.94905 82.9585 2.09329 83.6889C2.238 84.4188 2.238 84.4188 3.82106 84.5453C5.40458 84.6721 8.57048 84.9248 11.2459 85.0974C13.9211 85.27 16.1051 85.3618 17.9712 85.4651C19.8375 85.5687 21.3858 85.6838 23.443 85.8153C25.4996 85.9468 28.065 86.0949 30.1107 86.1201C32.1567 86.1451 33.6827 86.047 34.9797 85.8596C36.2773 85.6723 37.3447 85.3952 38.275 85.0886C39.2047 84.7818 39.9964 84.4449 40.9356 83.8229C41.8744 83.2001 42.9608 82.2917 43.9659 80.9924C44.9711 79.6928 45.8957 78.0026 46.6701 76.5938C47.4445 75.1857 48.0685 74.0586 48.4269 73.3341C48.785 72.6098 48.8772 72.2878 48.8719 72.1268ZM43.2691 61.8044C43.2502 62.3664 43.2343 62.9284 43.2217 63.4905C43.2052 64.2943 43.2128 64.6429 43.1582 64.8873C43.1032 65.1314 42.9857 65.2716 42.817 65.3504C42.649 65.4285 42.4292 65.4458 42.2039 65.414C41.9784 65.3824 41.7475 65.302 41.5539 65.1582C41.3599 65.0145 41.204 64.8076 41.0338 64.6125C40.8635 64.4176 40.6788 64.2339 40.515 64.1403C40.3511 64.0472 40.2078 64.0438 40.1324 64.1439C40.0574 64.2441 40.0496 64.4483 40.1359 64.6942C40.2221 64.94 40.4013 65.2277 40.6323 65.5064C40.8637 65.7851 41.1467 66.0553 41.5957 66.3249C42.0451 66.5947 42.6602 66.8634 43.2173 66.9604C43.7745 67.0576 44.2736 66.9829 44.765 66.7757C45.2562 66.5688 45.7387 66.2298 46.0947 65.9195C46.4506 65.61 46.6788 65.3295 46.8333 65.1176C46.9878 64.9057 47.0686 64.7617 47.1097 64.602C47.1508 64.4424 47.1526 64.267 47.0474 64.1996C46.9426 64.1319 46.7322 64.1723 46.5119 64.3261C46.2917 64.4801 46.0621 64.7474 45.8142 64.9416C45.5664 65.1355 45.3007 65.2563 45.0724 65.3252C44.8442 65.394 44.6539 65.4115 44.4859 65.3942C44.3188 65.3769 44.1739 65.3252 44.0874 65.2277C44.0009 65.1298 43.9716 64.9861 43.9429 64.1782C43.921 63.5714 43.8995 62.5903 43.882 61.8083C44.1275 61.8083 44.3601 61.8065 44.5432 61.8024C45.0546 61.7908 45.1877 61.7622 45.2801 61.702C45.3723 61.6418 45.4246 61.5496 45.4536 61.4579C45.4821 61.3657 45.4883 61.2737 45.4938 61.2251C45.4999 61.1762 45.5054 61.1703 44.8727 61.1678C44.6151 61.1665 44.251 61.1656 43.8678 61.1653L43.8667 61.1179C43.8631 60.9364 43.8576 60.755 43.85 60.5737C43.9367 60.5274 44.0093 60.4587 44.0601 60.3748C44.1109 60.2909 44.138 60.1949 44.1385 60.097C44.1385 59.7959 43.8895 59.5506 43.5846 59.5506C43.2792 59.5506 43.0304 59.7959 43.0304 60.097C43.031 60.1946 43.0579 60.2902 43.1083 60.3739C43.1588 60.4576 43.2309 60.5263 43.3171 60.5728C43.3134 60.6378 43.3102 60.7123 43.3063 60.8002C43.3018 60.9055 43.297 61.0295 43.292 61.1649C42.9261 61.1649 42.5812 61.1653 42.3334 61.1658C41.6977 61.1678 41.6977 61.1703 41.6977 61.2192C41.6977 61.268 41.6977 61.3629 41.7253 61.4542C41.7527 61.5451 41.8077 61.633 41.9002 61.6904C41.9926 61.7479 42.1231 61.7754 42.6326 61.7917C42.8092 61.7974 43.0327 61.8015 43.2691 61.8044ZM58.0501 54.1918C57.8794 54.1668 57.6199 54.3574 57.3813 54.5784C57.1433 54.7998 56.9262 55.0508 56.5067 55.6883C56.0877 56.3258 55.4671 57.3494 54.9025 58.4393C54.3378 59.5292 53.829 60.685 53.1585 62.2289C52.4884 63.7728 51.6567 65.7047 50.9907 67.1864C50.3247 68.6685 49.8246 69.7003 49.6457 70.2553C49.4665 70.81 49.6082 70.8876 49.9501 70.3716C50.2925 69.8558 50.8359 68.7459 51.4595 67.5534C52.0835 66.3601 52.7887 65.0837 53.4878 63.7903C54.1872 62.4967 54.8805 61.1853 55.5219 60.0534C56.163 58.9206 56.7528 57.966 57.2207 57.1034C57.6883 56.2413 58.0355 55.4709 58.1683 54.9649C58.3011 54.4589 58.2204 54.2173 58.0501 54.1918Z" fill="white"/>
</svg>
